<?xml version="1.0" encoding="UTF-8" standalone="no"?>
<!-- Created with Inkscape (http://www.inkscape.org/) -->

<svg
   xmlns:dc="http://purl.org/dc/elements/1.1/"
   xmlns:cc="http://creativecommons.org/ns#"
   xmlns:rdf="http://www.w3.org/1999/02/22-rdf-syntax-ns#"
   xmlns:svg="http://www.w3.org/2000/svg"
   xmlns="http://www.w3.org/2000/svg"
   xmlns:sodipodi="http://sodipodi.sourceforge.net/DTD/sodipodi-0.dtd"
   xmlns:inkscape="http://www.inkscape.org/namespaces/inkscape"
   width="560"
   height="40"
   viewBox="0 0 525.00002 37.499999"
   id="svg2"
   version="1.1"
   inkscape:version="0.92.1 r"
   sodipodi:docname="esquema.svg"
   inkscape:export-filename="/home/nika-zhenya/Descargas/iconos.png"
   inkscape:export-xdpi="206.39999"
   inkscape:export-ydpi="206.39999">
  <defs
     id="defs4">
    <marker
       inkscape:isstock="true"
       style="overflow:visible"
       id="marker7848"
       refX="0"
       refY="0"
       orient="auto"
       inkscape:stockid="Arrow2Lstart">
      <path
         transform="matrix(1.1,0,0,1.1,1.1,0)"
         d="M 8.7185878,4.0337352 -2.2072895,0.01601326 8.7185884,-4.0017078 c -1.7454984,2.3720609 -1.7354408,5.6174519 -6e-7,8.035443 z"
         style="fill:#000000;fill-opacity:1;fill-rule:evenodd;stroke:#000000;stroke-width:0.625;stroke-linejoin:round;stroke-opacity:1"
         id="path7850"
         inkscape:connector-curvature="0" />
    </marker>
    <marker
       inkscape:stockid="Arrow2Lend"
       orient="auto"
       refY="0"
       refX="0"
       id="marker15812"
       style="overflow:visible"
       inkscape:isstock="true">
      <path
         id="path15814"
         style="fill:#000000;fill-opacity:1;fill-rule:evenodd;stroke:#000000;stroke-width:0.625;stroke-linejoin:round;stroke-opacity:1"
         d="M 8.7185878,4.0337352 -2.2072895,0.01601326 8.7185884,-4.0017078 c -1.7454984,2.3720609 -1.7354408,5.6174519 -6e-7,8.035443 z"
         transform="matrix(-1.1,0,0,-1.1,-1.1,0)"
         inkscape:connector-curvature="0" />
    </marker>
    <marker
       inkscape:stockid="Arrow2Lend"
       orient="auto"
       refY="0"
       refX="0"
       id="marker15344"
       style="overflow:visible"
       inkscape:isstock="true">
      <path
         id="path15346"
         style="fill:#000000;fill-opacity:1;fill-rule:evenodd;stroke:#000000;stroke-width:0.625;stroke-linejoin:round;stroke-opacity:1"
         d="M 8.7185878,4.0337352 -2.2072895,0.01601326 8.7185884,-4.0017078 c -1.7454984,2.3720609 -1.7354408,5.6174519 -6e-7,8.035443 z"
         transform="matrix(-1.1,0,0,-1.1,-1.1,0)"
         inkscape:connector-curvature="0" />
    </marker>
    <marker
       inkscape:isstock="true"
       style="overflow:visible"
       id="marker14932"
       refX="0"
       refY="0"
       orient="auto"
       inkscape:stockid="Arrow2Lstart">
      <path
         transform="matrix(1.1,0,0,1.1,1.1,0)"
         d="M 8.7185878,4.0337352 -2.2072895,0.01601326 8.7185884,-4.0017078 c -1.7454984,2.3720609 -1.7354408,5.6174519 -6e-7,8.035443 z"
         style="fill:#000000;fill-opacity:1;fill-rule:evenodd;stroke:#000000;stroke-width:0.625;stroke-linejoin:round;stroke-opacity:1"
         id="path14934"
         inkscape:connector-curvature="0" />
    </marker>
    <marker
       inkscape:isstock="true"
       style="overflow:visible"
       id="marker13498"
       refX="0"
       refY="0"
       orient="auto"
       inkscape:stockid="Arrow2Lend">
      <path
         transform="matrix(-1.1,0,0,-1.1,-1.1,0)"
         d="M 8.7185878,4.0337352 -2.2072895,0.01601326 8.7185884,-4.0017078 c -1.7454984,2.3720609 -1.7354408,5.6174519 -6e-7,8.035443 z"
         style="fill:#000000;fill-opacity:1;fill-rule:evenodd;stroke:#000000;stroke-width:0.625;stroke-linejoin:round;stroke-opacity:1"
         id="path13500"
         inkscape:connector-curvature="0" />
    </marker>
    <marker
       inkscape:stockid="Arrow2Lstart"
       orient="auto"
       refY="0"
       refX="0"
       id="marker13116"
       style="overflow:visible"
       inkscape:isstock="true">
      <path
         id="path13118"
         style="fill:#000000;fill-opacity:1;fill-rule:evenodd;stroke:#000000;stroke-width:0.625;stroke-linejoin:round;stroke-opacity:1"
         d="M 8.7185878,4.0337352 -2.2072895,0.01601326 8.7185884,-4.0017078 c -1.7454984,2.3720609 -1.7354408,5.6174519 -6e-7,8.035443 z"
         transform="matrix(1.1,0,0,1.1,1.1,0)"
         inkscape:connector-curvature="0" />
    </marker>
    <marker
       inkscape:stockid="Arrow2Lend"
       orient="auto"
       refY="0"
       refX="0"
       id="marker11746"
       style="overflow:visible"
       inkscape:isstock="true">
      <path
         id="path11748"
         style="fill:#000000;fill-opacity:1;fill-rule:evenodd;stroke:#000000;stroke-width:0.625;stroke-linejoin:round;stroke-opacity:1"
         d="M 8.7185878,4.0337352 -2.2072895,0.01601326 8.7185884,-4.0017078 c -1.7454984,2.3720609 -1.7354408,5.6174519 -6e-7,8.035443 z"
         transform="matrix(-1.1,0,0,-1.1,-1.1,0)"
         inkscape:connector-curvature="0" />
    </marker>
    <marker
       inkscape:stockid="Arrow2Lend"
       orient="auto"
       refY="0"
       refX="0"
       id="marker8745"
       style="overflow:visible"
       inkscape:isstock="true">
      <path
         id="path8747"
         style="fill:#000000;fill-opacity:1;fill-rule:evenodd;stroke:#000000;stroke-width:0.625;stroke-linejoin:round;stroke-opacity:1"
         d="M 8.7185878,4.0337352 -2.2072895,0.01601326 8.7185884,-4.0017078 c -1.7454984,2.3720609 -1.7354408,5.6174519 -6e-7,8.035443 z"
         transform="matrix(-1.1,0,0,-1.1,-1.1,0)"
         inkscape:connector-curvature="0" />
    </marker>
    <marker
       inkscape:isstock="true"
       style="overflow:visible"
       id="marker6675"
       refX="0"
       refY="0"
       orient="auto"
       inkscape:stockid="Arrow2Lend">
      <path
         transform="matrix(-1.1,0,0,-1.1,-1.1,0)"
         d="M 8.7185878,4.0337352 -2.2072895,0.01601326 8.7185884,-4.0017078 c -1.7454984,2.3720609 -1.7354408,5.6174519 -6e-7,8.035443 z"
         style="fill:#000000;fill-opacity:1;fill-rule:evenodd;stroke:#000000;stroke-width:0.625;stroke-linejoin:round;stroke-opacity:1"
         id="path6677"
         inkscape:connector-curvature="0" />
    </marker>
    <marker
       inkscape:stockid="Arrow2Lend"
       orient="auto"
       refY="0"
       refX="0"
       id="marker6320"
       style="overflow:visible"
       inkscape:isstock="true">
      <path
         id="path4685"
         style="fill:#001050;fill-opacity:0;fill-rule:evenodd;stroke:#000000;stroke-width:0.625;stroke-linejoin:round;stroke-opacity:1"
         d="M 8.7185878,4.0337352 -2.2072895,0.01601326 8.7185884,-4.0017078 c -1.7454984,2.3720609 -1.7354408,5.6174519 -6e-7,8.035443 z"
         transform="matrix(-1.1,0,0,-1.1,-1.1,0)"
         inkscape:connector-curvature="0" />
    </marker>
    <marker
       inkscape:stockid="Arrow2Lend"
       orient="auto"
       refY="0"
       refX="0"
       id="marker5992"
       style="overflow:visible"
       inkscape:isstock="true">
      <path
         id="path5994"
         style="fill:#001050;fill-opacity:0;fill-rule:evenodd;stroke:#000000;stroke-width:0.625;stroke-linejoin:round;stroke-opacity:1"
         d="M 8.7185878,4.0337352 -2.2072895,0.01601326 8.7185884,-4.0017078 c -1.7454984,2.3720609 -1.7354408,5.6174519 -6e-7,8.035443 z"
         transform="matrix(-1.1,0,0,-1.1,-1.1,0)"
         inkscape:connector-curvature="0" />
    </marker>
    <marker
       inkscape:stockid="Arrow2Lend"
       orient="auto"
       refY="0"
       refX="0"
       id="marker5556"
       style="overflow:visible"
       inkscape:isstock="true">
      <path
         id="path5558"
         style="fill:#000000;fill-opacity:1;fill-rule:evenodd;stroke:#000000;stroke-width:0.625;stroke-linejoin:round;stroke-opacity:1"
         d="M 8.7185878,4.0337352 -2.2072895,0.01601326 8.7185884,-4.0017078 c -1.7454984,2.3720609 -1.7354408,5.6174519 -6e-7,8.035443 z"
         transform="matrix(-1.1,0,0,-1.1,-1.1,0)"
         inkscape:connector-curvature="0" />
    </marker>
    <marker
       inkscape:stockid="Arrow2Lend"
       orient="auto"
       refY="0"
       refX="0"
       id="marker5228"
       style="overflow:visible"
       inkscape:isstock="true">
      <path
         id="path5230"
         style="fill:#001050;fill-opacity:0;fill-rule:evenodd;stroke:#000000;stroke-width:0.625;stroke-linejoin:round;stroke-opacity:1"
         d="M 8.7185878,4.0337352 -2.2072895,0.01601326 8.7185884,-4.0017078 c -1.7454984,2.3720609 -1.7354408,5.6174519 -6e-7,8.035443 z"
         transform="matrix(-1.1,0,0,-1.1,-1.1,0)"
         inkscape:connector-curvature="0" />
    </marker>
    <marker
       inkscape:stockid="TriangleOutL"
       orient="auto"
       refY="0"
       refX="0"
       id="TriangleOutL"
       style="overflow:visible"
       inkscape:isstock="true">
      <path
         id="path4806"
         d="M 5.77,0 -2.88,5 V -5 Z"
         style="fill:#001050;fill-opacity:0;fill-rule:evenodd;stroke:#000000;stroke-width:1.00000003pt;stroke-opacity:1"
         transform="scale(0.8)"
         inkscape:connector-curvature="0" />
    </marker>
    <marker
       inkscape:isstock="true"
       style="overflow:visible"
       id="marker15387"
       refX="0"
       refY="0"
       orient="auto"
       inkscape:stockid="Arrow2Lend">
      <path
         transform="matrix(-1.1,0,0,-1.1,-1.1,0)"
         d="M 8.7185878,4.0337352 -2.2072895,0.01601326 8.7185884,-4.0017078 c -1.7454984,2.3720609 -1.7354408,5.6174519 -6e-7,8.035443 z"
         style="fill:#001050;fill-opacity:0;fill-rule:evenodd;stroke:#000000;stroke-width:0.625;stroke-linejoin:round;stroke-opacity:1"
         id="path15389"
         inkscape:connector-curvature="0" />
    </marker>
    <marker
       inkscape:isstock="true"
       style="overflow:visible"
       id="marker15083"
       refX="0"
       refY="0"
       orient="auto"
       inkscape:stockid="Arrow2Lend">
      <path
         transform="matrix(-1.1,0,0,-1.1,-1.1,0)"
         d="M 8.7185878,4.0337352 -2.2072895,0.01601326 8.7185884,-4.0017078 c -1.7454984,2.3720609 -1.7354408,5.6174519 -6e-7,8.035443 z"
         style="fill:#001050;fill-opacity:0;fill-rule:evenodd;stroke:#000000;stroke-width:0.625;stroke-linejoin:round;stroke-opacity:1"
         id="path15085"
         inkscape:connector-curvature="0" />
    </marker>
    <marker
       inkscape:isstock="true"
       style="overflow:visible"
       id="marker14785"
       refX="0"
       refY="0"
       orient="auto"
       inkscape:stockid="Arrow2Lend">
      <path
         transform="matrix(-1.1,0,0,-1.1,-1.1,0)"
         d="M 8.7185878,4.0337352 -2.2072895,0.01601326 8.7185884,-4.0017078 c -1.7454984,2.3720609 -1.7354408,5.6174519 -6e-7,8.035443 z"
         style="fill:#001050;fill-opacity:0;fill-rule:evenodd;stroke:#000000;stroke-width:0.625;stroke-linejoin:round;stroke-opacity:1"
         id="path14787"
         inkscape:connector-curvature="0" />
    </marker>
    <marker
       inkscape:stockid="Arrow2Lend"
       orient="auto"
       refY="0"
       refX="0"
       id="marker14493"
       style="overflow:visible"
       inkscape:isstock="true">
      <path
         id="path14495"
         style="fill:#001050;fill-opacity:0;fill-rule:evenodd;stroke:#000000;stroke-width:0.625;stroke-linejoin:round;stroke-opacity:1"
         d="M 8.7185878,4.0337352 -2.2072895,0.01601326 8.7185884,-4.0017078 c -1.7454984,2.3720609 -1.7354408,5.6174519 -6e-7,8.035443 z"
         transform="matrix(-1.1,0,0,-1.1,-1.1,0)"
         inkscape:connector-curvature="0" />
    </marker>
    <marker
       inkscape:isstock="true"
       style="overflow:visible"
       id="marker14213"
       refX="0"
       refY="0"
       orient="auto"
       inkscape:stockid="Arrow2Lend">
      <path
         transform="matrix(-1.1,0,0,-1.1,-1.1,0)"
         d="M 8.7185878,4.0337352 -2.2072895,0.01601326 8.7185884,-4.0017078 c -1.7454984,2.3720609 -1.7354408,5.6174519 -6e-7,8.035443 z"
         style="fill:#001050;fill-opacity:0;fill-rule:evenodd;stroke:#000000;stroke-width:0.625;stroke-linejoin:round;stroke-opacity:1"
         id="path14215"
         inkscape:connector-curvature="0" />
    </marker>
    <marker
       inkscape:isstock="true"
       style="overflow:visible"
       id="marker13933"
       refX="0"
       refY="0"
       orient="auto"
       inkscape:stockid="Arrow2Lend">
      <path
         transform="matrix(-1.1,0,0,-1.1,-1.1,0)"
         d="M 8.7185878,4.0337352 -2.2072895,0.01601326 8.7185884,-4.0017078 c -1.7454984,2.3720609 -1.7354408,5.6174519 -6e-7,8.035443 z"
         style="fill:#001050;fill-opacity:0;fill-rule:evenodd;stroke:#000000;stroke-width:0.625;stroke-linejoin:round;stroke-opacity:1"
         id="path13935"
         inkscape:connector-curvature="0" />
    </marker>
    <marker
       inkscape:stockid="Arrow2Lend"
       orient="auto"
       refY="0"
       refX="0"
       id="marker13659"
       style="overflow:visible"
       inkscape:isstock="true">
      <path
         id="path13661"
         style="fill:#001050;fill-opacity:0;fill-rule:evenodd;stroke:#000000;stroke-width:0.625;stroke-linejoin:round;stroke-opacity:1"
         d="M 8.7185878,4.0337352 -2.2072895,0.01601326 8.7185884,-4.0017078 c -1.7454984,2.3720609 -1.7354408,5.6174519 -6e-7,8.035443 z"
         transform="matrix(-1.1,0,0,-1.1,-1.1,0)"
         inkscape:connector-curvature="0" />
    </marker>
    <marker
       inkscape:stockid="Arrow2Lstart"
       orient="auto"
       refY="0"
       refX="0"
       id="marker13391"
       style="overflow:visible"
       inkscape:isstock="true">
      <path
         id="path13393"
         style="fill:#001050;fill-opacity:0;fill-rule:evenodd;stroke:#000000;stroke-width:0.625;stroke-linejoin:round;stroke-opacity:1"
         d="M 8.7185878,4.0337352 -2.2072895,0.01601326 8.7185884,-4.0017078 c -1.7454984,2.3720609 -1.7354408,5.6174519 -6e-7,8.035443 z"
         transform="matrix(1.1,0,0,1.1,1.1,0)"
         inkscape:connector-curvature="0" />
    </marker>
    <marker
       inkscape:stockid="Arrow2Lstart"
       orient="auto"
       refY="0"
       refX="0"
       id="marker13129"
       style="overflow:visible"
       inkscape:isstock="true">
      <path
         id="path13131"
         style="fill:#001050;fill-opacity:0;fill-rule:evenodd;stroke:#000000;stroke-width:0.625;stroke-linejoin:round;stroke-opacity:1"
         d="M 8.7185878,4.0337352 -2.2072895,0.01601326 8.7185884,-4.0017078 c -1.7454984,2.3720609 -1.7354408,5.6174519 -6e-7,8.035443 z"
         transform="matrix(1.1,0,0,1.1,1.1,0)"
         inkscape:connector-curvature="0" />
    </marker>
    <marker
       inkscape:stockid="Arrow2Lstart"
       orient="auto"
       refY="0"
       refX="0"
       id="marker12873"
       style="overflow:visible"
       inkscape:isstock="true">
      <path
         id="path12875"
         style="fill:#001050;fill-opacity:0;fill-rule:evenodd;stroke:#000000;stroke-width:0.625;stroke-linejoin:round;stroke-opacity:1"
         d="M 8.7185878,4.0337352 -2.2072895,0.01601326 8.7185884,-4.0017078 c -1.7454984,2.3720609 -1.7354408,5.6174519 -6e-7,8.035443 z"
         transform="matrix(1.1,0,0,1.1,1.1,0)"
         inkscape:connector-curvature="0" />
    </marker>
    <marker
       inkscape:stockid="Arrow2Lend"
       orient="auto"
       refY="0"
       refX="0"
       id="marker12623"
       style="overflow:visible"
       inkscape:isstock="true">
      <path
         id="path12625"
         style="fill:#001050;fill-opacity:0;fill-rule:evenodd;stroke:#000000;stroke-width:0.625;stroke-linejoin:round;stroke-opacity:1"
         d="M 8.7185878,4.0337352 -2.2072895,0.01601326 8.7185884,-4.0017078 c -1.7454984,2.3720609 -1.7354408,5.6174519 -6e-7,8.035443 z"
         transform="matrix(-1.1,0,0,-1.1,-1.1,0)"
         inkscape:connector-curvature="0" />
    </marker>
    <marker
       inkscape:stockid="Arrow2Lend"
       orient="auto"
       refY="0"
       refX="0"
       id="marker12367"
       style="overflow:visible"
       inkscape:isstock="true">
      <path
         id="path12369"
         style="fill:#001050;fill-opacity:0;fill-rule:evenodd;stroke:#000000;stroke-width:0.625;stroke-linejoin:round;stroke-opacity:1"
         d="M 8.7185878,4.0337352 -2.2072895,0.01601326 8.7185884,-4.0017078 c -1.7454984,2.3720609 -1.7354408,5.6174519 -6e-7,8.035443 z"
         transform="matrix(-1.1,0,0,-1.1,-1.1,0)"
         inkscape:connector-curvature="0" />
    </marker>
    <marker
       inkscape:isstock="true"
       style="overflow:visible"
       id="marker12135"
       refX="0"
       refY="0"
       orient="auto"
       inkscape:stockid="Arrow2Lend">
      <path
         transform="matrix(-1.1,0,0,-1.1,-1.1,0)"
         d="M 8.7185878,4.0337352 -2.2072895,0.01601326 8.7185884,-4.0017078 c -1.7454984,2.3720609 -1.7354408,5.6174519 -6e-7,8.035443 z"
         style="fill:#001050;fill-opacity:0;fill-rule:evenodd;stroke:#000000;stroke-width:0.625;stroke-linejoin:round;stroke-opacity:1"
         id="path12137"
         inkscape:connector-curvature="0" />
    </marker>
    <marker
       inkscape:isstock="true"
       style="overflow:visible"
       id="marker11903"
       refX="0"
       refY="0"
       orient="auto"
       inkscape:stockid="Arrow2Lend">
      <path
         transform="matrix(-1.1,0,0,-1.1,-1.1,0)"
         d="M 8.7185878,4.0337352 -2.2072895,0.01601326 8.7185884,-4.0017078 c -1.7454984,2.3720609 -1.7354408,5.6174519 -6e-7,8.035443 z"
         style="fill:#001050;fill-opacity:0;fill-rule:evenodd;stroke:#000000;stroke-width:0.625;stroke-linejoin:round;stroke-opacity:1"
         id="path11905"
         inkscape:connector-curvature="0" />
    </marker>
    <marker
       inkscape:stockid="Arrow2Lend"
       orient="auto"
       refY="0"
       refX="0"
       id="marker11677"
       style="overflow:visible"
       inkscape:isstock="true">
      <path
         id="path11679"
         style="fill:#001050;fill-opacity:0;fill-rule:evenodd;stroke:#000000;stroke-width:0.625;stroke-linejoin:round;stroke-opacity:1"
         d="M 8.7185878,4.0337352 -2.2072895,0.01601326 8.7185884,-4.0017078 c -1.7454984,2.3720609 -1.7354408,5.6174519 -6e-7,8.035443 z"
         transform="matrix(-1.1,0,0,-1.1,-1.1,0)"
         inkscape:connector-curvature="0" />
    </marker>
    <marker
       inkscape:isstock="true"
       style="overflow:visible"
       id="marker11457"
       refX="0"
       refY="0"
       orient="auto"
       inkscape:stockid="Arrow2Lstart">
      <path
         transform="matrix(1.1,0,0,1.1,1.1,0)"
         d="M 8.7185878,4.0337352 -2.2072895,0.01601326 8.7185884,-4.0017078 c -1.7454984,2.3720609 -1.7354408,5.6174519 -6e-7,8.035443 z"
         style="fill:#001050;fill-opacity:0;fill-rule:evenodd;stroke:#000000;stroke-width:0.625;stroke-linejoin:round;stroke-opacity:1"
         id="path11459"
         inkscape:connector-curvature="0" />
    </marker>
    <marker
       inkscape:stockid="Arrow2Lend"
       orient="auto"
       refY="0"
       refX="0"
       id="marker11243"
       style="overflow:visible"
       inkscape:isstock="true">
      <path
         id="path11245"
         style="fill:#001050;fill-opacity:0;fill-rule:evenodd;stroke:#000000;stroke-width:0.625;stroke-linejoin:round;stroke-opacity:1"
         d="M 8.7185878,4.0337352 -2.2072895,0.01601326 8.7185884,-4.0017078 c -1.7454984,2.3720609 -1.7354408,5.6174519 -6e-7,8.035443 z"
         transform="matrix(-1.1,0,0,-1.1,-1.1,0)"
         inkscape:connector-curvature="0" />
    </marker>
    <marker
       inkscape:stockid="Arrow2Lend"
       orient="auto"
       refY="0"
       refX="0"
       id="marker11023"
       style="overflow:visible"
       inkscape:isstock="true">
      <path
         id="path11025"
         style="fill:#001050;fill-opacity:0;fill-rule:evenodd;stroke:#000000;stroke-width:0.625;stroke-linejoin:round;stroke-opacity:1"
         d="M 8.7185878,4.0337352 -2.2072895,0.01601326 8.7185884,-4.0017078 c -1.7454984,2.3720609 -1.7354408,5.6174519 -6e-7,8.035443 z"
         transform="matrix(-1.1,0,0,-1.1,-1.1,0)"
         inkscape:connector-curvature="0" />
    </marker>
    <marker
       inkscape:isstock="true"
       style="overflow:visible"
       id="marker10941"
       refX="0"
       refY="0"
       orient="auto"
       inkscape:stockid="Arrow2Lend">
      <path
         transform="matrix(-1.1,0,0,-1.1,-1.1,0)"
         d="M 8.7185878,4.0337352 -2.2072895,0.01601326 8.7185884,-4.0017078 c -1.7454984,2.3720609 -1.7354408,5.6174519 -6e-7,8.035443 z"
         style="fill:#001050;fill-opacity:0;fill-rule:evenodd;stroke:#000000;stroke-width:0.625;stroke-linejoin:round;stroke-opacity:1"
         id="path10943"
         inkscape:connector-curvature="0" />
    </marker>
    <marker
       inkscape:isstock="true"
       style="overflow:visible"
       id="marker8269"
       refX="0"
       refY="0"
       orient="auto"
       inkscape:stockid="Arrow2Lend">
      <path
         transform="matrix(-1.1,0,0,-1.1,-1.1,0)"
         d="M 8.7185878,4.0337352 -2.2072895,0.01601326 8.7185884,-4.0017078 c -1.7454984,2.3720609 -1.7354408,5.6174519 -6e-7,8.035443 z"
         style="fill:#001050;fill-opacity:0;fill-rule:evenodd;stroke:#000000;stroke-width:0.625;stroke-linejoin:round;stroke-opacity:1"
         id="path8271"
         inkscape:connector-curvature="0" />
    </marker>
    <marker
       inkscape:isstock="true"
       style="overflow:visible"
       id="marker5341"
       refX="0"
       refY="0"
       orient="auto"
       inkscape:stockid="Arrow2Lend">
      <path
         transform="matrix(-1.1,0,0,-1.1,-1.1,0)"
         d="M 8.7185878,4.0337352 -2.2072895,0.01601326 8.7185884,-4.0017078 c -1.7454984,2.3720609 -1.7354408,5.6174519 -6e-7,8.035443 z"
         style="fill:#000000;fill-opacity:1;fill-rule:evenodd;stroke:#000000;stroke-width:0.625;stroke-linejoin:round;stroke-opacity:1"
         id="path5343"
         inkscape:connector-curvature="0" />
    </marker>
    <clipPath
       id="clipPath5975"
       clipPathUnits="userSpaceOnUse">
      <rect
         y="552.36218"
         x="0"
         height="500"
         width="1500"
         id="rect5977"
         style="fill:#d34939;fill-opacity:1;stroke:none" />
    </clipPath>
  </defs>
  <sodipodi:namedview
     id="base"
     pagecolor="#ffffff"
     bordercolor="#666666"
     borderopacity="1.0"
     inkscape:pageopacity="0.0"
     inkscape:pageshadow="2"
     inkscape:zoom="2.5579011"
     inkscape:cx="285.35101"
     inkscape:cy="88.046484"
     inkscape:document-units="px"
     inkscape:current-layer="layer2"
     showgrid="false"
     units="px"
     inkscape:window-width="1920"
     inkscape:window-height="1017"
     inkscape:window-x="0"
     inkscape:window-y="26"
     inkscape:window-maximized="1"
     inkscape:showpageshadow="false" />
  <metadata
     id="metadata7">
    <rdf:RDF>
      <cc:Work
         rdf:about="">
        <dc:format>image/svg+xml</dc:format>
        <dc:type
           rdf:resource="http://purl.org/dc/dcmitype/StillImage" />
        <dc:title></dc:title>
      </cc:Work>
    </rdf:RDF>
  </metadata>
  <g
     inkscape:groupmode="layer"
     id="layer2"
     inkscape:label="otros"
     style="display:inline"
     transform="translate(0,-727.50003)" />
  <g
     inkscape:label="iconos"
     inkscape:groupmode="layer"
     id="layer1"
     transform="translate(0,-1014.8622)">
    <g
       id="g4888"
       transform="matrix(0.10401206,-0.02786995,0.02786995,0.10401206,21.380801,1113.1486)">
      <path
         inkscape:connector-curvature="0"
         id="path4886"
         d="m 30.304576,-647.21946 15.657365,-31.8198 2.525381,-5.05077 -4.545686,-6.06091 12.626907,-30.30456 11.616754,-35.8604 33.335033,-31.8198 27.7792,-13.6371 73.23606,48.4873 23.73858,2.5254 7.57614,-5.5558 35.35534,4.0406 3.53554,61.61928 -6.56599,29.7995 -38.89088,3.53554 -5.55584,-17.67767 -29.29442,4.04061 -36.87057,-3.03046 -30.80965,4.54568 -35.860416,-3.53553 -16.162441,-5.55584 -11.616754,18.18275 -20.203051,9.09137 -12.626907,5.55584 z"
         style="fill:#ffffff;fill-opacity:1;fill-rule:evenodd;stroke:none;stroke-width:1px;stroke-linecap:butt;stroke-linejoin:miter;stroke-opacity:1" />
      <path
         inkscape:connector-curvature="0"
         id="path4884"
         d="m 36.09245,-646.32837 c 20.95622,-7.55664 21.90346,-8.10368 31.5,-18.19184 l 9,-9.46105 6.47078,2.01094 c 12.391279,3.85085 25.23403,5.39035 39.1896,4.69777 36.33574,-1.80323 38.52759,-1.81379 53.03104,-0.25532 l 14.69142,1.57866 14.72345,-2.98206 c 8.0979,-1.64013 14.82704,-2.86875 14.95364,-2.73026 0.1266,0.13848 1.23834,4.00742 2.47054,8.59764 l 2.24036,8.34586 23.61458,-0.71657 c 12.98803,-0.39411 23.81894,-0.9041 24.06871,-1.1333 0.24976,-0.22921 2.27476,-10.41239 4.5,-22.62929 l 4.04588,-22.21255 -0.73931,-16.96887 c -0.63149,-14.49426 -1.19496,-18.61402 -3.86388,-28.25 l -3.12457,-11.28113 -5.13612,-0.0738 c -2.82487,-0.0406 -13.8597,-0.6031 -24.52186,-1.25 l -19.38573,-1.1762 -1.54948,3.25 c -1.9245,4.0366 -4.82112,4.21674 -14.25461,0.88647 -5.64086,-1.99138 -32.69063,-18.28825 -36.82095,-22.18379 -1.17936,-1.11232 0.30737,-3.23254 9.56093,-13.63491 6.02659,-6.77477 11.71752,-13.4304 12.64651,-14.79028 5.23515,-7.66333 -1.90374,-22.02749 -10.94752,-22.02749 -4.21888,0 -8.91842,4.21061 -23.86341,21.38072 -5.5,6.31888 -10.42666,11.51821 -10.94814,11.55408 -0.52147,0.0359 -4.90543,-2.1848 -9.74212,-4.9348 -4.83669,-2.75 -9.48749,-5 -10.33511,-5 -2.23334,0 -10.76824,4.46331 -20.03659,10.4781 -9.406481,6.10444 -26.12827,20.29343 -35.50938,30.13089 -6.39073,6.70162 -6.71428,7.30016 -11.77214,21.77811 -2.86044,8.1879 -6.06143,18.17285 -7.11329,22.18876 -1.05187,4.01592 -4.0446,12.94545 -6.6505,19.8434 -4.46311,11.81403 -4.64097,12.64896 -3.06537,14.38997 2.03881,2.25287 2.08106,3.07609 0.26235,5.11203 -1.60015,1.79127 -17.58971,35.47122 -17.58971,37.05045 0,1.57783 2.87847,1.17763 10,-1.39034 z m 0.18297,-8.84621 c -0.38233,-3.3137 6.37764,-16.41548 9.27379,-17.9739 3.48715,-1.87644 11.87817,9.31758 10.2212,13.63558 -0.60414,1.57436 -15.35228,7.68046 -17.67796,7.31912 -0.825,-0.12819 -1.64266,-1.46954 -1.81703,-2.9808 z m 193.55435,-9.57212 c 2.07904,-9.52232 5.26141,-29.69366 5.78421,-36.66304 0.59073,-7.87486 -0.8315,-28.90948 -3.02572,-44.75 l -0.51944,-3.75 h 13.92911 13.9291 l 1.55227,4.25 c 3.98919,10.92212 4.81899,16.42214 5.31826,35.25 0.43852,16.53716 0.22429,20.55548 -1.65273,31 -1.1861,6.6 -2.47387,12.31826 -2.86171,12.70725 -0.70617,0.70825 -29.80745,3.71719 -31.69067,3.27667 -0.55,-0.12866 -0.89321,-0.72305 -0.76268,-1.32088 z m -121.29619,-9.15593 c -1.68238,-0.004 -3.85814,-0.59155 -4.83502,-1.30586 -1.68702,-1.23358 -1.66525,-1.48669 0.43391,-5.04451 1.66923,-2.82913 2.0923,-4.79048 1.72885,-8.01501 -0.60208,-5.34158 -2.79105,-10.02232 -4.87464,-10.42358 -1.361061,-0.26212 -1.476771,0.38537 -0.802,4.48777 1.3538,8.23064 1.06868,13.99031 -0.784281,15.84328 -1.36333,1.36332 -2.96612,1.59569 -8.25,1.19606 -11.799249,-0.8924 -15.316339,-4.17907 -13.067449,-12.21134 1.61473,-5.76723 6.05287,-9.76004 15.911779,-14.31513 l 7.442551,-3.43867 24.48672,-1.34814 24.48673,-1.34814 3.42618,-3.29192 c 3.03715,-2.91814 6.97922,-8.79192 5.90051,-8.79192 -0.22351,0 -4.62257,1.52152 -9.77568,3.38115 -5.15311,1.85963 -11.79972,3.7112 -14.77026,4.1146 -6.66526,0.90514 -6.58878,0.50662 1.88383,-9.81641 6.86217,-8.36087 8.01714,-11.35926 8.01714,-20.81311 v -6.64697 l 9.09621,-10.10963 c 5.00291,-5.5603 9.25111,-10.10963 9.44044,-10.10963 0.18934,0 8.84753,5.17235 19.24044,11.49411 l 18.89619,11.49411 10.41336,1.06434 c 5.72735,0.58539 10.71931,1.37554 11.09325,1.75589 0.37394,0.38035 1.92748,5.41655 3.45231,11.19155 2.40764,9.11845 2.7618,12.27628 2.69171,24 -0.0444,7.425 -0.7101,16.86543 -1.47934,20.97873 l -1.39863,7.47873 -4.47297,1.65996 c -7.71788,2.86419 -24.53407,5.88332 -32.66527,5.86464 -4.29423,-0.01 -12.0827,-0.67679 -17.3077,-1.48206 -12.18924,-1.87859 -16.73679,-1.86146 -27.61901,0.10406 -15.61401,2.82015 -19.74017,3.2631 -26.38099,2.83206 -3.575,-0.23205 -7.87649,-0.4251 -9.55887,-0.42901 z m -48.44113,-16.33103 c 0,-0.17816 1.61795,-4.05747 3.59544,-8.6207 3.04975,-7.03752 3.49414,-8.97237 2.92792,-12.74815 -0.64101,-4.27461 -2.24136,-6.6609 -5.90648,-8.80723 -1.55414,-0.91011 -1.21974,-2.36296 3.72025,-16.16321 2.98534,-8.33977 6.04325,-16.00733 6.79538,-17.03904 1.84265,-2.52762 25.554049,-24.43181 34.76858,-32.11862 7.30563,-6.0944 17.84085,-12.17913 21.08719,-12.17913 1.91023,0 9.81534,5.02054 12.39721,7.87347 1.67398,1.84973 0.85188,2.90673 -23.93296,30.77103 -14.11658,15.87052 -25.909111,29.5305 -26.205631,30.3555 -0.29652,0.825 -3.122509,6.9 -6.279979,13.5 -6.53006,13.64968 -16.08258,25.5 -20.55551,25.5 -1.32628,0 -2.41141,-0.14577 -2.41141,-0.32392 z m -12.73011,-0.92608 c 3.67426,-9.49197 10.12351,-25.36498 10.4623,-25.75 0.24198,-0.275 1.35301,0.625 2.46895,2 3.92987,4.84216 0.82992,21.22605 -4.50369,23.80296 -3.19274,1.54255 -9.03097,1.50586 -8.42756,-0.053 z m 67.23769,-23.73773 c -0.65425,-1.0586 22.06073,-28.01227 23.6071,-28.01227 0.94062,0 0.53361,2.73161 -1.34101,9 -1.83977,6.15185 -5.94415,13.40258 -9.48159,16.75 -2.79711,2.64686 -4.24543,3.25 -7.80427,3.25 -2.40337,0 -4.64448,-0.44448 -4.98023,-0.98773 z"
         style="fill:#000000" />
    </g>
    <text
       xml:space="preserve"
       style="font-style:normal;font-weight:normal;line-height:0%;font-family:sans-serif;letter-spacing:0px;word-spacing:0px;fill:#000000;fill-opacity:1;stroke:none;stroke-width:1px;stroke-linecap:butt;stroke-linejoin:miter;stroke-opacity:1"
       x="202.85715"
       y="652.36218"
       id="text12554"><tspan
         sodipodi:role="line"
         id="tspan12556"
         x="202.85715"
         y="652.36218"
         style="font-size:40px;line-height:1.25;font-family:sans-serif"> </tspan></text>
    <flowRoot
       xml:space="preserve"
       id="flowRoot12558"
       style="font-style:normal;font-weight:normal;line-height:0.01%;font-family:sans-serif;letter-spacing:0px;word-spacing:0px;fill:#000000;fill-opacity:1;stroke:none;stroke-width:1px;stroke-linecap:butt;stroke-linejoin:miter;stroke-opacity:1"><flowRegion
         id="flowRegion12560"
         style="font-family:sans-serif"><rect
           id="rect12562"
           width="42.857143"
           height="222.85715"
           x="291.42856"
           y="307.85715"
           style="font-family:sans-serif" /></flowRegion><flowPara
         id="flowPara12564"
         style="font-size:40px;line-height:1.25;font-family:sans-serif"> </flowPara></flowRoot>    <g
       id="g4901"
       transform="matrix(0.24095131,0,0,0.24095131,-27.637175,1187.95)">
      <path
         inkscape:connector-curvature="0"
         id="path4899"
         d="m 302.5,-594.42352 -0.35714,-5.71429 -3.92857,-3.21428 5,-7.5 -5.71429,-5.35715 5,-7.85714 -4.28571,-4.64286 2.5,-8.57142 -4.28572,-6.07143 5.35715,-7.5 -4.28572,-8.21429 23.57143,-15 16.78571,-10 16.78572,-6.07143 16.07143,1.07143 19.28571,6.42857 8.21429,9.28572 v 7.85714 l -0.71429,61.07143 -12.85714,10.35714 -23.57143,2.5 -17.5,-1.78571 -18.21429,-12.85715 -6.07142,7.14286 -6.07143,4.28572 z"
         style="fill:#fff5ee;fill-rule:evenodd;stroke:none;stroke-width:1px;stroke-linecap:butt;stroke-linejoin:miter;stroke-opacity:1" />
      <path
         inkscape:connector-curvature="0"
         id="path4887"
         d="m 345.68263,-591.14246 c -8.50289,-2.38435 -13.47128,-4.92309 -17.25093,-8.81487 l -3.50226,-3.60617 -3.89752,4.11306 c -5.68657,6.00104 -11.54713,7.98135 -18.28248,6.17774 -1.91165,-0.5119 -2.21027,-1.07658 -1.68213,-3.18085 0.49185,-1.95968 0.10521,-2.96345 -1.65204,-4.28894 l -2.29416,-1.73049 2.36486,-4.20771 c 1.93989,-3.45156 2.11533,-4.35844 0.9763,-5.04651 -4.52453,-2.73319 -4.46714,-2.52521 -2.06233,-7.47504 l 2.27546,-4.68359 -2.09724,-2.23241 c -2.0221,-2.15242 -2.03846,-2.37929 -0.45683,-6.33218 1.576,-3.93881 1.55819,-4.21522 -0.45362,-7.04054 -2.60138,-3.65331 -2.60987,-3.47898 0.38397,-7.88481 l 2.47797,-3.64667 -2.47797,-4.22834 c -2.96804,-5.06458 -3.00394,-5.37221 -0.62692,-5.37221 3.25987,0 11.2024,-4.89413 22.64187,-13.95174 6.12671,-4.85104 12.92322,-9.73008 15.10336,-10.8423 16.98201,-8.66358 44.15572,-7.57983 58.45765,2.33142 6.87966,4.76761 6.94606,5.18075 6.94606,43.21587 0,33.65777 -0.0196,33.98012 -2.2738,37.32507 -2.80894,4.16818 -7.20098,7.18963 -14.56898,10.02254 -7.51716,2.89026 -29.78218,3.69761 -38.04829,1.37967 z m 29.34342,-2.94006 c 8.31641,-1.59119 16.63658,-5.56678 19.63934,-9.38416 1.77577,-2.25753 1.90831,-4.39401 1.90831,-30.76103 v -28.33501 l -3.64745,2.47523 c -8.86627,6.01681 -28.44416,8.97913 -43.05524,6.51465 -6.96425,-1.17468 -18.39373,-5.77911 -19.73585,-7.95071 -2.26561,-3.66583 -2.63171,0.61108 -2.35537,27.51623 l 0.29391,28.61566 4.09839,3.63434 c 8.82196,7.82307 25.99994,10.8995 42.85396,7.6748 z m -58.87556,-4.03124 c 1.92605,-1.46908 4.61538,-4.35359 5.97627,-6.41004 l 2.47435,-3.739 -0.26371,-33.23758 -0.2637,-33.23758 -7,5.59432 c -3.85,3.07688 -9.3625,6.75555 -12.25,8.17484 -2.8875,1.41928 -5.25,2.73744 -5.25,2.92923 0,0.1918 0.74848,1.91831 1.6633,3.8367 1.62027,3.39774 1.59796,3.5867 -0.86233,7.30445 l -2.52563,3.81648 2.35228,3.05026 c 2.31411,3.00076 2.32483,3.12015 0.66059,7.3569 -1.66241,4.23207 -1.65319,4.33783 0.532,6.10729 l 2.22369,1.80064 -2.23997,4.61052 -2.23996,4.61053 2.8131,2.24309 2.8131,2.24309 -2.26376,3.83678 -2.26376,3.83679 2.3125,1.74431 c 1.35314,1.02068 2.00864,2.23597 1.58006,2.92942 -0.40284,0.65181 -0.45937,1.89671 -0.12562,2.76644 0.90232,2.3514 7.84708,1.11198 12.1472,-2.16788 z m 60.92321,-59.68191 c 10.98438,-2.42276 19.5,-8.46122 19.5,-13.82752 0,-8.79016 -15.14431,-15.9518 -33.8026,-15.98502 -15.27336,-0.0272 -30.23773,5.29495 -33.69702,11.98448 -6.64858,12.85694 22.10986,23.53843 47.99962,17.82806 z m -20.09082,-8.90771 c -8.33404,-1.98499 -10.83884,-8.04389 -5.09167,-12.31636 4.39997,-3.27097 16.68211,-3.49512 22.68249,-0.41397 6.68247,3.4314 6.64686,7.87349 -0.091,11.3578 -3.65184,1.88844 -12.43985,2.57769 -17.49978,1.37253 z m 16.59082,-3.67116 c 4.22671,-2.11148 4.41439,-3.84992 0.71387,-6.61275 -5.50057,-4.10678 -23.71387,-1.87585 -23.71387,2.90468 0,0.81896 1.4625,2.38072 3.25,3.47058 4.27221,2.60482 14.75871,2.73091 19.75,0.23749 z"
         style="fill:#000000" />
      <path
         inkscape:connector-curvature="0"
         id="path4889"
         d="m 347.5,-656.20924 v 65"
         style="fill:none;fill-rule:evenodd;stroke:#000000;stroke-width:1;stroke-linecap:butt;stroke-linejoin:miter;stroke-miterlimit:4;stroke-dasharray:4, 2;stroke-dashoffset:0;stroke-opacity:1" />
      <path
         inkscape:connector-curvature="0"
         id="path4891"
         d="m 391.07143,-661.56638 v 63.92857"
         style="fill:none;fill-rule:evenodd;stroke:#000000;stroke-width:1;stroke-linecap:butt;stroke-linejoin:miter;stroke-miterlimit:4;stroke-dasharray:4, 2;stroke-dashoffset:0;stroke-opacity:1" />
    </g>
    <g
       id="g5016"
       transform="matrix(0.31578957,0,0,0.31578957,103.83016,1267.6258)">
      <path
         inkscape:connector-curvature="0"
         id="path5014"
         d="m 526.28948,-730.052 2.0203,-33.8401 13.63706,1.0102 1.01015,-12.6269 h 36.87057 l 1.01016,12.1218 15.15228,1.5152 -0.50507,31.3148 -14.14214,1.0101 v 21.71828 l -38.3858,0.50508 -1.51522,-23.23346 z"
         style="fill:#ffffff;fill-rule:evenodd;stroke:none;stroke-width:1px;stroke-linecap:butt;stroke-linejoin:miter;stroke-opacity:1" />
      <path
         style="fill:#000000"
         d="m 540.95045,-704.27195 c -1.0387,-0.63336 -1.38139,-1.6074 -1.29873,-3.6915 0.0279,-0.70356 0.0382,-5.43045 0.0229,-10.5042 l -0.0278,-9.225 h -6.73327 c -6.55027,0 -6.75459,-0.0183 -7.51755,-0.675 l -0.78428,-0.675 0.0253,-17.4 0.0253,-17.4 0.74887,-0.75 0.74889,-0.75 h 6.74326 6.74326 l 1.6e-4,-5.30547 c 8e-5,-2.91801 0.12935,-5.64529 0.28726,-6.06063 0.65044,-1.7108 0.30035,-1.6839 21.91288,-1.6839 20.98179,0 21.1956,0.0134 21.71364,1.36344 0.10251,0.2671 0.18636,2.96504 0.18636,5.99542 v 5.50978 l 6.92649,0.0907 6.92649,0.0907 0.72351,0.84173 0.72351,0.84173 v 17.24759 17.2476 l -0.78783,0.73014 c -0.78036,0.72321 -0.85224,0.73089 -7.575,0.81066 l -6.78717,0.0806 -0.15906,11.4 c -0.0875,6.27 -0.18873,11.44065 -0.225,11.4903 -0.0363,0.0497 -0.53409,0.28593 -1.10631,0.525 -0.74841,0.31272 -2.27817,0.4347 -5.45136,0.4347 -3.76539,0 -4.50156,-0.0769 -5.02947,-0.525 -0.58902,-0.50001 -0.5991,-0.50001 -0.21189,0 0.38598,0.49845 -0.35808,0.52494 -14.70519,0.52389 -14.38237,0 -15.15739,-0.0291 -16.05809,-0.57819 z m 37.69637,-18.933 v -14.0877 h -5.2677 c -4.13433,0 -5.21925,-0.0807 -5.04243,-0.375 0.17949,-0.29876 0.132,-0.29951 -0.23361,-0.004 -0.34269,0.27728 -3.33993,0.39127 -11.8326,0.45 l -11.37366,0.0787 -0.06,3 c -0.16875,8.44332 -0.0807,24.57936 0.13533,24.79536 0.26244,0.26244 17.83544,0.46341 27.74963,0.31734 l 5.925,-0.0873 v -14.08773 z m -26.83299,6.84555 c -0.61809,-0.88242 -0.58941,-1.52949 0.0952,-2.14905 0.50421,-0.4563 1.53039,-0.50718 9.94833,-0.49314 6.42108,0.0108 9.513,0.12099 9.7878,0.34905 0.47868,0.39726 0.52365,1.57143 0.0911,2.3796 -0.29706,0.55509 -0.72603,0.58029 -9.88299,0.58029 -9.55179,0 -9.57342,0 -10.03944,-0.66675 z m 0.68763,-5.84229 c -0.27243,-0.0679 -0.65973,-0.52041 -0.86064,-1.00548 -0.30477,-0.73575 -0.285,-1.00455 0.11937,-1.62168 l 0.48471,-0.73974 9.58863,-0.0153 c 9.20016,-0.0147 9.60126,0.008 9.90096,0.56823 0.51789,0.96768 0.36432,2.05257 -0.36267,2.56242 -0.58191,0.40809 -1.89549,0.46662 -9.525,0.42426 -4.8675,-0.027 -9.0729,-0.10473 -9.34536,-0.17265 z m 1.26807,-0.9138 c 0.52974,-0.59937 0.5577,-0.68067 0.10293,-0.29937 -0.34338,0.28794 -0.69213,0.45573 -0.77499,0.37287 -0.0829,-0.0829 -0.15066,0.0518 -0.15066,0.29934 0,0.57744 -0.0288,0.59043 0.82272,-0.37284 z m -1.24392,-5.54339 c -0.32103,-0.11893 -0.73671,-0.55215 -0.92379,-0.96272 -0.27396,-0.60131 -0.24297,-0.89471 0.15936,-1.50876 l 0.49947,-0.76229 h 4.9608 c 3.88155,0 4.91472,0.0816 4.74906,0.375 -0.16938,0.3 -0.13092,0.3 0.1923,0 0.55578,-0.51588 9.00981,-0.52919 9.52401,-0.015 0.49359,0.49357 0.45387,2.18862 -0.0613,2.61615 -0.47643,0.3954 -18.08694,0.63291 -19.09995,0.25762 z m 7.85949,-1.05877 c 0.37314,-0.47582 0.36255,-0.48643 -0.11328,-0.11327 -0.49971,0.39191 -0.65865,0.63827 -0.41172,0.63827 0.0623,0 0.29853,-0.23625 0.525,-0.525 z m -16.68828,16.725 c 0.29865,-0.33 0.47549,-0.6 0.39299,-0.6 -0.0825,0 -0.39434,0.27 -0.69299,0.6 -0.29865,0.33 -0.47549,0.6 -0.39299,0.6 0.0825,0 0.39434,-0.27 0.69299,-0.6 z m -2.25,-23.38299 c 0,-3.36247 0.041,-3.61173 0.66675,-4.05 0.58649,-0.41079 2.96302,-0.46701 19.74267,-0.46701 15.98817,0 19.17015,0.0688 19.65825,0.42521 0.50994,0.37236 0.59478,0.87573 0.68244,4.05 l 0.10014,3.62479 h 5.67486 5.67489 v -13.17546 c 0,-7.24651 0.0819,-13.38901 0.1821,-13.65 0.16536,-0.4309 -2.77299,-0.47454 -31.95,-0.47454 h -32.1321 v 13.65 13.65 h 5.85 5.85 z m 33.39072,-12.02055 c -0.74256,-0.29903 -1.59072,-1.74113 -1.59072,-2.70464 0,-0.98473 1.58283,-2.39182 2.69055,-2.39182 1.31919,0 2.40945,1.15663 2.40945,2.55609 0,1.45857 -0.40287,2.1165 -1.53843,2.51236 -1.09368,0.38125 -1.09371,0.38125 -1.97085,0.028 z m 10.16571,0.0894 c -0.79803,-0.15239 -1.85367,-1.70792 -1.85532,-2.73392 -0.003,-0.99132 1.55262,-2.45192 2.60907,-2.45192 2.70663,0 3.60624,3.9388 1.13538,4.97119 -0.56445,0.23584 -1.06437,0.41043 -1.11093,0.38796 -0.0465,-0.0225 -0.39675,-0.10046 -0.7782,-0.17331 z m -14.75643,8.76416 c 0.38751,-0.4125 0.63708,-0.75 0.55458,-0.75 -0.0825,0 -0.46707,0.3375 -0.85458,0.75 -0.38751,0.4125 -0.63708,0.75 -0.55458,0.75 0.0825,0 0.46707,-0.3375 0.85458,-0.75 z m 8.4,-28.8025 v -4.6525 l -16.875,0.0775 -16.875,0.0775 -0.0839,4.18555 c -0.0461,2.30206 -0.0166,4.36081 0.0656,4.575 0.12005,0.31285 3.45553,0.38945 16.95886,0.38945 h 16.80942 v -4.6525 z"
         id="path4974"
         inkscape:connector-curvature="0"
         sodipodi:nodetypes="csscsccccccccssscscccccccsscsccscccccccsccscccsccccscscscccscsccsccccsscccscsccscccccscsssssscssccccscscccccscssssccccssccsssssccccccsccc" />
    </g>
    <g
       id="g5004"
       transform="matrix(0.31578957,0,0,0.31578957,63.84044,1295.1172)">
      <path
         inkscape:connector-curvature="0"
         id="path5002"
         d="m 306.5813,-793.6916 -1.01015,-70.2056 38.38579,1.0102 14.64721,15.6573 -2.0203,54.0432 z"
         style="fill:#ffffff;fill-rule:evenodd;stroke:none;stroke-width:1px;stroke-linecap:butt;stroke-linejoin:miter;stroke-opacity:1" />
      <path
         sodipodi:nodetypes="sccsscccccccccscscccssccccssccccccsccccssccccccssccscscssccsccsscsscssscccss"
         inkscape:connector-curvature="0"
         id="path4980"
         d="m 304.84826,-791.48701 c -0.34398,-0.24093 -0.78126,-0.81468 -0.97173,-1.275 -0.25661,-0.62015 -0.3256,-9.94232 -0.26634,-35.98785 l 0.08,-35.15089 0.72729,-0.7741 0.7273,-0.77411 h 19.64697 19.64697 l 8.19644,8.21661 8.19644,8.21661 0.005,28.05583 c 0.003,15.43071 -0.0789,28.27572 -0.18206,28.54449 -0.52344,1.36406 -0.56561,1.36646 -23.96762,1.36646 -3.21505,-0.76289 -28.35692,1.34562 -31.83909,-0.4381 z m 50.8919,-4.66195 v -24.9 -24.9 h -6.46364 c -8.63419,0 -7.93636,0.69783 -7.93636,-7.93636 v -6.46364 h -16.2 -16.2 v 32.1 32.1 c 20.38143,1.11791 30.37284,0 46.8,0 z m -37.43325,-9.16701 c -0.82321,-0.5766 -0.88443,-1.94299 -0.11813,-2.63649 0.47447,-0.42939 1.41507,-0.4965 6.95885,-0.4965 6.00501,0.0898 9.99309,0.001 12.68437,0 4.16227,0 4.70816,0.2087 4.70816,1.8 0,1.3819 -0.67889,1.8 -2.92281,1.8 -3.90412,-0.1806 -3.20995,-0.002 -6.82719,0 -4.73098,-0.0731 -5.19369,-0.004 -9.33187,0 -3.5734,0 -4.6201,-0.0949 -5.15138,-0.46701 z m 0,-10.8 c -0.82321,-0.5766 -0.88443,-1.943 -0.11813,-2.63649 0,0 8.79082,-0.49542 14.60138,-0.4965 7.39136,0.39429 8.06756,0.0192 11.63161,0 1.40049,0 1.76307,0.11237 2.15138,0.66675 0.62855,0.89738 0.58779,1.61246 -0.13299,2.33325 -0.52828,0.52828 -1,0.6 -3.9465,0.6 -4.09955,-0.23776 -2.59204,-0.002 -9.73784,0 -5.15215,-0.51912 -10.91051,0.15076 -14.44891,-0.467 z m 0.23325,-10.71451 c -0.93777,-0.47812 -1.15671,-1.83757 -0.42599,-2.64501 0.49655,-0.54869 1.11135,-0.57347 14.22599,-0.57347 12.89813,0 13.73631,0.0324 14.2035,0.54862 0.60897,0.6729 0.63565,1.54632 0.0709,2.31904 -0.40891,0.55945 -0.95424,0.5853 -13.875,0.65777 -10.42771,0.0585 -13.61786,-0.0105 -14.19936,-0.30695 z m -0.23325,-10.88549 c -0.82321,-0.5766 -0.88443,-1.943 -0.11813,-2.63649 0.49359,-0.44669 1.91849,-0.4965 14.2035,-0.4965 12.84764,0 13.68424,0.0324 14.15138,0.54862 0.66706,0.7371 0.62558,1.5997 -0.11519,2.39481 -0.61164,0.65653 -0.61255,0.65657 -14.03325,0.65657 -11.66202,0 -13.50897,-0.0612 -14.08831,-0.46701 z m -0.30675,-10.99299 c -0.53797,-0.53797 -0.4344,-1.87967 0.18862,-2.4435 0.48252,-0.43668 1.54325,-0.4965 8.8035,-0.4965 7.6162,0 8.2933,0.0425 8.75138,0.54862 0.65136,0.71974 0.63015,1.63744 -0.0521,2.25488 -0.48298,0.43709 -1.55273,0.4965 -8.94,0.4965 -6.12663,0 -8.48854,-0.0972 -8.75138,-0.36 z m 34.74,-0.91936 c 0,-0.0436 -1.755,-1.83043 -3.9,-3.97067 l -3.9,-3.89134 v 3.97067 3.97067 h 3.9 c 2.145,0 3.9,-0.0357 3.9,-0.0793 z"
         style="fill:#000000" />
    </g>
    <g
       id="g5020"
       transform="matrix(0.14860686,0,0,0.14860686,56.167924,1164.7783)">
      <g
         transform="matrix(0.95638652,0,0,0.95638652,-121.5382,-38.809718)"
         id="g4988">
        <path
           style="fill:#ffffff;fill-rule:evenodd;stroke:none;stroke-width:1px;stroke-linecap:butt;stroke-linejoin:miter;stroke-opacity:1"
           d="m 329.30973,-908.849 3.53553,-12.1218 1.51523,-7.0711 -13.13198,4.5457 -13.13198,-3.0304 -0.50508,-5.5559 5.05076,-9.5964 11.11168,-2.0203 8.5863,5.0507 4.54569,-0.5051 15.65736,-25.7588 7.57614,-2.5254 v 3.5355 l -10.10152,19.698 23.23351,-9.0914 1.51523,3.0305 -14.64722,15.1523 -16.66751,4.0406 2.0203,5.5558 5.05076,6.0609 -1.51522,12.6269 -9.09138,4.5457 h -7.07107 z"
           id="path4984"
           inkscape:connector-curvature="0" />
        <path
           style="fill:#000000"
           d="m 335.47108,-898.2215 c -3.02901,-0.59528 -6.44316,-3.22228 -7.76759,-5.97672 -2.55241,-5.30832 -1.79802,-12.60311 1.77343,-17.14854 0.47473,-0.6042 1.07066,-1.5952 1.32429,-2.20222 l 0.46115,-1.10368 -0.9904,0.21491 c -0.54472,0.1182 -1.0579,0.30615 -1.1404,0.41767 -0.53536,0.72364 -3.22882,2.26156 -5.10131,2.91275 -5.87814,2.04421 -12.08145,1.06995 -15.77325,-2.47728 -4.88979,-4.6983 -4.49778,-12.52431 0.89096,-17.78713 1.2187,-1.19023 1.4095,-1.28087 1.89439,-0.9 0.48886,0.38397 0.50176,0.3757 0.13819,-0.0886 -0.35694,-0.4558 -0.20857,-0.63563 1.35,-1.63622 6.62411,-4.25262 15.0679,-3.9093 19.91266,0.80964 0.84059,0.81877 1.69519,1.48867 1.89909,1.48867 0.20391,0 0.61681,-0.70875 0.91756,-1.575 1.06581,-3.06981 4.57341,-9.13469 7.50405,-12.975 4.39132,-5.75438 10.95597,-12.57315 13.08738,-13.59398 3.66233,-1.75406 7.60792,0.30229 8.239,4.29398 0.26486,1.67531 -0.29642,3.12973 -3.5923,9.30841 -2.95459,5.5389 -3.24784,6.14159 -2.98825,6.14159 0.0876,0 2.95215,-1.36757 6.36558,-3.03905 6.56341,-3.21394 8.03011,-3.64614 10.0789,-2.96998 2.22726,0.73507 4.05522,3.10629 4.07076,5.28059 0.0159,2.22463 -0.81895,3.60311 -3.84498,6.34866 -1.59414,1.44638 -2.96593,2.70368 -3.04843,2.794 -0.4599,0.50351 -6.46247,5.20652 -8.25,6.46387 -4.43807,3.12176 -9.62684,5.93826 -12.71264,6.90054 -2.12317,0.6621 -2.28399,1.09061 -0.89703,2.39024 1.5186,1.423 2.71223,3.45632 2.31203,3.93853 -0.26423,0.31837 -0.23408,0.36675 0.13927,0.22348 0.74541,-0.28603 1.53606,2.75893 1.52398,5.86912 -0.0251,6.45487 -4.14772,13.50586 -9.48854,16.2283 -3.09357,1.57692 -5.49663,1.99691 -8.28755,1.44842 z m 5.50054,-5.84211 c 1.75916,-0.83478 4.22083,-3.28415 5.20914,-5.18312 2.39672,-4.60517 2.43947,-9.1654 0.11538,-12.30915 -0.77757,-1.0518 -2.73103,-2.12444 -3.88958,-2.13575 -0.37125,-0.004 -0.675,-0.0578 -0.675,-0.12034 0,-0.0626 0.34801,-0.8739 0.77336,-1.80299 0.50454,-1.10206 0.83104,-2.45187 0.93929,-3.88324 l 0.16594,-2.19401 2.8857,-0.86274 c 6.71986,-2.00904 14.31307,-6.90345 23.23683,-14.9779 2.85623,-2.58438 3.19771,-2.99511 2.81137,-3.38145 -0.38634,-0.38634 -2.07062,0.36648 -13.86636,6.19792 -7.38463,3.65073 -13.48155,6.58274 -13.5487,6.51559 -0.13244,-0.13244 0.63819,-1.62455 5.21504,-10.09743 2.64147,-4.89001 4.6052,-8.60015 7.62175,-14.4 0.94096,-1.80917 1.08995,-2.7 0.45156,-2.7 -0.5819,0 -6.5311,6.16795 -9.54888,9.9 -4.86237,6.01323 -8.60242,12.43193 -9.57982,16.44096 -0.49339,2.02374 -0.75398,2.42983 -1.44353,2.24951 -0.84437,-0.22081 -4.25625,0.42056 -5.83326,1.09654 l -1.33447,0.57203 -0.2058,-1.21812 c -0.56926,-3.36942 -3.4564,-5.34554 -7.79002,-5.33191 -4.85897,0.0153 -9.32823,2.49791 -11.57328,6.42885 -2.59645,4.5462 -0.4754,8.80259 4.87807,9.78901 2.46943,0.45501 5.66023,-0.0512 7.96512,-1.26365 1.38028,-0.72607 1.73931,-0.80857 2.144,-0.49266 0.42572,0.33232 0.43798,0.31788 0.0987,-0.11628 -0.33178,-0.42451 -0.26714,-0.57949 0.45,-1.0789 1.4523,-1.01136 8.47648,-3.05307 10.55517,-3.06805 l 1.01773,-0.007 -0.18703,1.78948 c -0.21424,2.04966 -2.42901,8.89481 -3.13722,9.69611 -0.26035,0.29456 -0.65764,0.46486 -0.88287,0.37843 -0.23738,-0.0911 -0.32707,-0.0238 -0.21338,0.16021 0.10788,0.17454 -0.31961,1.33345 -0.94997,2.57536 -1.05368,2.07591 -1.15574,2.49789 -1.26558,5.23252 -0.13189,3.28365 0.10412,4.22833 1.51033,6.04541 0.4799,0.62013 0.77693,1.28224 0.66005,1.47135 -0.12268,0.1985 -0.0807,0.26241 0.0992,0.1512 0.17143,-0.10596 0.83354,0.007 1.47135,0.25076 1.44809,0.5537 4.13321,0.40341 5.64971,-0.31622 z m -4.78711,-4.68581 c -1.27872,-1.51967 -1.25708,-4.42077 0.0519,-6.95412 l 0.44194,-0.85533 0.80161,0.70533 0.80162,0.70532 -0.75,-0.85474 -0.75,-0.85474 1.17447,-1.01982 c 1.5415,-1.33851 2.93937,-1.72742 4.24625,-1.18137 1.9846,0.82921 2.58314,3.75239 1.10428,5.39317 l -0.825,0.91532 0.86226,-0.74891 0.86227,-0.74891 -0.2232,0.75 c -0.12276,0.4125 -0.40955,1.20527 -0.6373,1.76171 -0.37045,0.90508 -0.46942,0.96831 -0.93906,0.6 -0.47811,-0.37496 -0.48742,-0.36388 -0.10424,0.12414 0.37314,0.47523 0.32224,0.63946 -0.45,1.45178 -1.89686,1.99533 -4.37316,2.34973 -5.66778,0.81117 z m 3.59705,-1.1488 c 0.29865,-0.33 0.47549,-0.6 0.39299,-0.6 -0.0825,0 -0.39434,0.27 -0.69299,0.6 -0.29865,0.33 -0.47549,0.6 -0.39299,0.6 0.0825,0 0.39434,-0.27 0.69299,-0.6 z m 1.78719,-1.77927 c 0.0949,-0.1536 0.0579,-0.35016 -0.0823,-0.4368 -0.14019,-0.0866 -0.25489,0.039 -0.25489,0.27927 0,0.50585 0.0946,0.55004 0.33719,0.15753 z m -1.63719,-1.92423 c 0,-0.0569 -0.30375,-0.36068 -0.675,-0.675 l -0.675,-0.5715 0.5715,0.675 c 0.53706,0.63433 0.7785,0.81157 0.7785,0.5715 z m -23.62243,-15.92267 c -0.57669,-0.26254 -1.17721,-0.87213 -1.47561,-1.49786 -0.43453,-0.91123 -0.45113,-1.22885 -0.1217,-2.32837 0.76601,-2.55672 3.68688,-4.43083 6.91974,-4.43989 4.31804,-0.0121 5.79777,2.81766 3.11333,5.95382 -0.59279,0.69254 -1.61528,1.53337 -2.27221,1.86851 -1.58101,0.80657 -4.84972,1.04193 -6.16355,0.44379 z m 4.42243,-3.27733 c 0,-0.0569 -0.30375,-0.36068 -0.675,-0.675 l -0.675,-0.5715 0.5715,0.675 c 0.53706,0.63433 0.7785,0.81157 0.7785,0.5715 z m 26.7,26.70579 c 0,-0.0537 -0.37125,-0.42498 -0.825,-0.825 l -0.825,-0.72729 0.72729,0.825 c 0.67977,0.77109 0.92271,0.96258 0.92271,0.72729 z m -14.7,-14.70579 c 0,-0.0569 -0.30375,-0.36068 -0.675,-0.675 l -0.675,-0.5715 0.5715,0.675 c 0.53706,0.63433 0.7785,0.81157 0.7785,0.5715 z m -4.8,-4.8 c 0,-0.0569 -0.30375,-0.36068 -0.675,-0.675 l -0.675,-0.5715 0.5715,0.675 c 0.53706,0.63433 0.7785,0.81157 0.7785,0.5715 z m -14.1,-14.09421 c 0,-0.0537 -0.37125,-0.42498 -0.825,-0.825 l -0.825,-0.72729 0.72729,0.825 c 0.67977,0.77109 0.92271,0.96258 0.92271,0.72729 z"
           id="path4972"
           inkscape:connector-curvature="0"
           sodipodi:nodetypes="ccssscscsssccssssssssssssscsssscsscccsscssscsssssssssssscsssssscsccscccsssccccccscccccssscccssssscssssssccsssscssscssssssscsssscsssscsssscsssscs" />
      </g>
      <g
         transform="matrix(0.93666723,0,0,0.93666723,-117.31334,-46.229927)"
         id="g4992">
        <path
           style="fill:#ffffff;fill-rule:evenodd;stroke:none;stroke-width:1px;stroke-linecap:butt;stroke-linejoin:miter;stroke-opacity:1"
           d="m 425.7793,-964.9124 -1.51523,-12.1219 48.48732,1.0102 -1.51523,11.1117 -4.54568,1.0101 -1.51523,52.0229 -34.34519,1.0101 1.01015,-52.0228 z"
           id="path4986"
           inkscape:connector-curvature="0" />
        <path
           style="fill:#000000"
           d="m 430.05533,-909.4707 c -0.44242,-0.24023 -0.90256,-0.74107 -1.02254,-1.11299 -0.32357,-1.00303 -0.3404,-2.69861 -0.0331,-3.33741 0.18181,-0.37798 0.16648,-0.49726 -0.047,-0.36535 -0.20656,0.12766 -0.27251,-0.14699 -0.1894,-0.7888 0.0701,-0.54156 0.13043,-5.77715 0.13402,-11.63465 0.004,-5.8575 0.0117,-15.5775 0.018,-21.6 0.006,-6.0225 -0.0768,-11.38875 -0.18455,-11.925 l -0.196,-0.975 h -2.37614 c -2.13502,0 -2.45229,-0.0762 -3.1267,-0.75057 l -0.75056,-0.75056 0.0892,-7.78691 c 0.0845,-7.38022 0.12054,-7.81057 0.6892,-8.2399 0.49868,-0.37649 1.92331,-0.45459 8.43683,-0.46252 l 7.83682,-0.01 0.14967,-1.55753 c 0.1209,-1.25835 0.31554,-1.69027 1.01316,-2.24851 0.84738,-0.67807 0.99819,-0.69101 8.07177,-0.69247 6.28026,-10e-4 7.30374,0.0639 7.95,0.50612 1.04964,0.71831 1.18197,0.98422 1.18716,2.38529 0.003,0.85355 0.15324,1.29995 0.47913,1.425 0.261,0.10016 3.82353,0.1821 7.91676,0.1821 6.88059,0 7.49568,0.0433 8.15046,0.5735 l 0.70824,0.57349 v 7.81579 c 0,9.3675 0.22608,8.81296 -3.68439,9.03722 l -2.61561,0.15 -0.085,3.58132 c -0.0533,2.24456 -0.22122,3.74976 -0.45,4.03259 -0.28863,0.35687 -0.28653,0.40414 0.01,0.22597 0.29859,-0.17939 0.375,4.13763 0.375,21.19012 v 21.41541 l -0.77331,0.7273 c -0.74391,0.69964 -0.96132,0.73092 -5.71962,0.82274 -3.76239,0.0726 -5.06313,9e-4 -5.43429,-0.30001 -0.35634,-0.28878 -0.4272,-0.2943 -0.26265,-0.0205 0.35994,0.59913 -25.15664,0.51577 -26.26453,-0.0858 z m 25.5544,-0.8427 c 0,-0.0569 -0.30375,-0.36068 -0.675,-0.675 l -0.675,-0.5715 0.5715,0.675 c 0.53706,0.63433 0.7785,0.81157 0.7785,0.5715 z m -3.6,-3.6465 c -0.32982,-0.3974 0.31464,-0.45 5.51328,-0.45 h 5.88672 v -17.01072 -17.01072 l 0.975,-1.06365 0.975,-1.06365 -0.96936,0.87508 -0.96933,0.87508 -0.0807,-7.02571 -0.0806,-7.02571 h -14.55 -14.55 l -0.0778,15.41901 -0.0778,15.41901 -0.67225,-0.56687 -0.67225,-0.56686 0.675,0.76719 c 0.65307,0.74226 0.675,0.96689 0.675,6.91286 0,4.50105 -0.10035,6.25377 -0.375,6.54967 -0.3,0.32321 -0.3,0.36167 0,0.1923 0.2856,-0.16125 0.375,0.32891 0.375,2.05598 v 2.26771 h 8.66328 c 7.33467,0 8.72052,0.069 9.03672,0.45 0.20541,0.2475 0.44097,0.45 0.52347,0.45 0.0825,0 -0.018,-0.2025 -0.22347,-0.45 z m -13.33299,-5.31675 c -0.56856,-0.81176 -0.63156,-3.83596 -0.092,-4.41726 0.3,-0.32321 0.3,-0.36167 0,-0.1923 -0.28221,0.15933 -0.375,-0.24245 -0.375,-1.62369 0,-1.38124 0.0928,-1.78302 0.375,-1.62369 0.3,0.16937 0.3,0.13091 0,-0.1923 -0.57081,-0.61496 -0.54189,-30.24111 0.0303,-31.0236 0.52344,-0.71587 2.27907,-0.69792 2.81043,0.0287 0.30051,0.41098 0.38427,3.86954 0.38427,15.8659 v 15.34037 l -0.7278,0.68372 c -0.44139,0.41467 -0.8841,0.59502 -1.125,0.45829 -0.31764,-0.18029 -0.32289,-0.14533 -0.0261,0.17459 0.30624,0.33022 0.50262,0.27641 1.125,-0.30828 l 0.75396,-0.70832 v 1.29879 1.29879 l -0.675,-0.56935 -0.675,-0.56935 0.675,0.76719 c 0.93789,1.06598 0.98532,4.4682 0.075,5.37852 -0.79611,0.7961 -1.94991,0.7657 -2.53299,-0.0667 z m 8.83299,0.0668 c -0.58731,-0.58732 -0.6,-1 -0.6,-19.51972 0,-12.46814 0.1059,-19.1176 0.31056,-19.5 0.43653,-0.81569 2.54151,-0.81724 2.97771,-0.002 0.20319,0.37967 0.30858,7.0734 0.30708,19.50346 -0.003,18.48715 -0.0162,18.9392 -0.59883,19.52192 -0.76059,0.76061 -1.63371,0.75935 -2.39652,-0.003 z m 8.5965,0.0514 c -0.45102,-0.49837 -0.4965,-2.29298 -0.4965,-19.59266 0,-20.59292 -0.0364,-20.13372 1.59747,-20.13372 1.78023,0 1.69416,-1.0157 1.698,20.03747 0.003,17.13581 -0.0492,19.3484 -0.4674,19.76661 -0.63174,0.63174 -1.72242,0.5954 -2.33157,-0.0777 z m 0.8535,-22.85138 c 0.29865,-0.33 0.4755,-0.6 0.393,-0.6 -0.0825,0 -0.39435,0.27 -0.693,0.6 -0.29865,0.33 -0.4755,0.6 -0.393,0.6 0.0825,0 0.39435,-0.27 0.693,-0.6 z m -26.4,26.4 c 0.29865,-0.33 0.47549,-0.6 0.39299,-0.6 -0.0825,0 -0.39434,0.27 -0.69299,0.6 -0.29865,0.33 -0.47549,0.6 -0.39299,0.6 0.0825,0 0.39434,-0.27 0.69299,-0.6 z m 1.05,-18.7035 c 0,-0.0569 -0.30375,-0.36068 -0.675,-0.675 l -0.675,-0.5715 0.5715,0.675 c 0.53706,0.63433 0.7785,0.81157 0.7785,0.5715 z m 34.95,-17.2965 c 0.29865,-0.33 0.4755,-0.6 0.393,-0.6 -0.0825,0 -0.39435,0.27 -0.693,0.6 -0.29865,0.33 -0.4755,0.6 -0.393,0.6 0.0825,0 0.39435,-0.27 0.693,-0.6 z m 3.38397,-18.675 0.084,-3.825 h -21.30897 -21.30897 v 3.7 c 0,2.035 0.0909,3.7909 0.20201,3.90201 0.11111,0.11111 9.66235,0.16736 21.22501,0.125 l 21.02298,-0.077 0.084,-3.825 z"
           id="path4976"
           inkscape:connector-curvature="0"
           sodipodi:nodetypes="ccscccccccsccsscccsccccsscssccccscsscccssscsccscccccccccccccccssscscssscccssscsccsccscscccccsscccscccccssssssssssssssssssscsssssscccccssscc" />
      </g>
      <g
         transform="matrix(0.94056229,0,0,0.94056229,1.2907295,-48.857252)"
         id="g4998">
        <path
           style="fill:#ffffff;fill-rule:evenodd;stroke:none;stroke-width:1px;stroke-linecap:butt;stroke-linejoin:miter;stroke-opacity:1"
           d="m 180.31223,-799.2474 3.03046,-48.9924 25.75889,0.5051 3.03046,-21.7183 26.26396,2.0203 12.62691,11.1117 -0.50508,38.3858 h -27.77919 l -1.51523,18.6878 z"
           id="path4996"
           inkscape:connector-curvature="0" />
        <path
           style="fill:#000000"
           d="m 180.10731,-796.83578 -0.73666,-0.73667 v -26.06134 -26.06134 l 0.7741,-0.7273 0.7741,-0.72729 h 13.17586 13.17586 l 4e-5,-8.45547 c 2e-5,-4.65051 0.12373,-8.78081 0.27491,-9.17845 0.68551,-1.80301 -0.15508,-1.71608 16.59367,-1.71608 h 15.32569 l 7.15288,7.18533 7.15289,7.18534 v 8.20466 c 0,6.14826 -0.094,8.30593 -0.375,8.60868 -0.3,0.32321 -0.3,0.36167 0,0.1923 0.53773,-0.30359 0.52836,21.64909 -0.01,22.34969 -0.85886,1.11863 -1.45062,1.174 -12.54803,1.174 H 229.9656 l 0.7262,-0.825 0.72621,-0.825 -0.91533,0.825 c -0.80627,0.72671 -1.15462,0.825 -2.92391,0.825 h -2.00858 v 1.38673 c 0,1.27558 -0.0421,1.35415 -0.525,0.98017 -0.5,-0.3872 -0.5,-0.37711 0,0.21189 0.46835,0.55173 0.525,1.39819 0.525,7.84529 0,3.97477 -0.0839,7.44538 -0.18635,7.71248 -0.51708,1.34749 -0.63389,1.35433 -23.20354,1.35932 l -21.33678,0.005 -0.73667,-0.73666 z m 37.82755,-4.42523 2.38579,-0.0887 0.0776,-16.275 0.0776,-16.275 h -5.86622 c -7.82649,0 -7.33895,0.44751 -7.33895,-6.73636 v -5.26364 h -7.44 c -5.53653,0 -7.54337,-0.0959 -7.84401,-0.375 -0.32321,-0.3 -0.36167,-0.3 -0.1923,0 0.16448,0.29133 -0.62891,0.375 -3.55598,0.375 h -3.76771 v 22.35 22.35 h 15.31771 c 12.17431,0 15.27147,0.077 15.09241,0.375 -0.17737,0.29523 -0.13026,0.29815 0.22151,0.0137 0.24574,-0.19871 1.5204,-0.40121 2.83258,-0.45 z m -26.54244,-7.32917 c -0.79029,-1.00469 -0.78071,-1.17787 0.11459,-2.07318 l 0.73637,-0.73636 9.98863,0.004 c 7.42175,0.003 10.18137,0.10144 10.73864,0.38195 0.93803,0.47218 1.15743,1.83193 0.42599,2.64016 -0.49203,0.54369 -1.06085,0.57348 -10.95071,0.57348 H 192.0142 l -0.62178,-0.79046 z m 0.0517,-8.28454 c -0.64949,-0.81182 -0.68711,-1.64166 -0.1069,-2.35819 l 0.58044,-0.71681 h 10.55069 c 10.09778,0 10.56896,0.025 10.9765,0.58234 0.56055,0.76659 0.54069,1.80993 -0.0456,2.39623 -0.41077,0.41077 -1.83432,0.47143 -11.06326,0.47143 -8.11347,0 -10.66204,-0.0877 -10.89187,-0.375 z m -0.27369,-9.10957 c -0.4612,-0.70388 -0.46844,-0.86586 -0.0704,-1.575 l 0.44369,-0.79043 10.78846,-0.0703 c 9.79318,-0.0638 10.82306,-0.0239 11.16346,0.43234 0.53775,0.72081 0.46235,1.71593 -0.17362,2.29148 -0.4886,0.44218 -1.70235,0.4965 -11.09309,0.4965 h -10.54446 l -0.51407,-0.78457 z m 20.30024,-0.8287 c 0,-0.0623 -0.23625,-0.29854 -0.525,-0.525 -0.47582,-0.37316 -0.48643,-0.36255 -0.11327,0.11327 0.39191,0.49972 0.63827,0.65864 0.63827,0.41173 z m -20.25106,-7.79624 c -0.5383,-0.82156 -0.22142,-2.08336 0.60261,-2.39958 0.27364,-0.105 2.3996,-0.19091 4.72436,-0.19091 3.58997,0 4.32003,0.0791 4.8453,0.525 0.589,0.5 0.59909,0.5 0.21189,0 -0.34554,-0.44619 -0.34048,-0.525 0.0337,-0.525 0.24213,0 0.66366,0.24688 0.93673,0.54862 0.58529,0.64674 0.67051,1.39134 0.1215,1.0615 -0.28643,-0.17208 -0.28398,-0.11292 0.0103,0.25051 0.31801,0.39265 0.30116,0.56 -0.0964,0.95759 -0.40546,0.40547 -1.30886,0.48178 -5.70343,0.48178 -5.15925,0 -5.22721,-0.008 -5.68656,-0.70951 z m 30.30106,27.40951 c 0.29865,-0.33 0.47549,-0.6 0.39299,-0.6 -0.0825,0 -0.39434,0.27 -0.69299,0.6 -0.29865,0.33 -0.47549,0.6 -0.39299,0.6 0.0825,0 0.39434,-0.27 0.69299,-0.6 z m 26.91937,-20.325 c 0.0443,-3.75375 0.0432,-11.11125 -0.002,-16.35 l -0.0833,-9.525 h -5.44324 c -4.64399,0 -5.52379,-0.0729 -5.99186,-0.4965 -0.49351,-0.44662 -0.54862,-1.04929 -0.54862,-6 v -5.5035 h -11.85 -11.85 v 8.91859 8.91858 l 4.08165,3.98142 4.08165,3.98141 h 9.73807 c 10.94405,0 11.48061,0.0935 11.49404,2.00357 0.0109,1.55221 -0.2558,1.59643 -9.62852,1.59643 h -8.69025 l 0.0867,2.625 0.0867,2.625 8.6749,0.0797 c 5.78857,0.0532 8.80803,0.19017 9.075,0.41174 0.55289,0.45885 0.50127,1.74955 -0.0964,2.40996 -0.45914,0.50734 -1.14762,0.54862 -9.15,0.54862 h -8.6535 v 3.3 3.3 h 12.29437 12.29436 l 0.0806,-6.825 z m -29.00236,-17.84175 c -0.59864,-0.85469 -0.58802,-1.22089 0.058,-1.9997 0.51562,-0.62163 0.7151,-0.63319 11.1687,-0.64737 9.77302,-0.0133 10.67488,0.0282 11.025,0.50704 0.51997,0.7111 0.47926,1.76597 -0.0901,2.33535 -0.4108,0.4108 -1.83611,0.47143 -11.08299,0.47143 h -10.61156 l -0.46701,-0.66675 z m -0.0181,-8.74276 c -0.53831,-0.82156 -0.22142,-2.08336 0.60261,-2.39958 0.27363,-0.105 2.69305,-0.19091 5.37648,-0.19091 4.34567,0 4.93324,0.06 5.37546,0.54862 0.65136,0.71974 0.63015,1.63744 -0.0521,2.25488 -0.46561,0.42137 -1.32711,0.4965 -5.69309,0.4965 -5.07808,0 -5.15046,-0.009 -5.60936,-0.70951 z m -1.64895,16.52962 c 0,-0.0439 -1.5525,-1.62799 -3.45,-3.52011 l -3.45,-3.44021 v 3.5201 3.52011 h 3.45 c 1.8975,0 3.45,-0.0359 3.45,-0.0799 z m 27.58861,-19.34511 c -0.006,-0.12375 -1.22115,-1.44 -2.69974,-2.925 l -2.68836,-2.7 -2.6e-4,2.925 -2.5e-4,2.925 h 2.7 c 1.485,0 2.69488,-0.10125 2.68861,-0.225 z"
           id="path4978"
           inkscape:connector-curvature="0"
           sodipodi:nodetypes="cccccccccssscccscscscccsscscsscccccccccsscsccscccscscccscssssccscscssssccccscssccsscssccsscsssccssssssccccssscccccccssscccscsscccccccccsccsccsccscssccssccccscsccc" />
      </g>
      <g
         transform="matrix(0.93720709,0,0,0.93720709,-82.419632,-180.72527)"
         id="g5010">
        <path
           style="fill:#ffffff;fill-rule:evenodd;stroke:none;stroke-width:1px;stroke-linecap:butt;stroke-linejoin:miter;stroke-opacity:1"
           d="m 377.79705,-667.42251 1.01016,-58.58889 h 15.15228 v -6.0609 l 21.21321,2.0203 0.50507,4.0406 15.15229,1.5153 -1.01015,14.1421 15.15229,13.63706 -1.51523,36.36549 h -40.91118 l -1.01015,-7.57614 z"
           id="path5008"
           inkscape:connector-curvature="0" />
        <path
           style="fill:#000000"
           d="m 401.14327,-658.71461 c -1.05143,-0.57009 -1.41118,-1.49964 -1.41118,-3.64635 0,-1.31349 0.14773,-1.85619 0.66843,-2.45547 0.36763,-0.42315 0.44013,-0.56685 0.16111,-0.31935 -0.43854,0.38898 -2.05667,0.42966 -11.93588,0.3 l -11.42856,-0.15 -0.57588,-0.75 c -0.55896,-0.72795 -0.57607,-1.63767 -0.58255,-30.95827 l -0.007,-30.20827 0.72351,-0.84173 0.72352,-0.84173 6.92648,-0.0907 6.92649,-0.0907 v -1.48873 c 0,-1.35765 0.0859,-1.54107 0.975,-2.0832 0.92711,-0.56527 1.53976,-0.59452 12.47308,-0.59559 l 11.49807,-10e-4 0.87693,0.87693 c 0.68244,0.68243 0.87692,1.14817 0.87692,2.1 v 1.22307 h 6.28047 c 3.45426,0 6.60581,0.12369 7.00345,0.27488 1.72177,0.65469 1.71608,0.62544 1.71608,8.82632 v 7.55826 l 3.59099,3.58164 c 3.4993,3.49018 3.57782,3.59731 3.075,4.19531 -0.50541,0.60108 -0.50339,0.60307 0.0985,0.0969 0.59809,-0.50294 0.68327,-0.4469 3.19189,2.1 1.41757,1.4392 2.7273,2.91161 2.91052,3.27201 0.23377,0.45986 0.33311,6.33705 0.33311,19.70827 v 19.053 l -0.72354,0.84171 -0.72353,0.84174 -7.26085,0.0904 c -6.63665,0.0826 -7.31547,0.0439 -7.89629,-0.45 -0.57474,-0.48876 -0.59661,-0.49023 -0.22889,-0.0153 0.38592,0.49833 -0.30001,0.5244 -13.50517,0.513 -11.84658,-0.0102 -14.03625,-0.0795 -14.75055,-0.46683 z m 39.68882,-21.13059 v -16.19058 h -4.51771 c -3.52708,0 -4.47128,-0.0822 -4.30598,-0.375 0.16937,-0.3 0.13091,-0.3 -0.1923,0 -0.58942,0.5471 -1.91562,0.45831 -2.48068,-0.16607 -0.40949,-0.45248 -0.50306,-1.46376 -0.57149,-6.17689 l -0.0818,-5.63582 -11.7,0.0279 -11.7,0.0279 -0.0772,19.2599 -0.0772,19.25988 -0.82278,0.91302 -0.82277,0.91299 0.825,-0.72618 0.825,-0.72621 v 2.89818 2.89821 l 9.675,0.0791 c 5.32125,0.0435 13.35375,0.0411 17.85,-0.005 l 8.175,-0.0844 v -16.19058 z m -28.60954,9.28764 c -0.94346,-0.74211 -1.00894,-1.55973 -0.19046,-2.37822 0.68022,-0.68022 2.35733,-0.80667 2.98401,-0.225 0.32321,0.3 0.36167,0.3 0.1923,0 -0.16735,-0.2964 1.69555,-0.375 8.88923,-0.375 7.75154,0 9.19982,0.0692 9.76771,0.46701 0.76141,0.53331 0.86352,1.54896 0.24134,2.40066 -0.39844,0.54543 -0.90491,0.58803 -7.98979,0.67224 -7.52657,0.0895 -7.56831,0.0865 -8.34745,-0.6 -0.78036,-0.68754 -0.7811,-0.68757 -0.21371,-0.015 l 0.56935,0.675 h -2.55604 c -2.13161,0 -2.68729,-0.10323 -3.34649,-0.62178 z m -0.19046,-8.67822 c -0.33,-0.33 -0.6,-0.87 -0.6,-1.2 0,-0.33 0.27,-0.87 0.6,-1.2 0.5019,-0.5019 1,-0.6 3.0465,-0.6 h 2.44649 l -0.56935,0.675 -0.56935,0.675 0.76719,-0.675 c 0.75306,-0.66258 0.90911,-0.675 8.47285,-0.675 7.30567,0 7.73682,0.0311 8.30567,0.6 0.33,0.33 0.6,0.87 0.6,1.2 0,0.33 -0.27,0.87 -0.6,1.2 -0.5747,0.57471 -1,0.6 -10.08673,0.6 -8.98987,0 -9.46544,-0.0276 -9.08017,-0.525 0.3872,-0.50001 0.37711,-0.50001 -0.21189,0 -0.81672,0.6933 -1.78161,0.66459 -2.52121,-0.075 z m 0,-8.7 c -0.70622,-0.70622 -0.7643,-1.4604 -0.17464,-2.26766 0.39646,-0.54277 0.90008,-0.58853 7.41108,-0.67345 l 6.98572,-0.0911 -0.58394,0.69112 -0.58393,0.69111 0.79539,-0.70149 c 0.75348,-0.66454 0.9799,-0.69614 4.29762,-0.6 3.05168,0.0884 3.55693,0.17641 3.92746,0.68383 0.58953,0.80733 0.53141,1.56149 -0.17476,2.26766 -0.55345,0.55345 -1,0.6 -5.75613,0.6 h -5.15612 l 0.88049,-0.975 0.8805,-0.975 -1.06365,0.975 -1.06365,0.975 h -5.01072 c -4.61072,0 -5.05862,-0.0479 -5.61072,-0.6 z m 0,-8.7 c -0.81848,-0.81848 -0.753,-1.6361 0.19046,-2.37823 0.7211,-0.56721 1.19138,-0.62177 5.35954,-0.62177 4.16816,0 4.63844,0.0546 5.35954,0.62177 0.94346,0.74213 1.00894,1.55975 0.19046,2.37823 -0.55151,0.55151 -1,0.6 -5.55,0.6 -4.55,0 -4.99849,-0.0485 -5.55,-0.6 z m -9.73113,29.925 0.88113,-0.975 -0.975,0.88113 c -0.53625,0.48462 -0.975,0.92337 -0.975,0.975 0,0.23178 0.24754,0.0276 1.06887,-0.88113 z m -0.76887,-11.53113 v -8.30612 l 0.975,0.88049 0.975,0.8805 -0.975,-1.06365 -0.975,-1.06365 v -11.84397 c 0,-10.23417 0.0635,-11.93459 0.46701,-12.51072 l 0.46701,-0.66675 h 12.73299 12.73299 v -5.7 -5.7 h -5.85 -5.85 v 1.77857 c 0,1.76105 -0.44903,2.70716 -1.29643,2.73164 -0.19446,0.006 -5.01002,0.0137 -10.70123,0.018 -10.26161,0.008 -10.35205,0.002 -10.875,-0.64344 -0.35791,-0.442 -0.52734,-1.17279 -0.52734,-2.27448 v -1.62325 l -5.775,0.0815 -5.775,0.0815 -0.0774,26.25 c -0.0426,14.4375 -0.0131,26.41875 0.0656,26.625 0.11049,0.28971 2.43118,0.375 10.20244,0.375 h 10.05941 v -8.30613 z m 31.96887,-19.66887 0.88113,-0.975 -0.975,0.88113 c -0.90884,0.82133 -1.11289,1.06887 -0.88113,1.06887 0.0516,0 0.49038,-0.43875 0.975,-0.975 z m 3.09342,-1.725 h 1.3423 l -0.6502,-0.6921 c -0.45143,-0.48053 -0.55912,-0.80151 -0.35229,-1.05 0.2171,-0.26082 0.19924,-0.27552 -0.0658,-0.0542 -0.26368,0.22018 -0.92379,-0.25205 -2.4,-1.71695 l -2.03628,-2.02068 v 2.76696 2.76695 h 1.21771 c 0.88707,0 1.16022,0.10182 1.00598,0.375 -0.16937,0.3 -0.13091,0.3 0.1923,0 0.2222,-0.20625 1.00804,-0.375 1.7463,-0.375 z m 1.83771,-3.15 c 0.38752,-0.4125 0.63709,-0.75 0.55459,-0.75 -0.0825,0 -0.46707,0.3375 -0.85459,0.75 -0.38753,0.4125 -0.63709,0.75 -0.55459,0.75 0.0825,0 0.46706,-0.3375 0.85459,-0.75 z m -25.5,-22.05 v -2.7 h -8.25 -8.25 v 2.7 2.7 h 8.25 8.25 z"
           id="path4982"
           inkscape:connector-curvature="0"
           sodipodi:nodetypes="csccscsccccccscccsscscscsscscscccsccsccccscssscccccccccccscccccsscscsscccsccsssscccsscsssccscsscccscssscccccsccssscsssccsscccccccsccccccccscccscccscscccscsssccscsscccsccccsssssccccccccc" />
      </g>
    </g>
    <g
       id="g5585"
       transform="matrix(0.31578957,0,0,0.31578957,-37.474966,1226.6927)">
      <text
         id="text5527"
         y="-602.51898"
         x="495.92642"
         style="font-style:normal;font-weight:normal;line-height:0%;font-family:sans-serif;letter-spacing:0px;word-spacing:0px;fill:#000000;fill-opacity:1;stroke:none;stroke-width:1px;stroke-linecap:butt;stroke-linejoin:miter;stroke-opacity:1"
         xml:space="preserve"><tspan
           style="font-style:normal;font-variant:normal;font-weight:bold;font-stretch:normal;font-size:40px;line-height:1.25;font-family:Verdana;-inkscape-font-specification:'Verdana Bold';letter-spacing:-2.5px"
           y="-602.51898"
           x="495.92642"
           id="tspan5529"
           sodipodi:role="line">Abc</tspan></text>
      <g
         transform="matrix(0.31045355,0,0,0.31045355,371.30745,-374.54253)"
         id="g5568">
        <path
           inkscape:connector-curvature="0"
           id="rect5531"
           d="m 425,-727.18945 -26.56836,26.56836 -2.27539,2.27539 4.55078,4.55273 2.27539,-2.27539 22.01758,-22.01758 22.01758,22.01758 2.27539,2.27539 4.55078,-4.55273 -2.27539,-2.27539 z"
           style="color:#000000;font-style:normal;font-variant:normal;font-weight:normal;font-stretch:normal;font-size:medium;line-height:normal;font-family:sans-serif;text-indent:0;text-align:start;text-decoration:none;text-decoration-line:none;text-decoration-style:solid;text-decoration-color:#000000;letter-spacing:normal;word-spacing:normal;text-transform:none;writing-mode:lr-tb;direction:ltr;baseline-shift:baseline;text-anchor:start;white-space:normal;clip-rule:nonzero;display:inline;overflow:visible;visibility:visible;opacity:1;isolation:auto;mix-blend-mode:normal;color-interpolation:sRGB;color-interpolation-filters:linearRGB;solid-color:#000000;solid-opacity:1;fill:#000000;fill-opacity:1;fill-rule:nonzero;stroke:none;stroke-width:6.43686152;stroke-linecap:square;stroke-linejoin:miter;stroke-miterlimit:4;stroke-dasharray:none;stroke-dashoffset:0;stroke-opacity:1;color-rendering:auto;image-rendering:auto;shape-rendering:auto;text-rendering:auto;enable-background:accumulate" />
        <path
           inkscape:connector-curvature="0"
           id="path5534"
           d="m 475,-727.18945 -26.56836,26.56836 -2.27539,2.27539 4.55078,4.55273 2.27539,-2.27539 22.01758,-22.01758 22.01758,22.01758 2.27539,2.27539 4.55078,-4.55273 -2.27539,-2.27539 z"
           style="color:#000000;font-style:normal;font-variant:normal;font-weight:normal;font-stretch:normal;font-size:medium;line-height:normal;font-family:sans-serif;text-indent:0;text-align:start;text-decoration:none;text-decoration-line:none;text-decoration-style:solid;text-decoration-color:#000000;letter-spacing:normal;word-spacing:normal;text-transform:none;writing-mode:lr-tb;direction:ltr;baseline-shift:baseline;text-anchor:start;white-space:normal;clip-rule:nonzero;display:inline;overflow:visible;visibility:visible;opacity:1;isolation:auto;mix-blend-mode:normal;color-interpolation:sRGB;color-interpolation-filters:linearRGB;solid-color:#000000;solid-opacity:1;fill:#000000;fill-opacity:1;fill-rule:nonzero;stroke:none;stroke-width:6.43686152;stroke-linecap:square;stroke-linejoin:miter;stroke-miterlimit:4;stroke-dasharray:none;stroke-dashoffset:0;stroke-opacity:1;color-rendering:auto;image-rendering:auto;shape-rendering:auto;text-rendering:auto;enable-background:accumulate" />
        <path
           inkscape:connector-curvature="0"
           id="path5536"
           d="m 525,-727.18945 -26.56836,26.56836 -2.27539,2.27539 4.55078,4.55273 2.27539,-2.27539 22.01758,-22.01758 22.01758,22.01758 2.27539,2.27539 4.55078,-4.55273 -2.27539,-2.27539 z"
           style="color:#000000;font-style:normal;font-variant:normal;font-weight:normal;font-stretch:normal;font-size:medium;line-height:normal;font-family:sans-serif;text-indent:0;text-align:start;text-decoration:none;text-decoration-line:none;text-decoration-style:solid;text-decoration-color:#000000;letter-spacing:normal;word-spacing:normal;text-transform:none;writing-mode:lr-tb;direction:ltr;baseline-shift:baseline;text-anchor:start;white-space:normal;clip-rule:nonzero;display:inline;overflow:visible;visibility:visible;opacity:1;isolation:auto;mix-blend-mode:normal;color-interpolation:sRGB;color-interpolation-filters:linearRGB;solid-color:#000000;solid-opacity:1;fill:#000000;fill-opacity:1;fill-rule:nonzero;stroke:none;stroke-width:6.43686152;stroke-linecap:square;stroke-linejoin:miter;stroke-miterlimit:4;stroke-dasharray:none;stroke-dashoffset:0;stroke-opacity:1;color-rendering:auto;image-rendering:auto;shape-rendering:auto;text-rendering:auto;enable-background:accumulate" />
        <path
           inkscape:connector-curvature="0"
           id="path5538"
           d="m 575,-727.18945 -26.56836,26.56836 -2.27539,2.27539 4.55078,4.55273 2.27539,-2.27539 22.01758,-22.01758 22.01758,22.01758 2.27539,2.27539 4.55078,-4.55273 -2.27539,-2.27539 z"
           style="color:#000000;font-style:normal;font-variant:normal;font-weight:normal;font-stretch:normal;font-size:medium;line-height:normal;font-family:sans-serif;text-indent:0;text-align:start;text-decoration:none;text-decoration-line:none;text-decoration-style:solid;text-decoration-color:#000000;letter-spacing:normal;word-spacing:normal;text-transform:none;writing-mode:lr-tb;direction:ltr;baseline-shift:baseline;text-anchor:start;white-space:normal;clip-rule:nonzero;display:inline;overflow:visible;visibility:visible;opacity:1;isolation:auto;mix-blend-mode:normal;color-interpolation:sRGB;color-interpolation-filters:linearRGB;solid-color:#000000;solid-opacity:1;fill:#000000;fill-opacity:1;fill-rule:nonzero;stroke:none;stroke-width:6.43686152;stroke-linecap:square;stroke-linejoin:miter;stroke-miterlimit:4;stroke-dasharray:none;stroke-dashoffset:0;stroke-opacity:1;color-rendering:auto;image-rendering:auto;shape-rendering:auto;text-rendering:auto;enable-background:accumulate" />
        <path
           inkscape:connector-curvature="0"
           id="path5540"
           d="m 625,-727.18945 -26.56836,26.56836 -2.27539,2.27539 4.55078,4.55273 2.27539,-2.27539 22.01758,-22.01758 22.01758,22.01758 2.27539,2.27539 4.55078,-4.55273 -2.27539,-2.27539 z"
           style="color:#000000;font-style:normal;font-variant:normal;font-weight:normal;font-stretch:normal;font-size:medium;line-height:normal;font-family:sans-serif;text-indent:0;text-align:start;text-decoration:none;text-decoration-line:none;text-decoration-style:solid;text-decoration-color:#000000;letter-spacing:normal;word-spacing:normal;text-transform:none;writing-mode:lr-tb;direction:ltr;baseline-shift:baseline;text-anchor:start;white-space:normal;clip-rule:nonzero;display:inline;overflow:visible;visibility:visible;opacity:1;isolation:auto;mix-blend-mode:normal;color-interpolation:sRGB;color-interpolation-filters:linearRGB;solid-color:#000000;solid-opacity:1;fill:#000000;fill-opacity:1;fill-rule:nonzero;stroke:none;stroke-width:6.43686152;stroke-linecap:square;stroke-linejoin:miter;stroke-miterlimit:4;stroke-dasharray:none;stroke-dashoffset:0;stroke-opacity:1;color-rendering:auto;image-rendering:auto;shape-rendering:auto;text-rendering:auto;enable-background:accumulate" />
      </g>
    </g>
    <g
       id="g7215"
       transform="matrix(0.31578957,0,0,0.31578957,-180.59222,1167.0769)">
      <path
         inkscape:connector-curvature="0"
         id="rect5735"
         d="m 1185,-461.13781 h 80 v 10 h -80 z"
         style="opacity:1;fill:#000000;fill-opacity:1;stroke:none;stroke-width:2;stroke-linecap:square;stroke-miterlimit:4;stroke-dasharray:none;stroke-dashoffset:0;stroke-opacity:1" />
      <path
         style="opacity:1;fill:none;fill-opacity:1;stroke:#000000;stroke-width:2;stroke-linecap:square;stroke-miterlimit:4;stroke-dasharray:none;stroke-dashoffset:0;stroke-opacity:1"
         d="m 1185,-447.13781 h 38 v 40 h -38 z"
         id="path5738"
         inkscape:connector-curvature="0" />
      <path
         inkscape:connector-curvature="0"
         id="path5740"
         d="m 1227,-425.13781 h 38 v 18 h -38 z"
         style="opacity:1;fill:#000000;fill-opacity:1;stroke:none;stroke-width:2;stroke-linecap:square;stroke-miterlimit:4;stroke-dasharray:none;stroke-dashoffset:0;stroke-opacity:1" />
      <path
         style="opacity:1;fill:none;fill-opacity:1;stroke:#000000;stroke-width:2;stroke-linecap:square;stroke-miterlimit:4;stroke-dasharray:none;stroke-dashoffset:0;stroke-opacity:1"
         d="m 1227,-447.13781 h 38 v 18 h -38 z"
         id="path5742"
         inkscape:connector-curvature="0" />
      <path
         style="opacity:1;fill:#000000;fill-opacity:1;stroke:none;stroke-width:2;stroke-linecap:square;stroke-miterlimit:4;stroke-dasharray:none;stroke-dashoffset:0;stroke-opacity:1"
         d="m 1227,-403.13781 h 17 v 18 h -17 z"
         id="path5744"
         inkscape:connector-curvature="0" />
      <path
         inkscape:connector-curvature="0"
         id="path5746"
         d="m 1248,-403.13781 h 17 v 18 h -17 z"
         style="opacity:1;fill:none;fill-opacity:1;stroke:#000000;stroke-width:2;stroke-linecap:square;stroke-miterlimit:4;stroke-dasharray:none;stroke-dashoffset:0;stroke-opacity:1" />
      <path
         inkscape:connector-curvature="0"
         id="path5748"
         d="m 1185,-403.13781 h 17 v 18 h -17 z"
         style="opacity:1;fill:#000000;fill-opacity:1;stroke:none;stroke-width:2;stroke-linecap:square;stroke-miterlimit:4;stroke-dasharray:none;stroke-dashoffset:0;stroke-opacity:1" />
      <path
         style="opacity:1;fill:none;fill-opacity:1;stroke:#000000;stroke-width:2;stroke-linecap:square;stroke-miterlimit:4;stroke-dasharray:none;stroke-dashoffset:0;stroke-opacity:1"
         d="m 1206,-403.13781 h 17 v 18 h -17 z"
         id="path5750"
         inkscape:connector-curvature="0" />
    </g>
    <g
       id="g8441"
       transform="matrix(0.26912941,0,0,0.26912941,-266.89248,1197.1034)">
      <text
         xml:space="preserve"
         style="font-style:normal;font-weight:normal;line-height:0%;font-family:sans-serif;letter-spacing:0px;word-spacing:0px;fill:#000000;fill-opacity:1;stroke:none;stroke-width:1px;stroke-linecap:butt;stroke-linejoin:miter;stroke-opacity:1"
         x="1850.1194"
         y="-607.62878"
         id="text8409"><tspan
           sodipodi:role="line"
           id="tspan8411"
           x="1850.1194"
           y="-607.62878"
           style="font-style:normal;font-variant:normal;font-weight:bold;font-stretch:normal;font-size:40px;line-height:1.25;font-family:Verdana;-inkscape-font-specification:'Verdana Bold';letter-spacing:-2.5px">Abc</tspan></text>
      <path
         sodipodi:nodetypes="ccc"
         inkscape:connector-curvature="0"
         id="rect8438"
         d="m 1939.4825,-609.58503 -27.6657,27.66578 -16.7854,-16.78531"
         style="opacity:1;fill:none;fill-opacity:1;stroke:#000000;stroke-width:7.03655291;stroke-linecap:square;stroke-miterlimit:4;stroke-dasharray:none;stroke-dashoffset:0;stroke-opacity:1" />
    </g>
    <path
       style="fill:#000000"
       d="m 316.71234,1041.108 c -0.44228,-0.3044 -0.80868,-0.9204 -0.80868,-1.3594 0,-0.4781 2.6019,-12.2983 2.81374,-12.7825 0.26669,-0.6096 0.82661,-1.0073 1.51099,-1.073 1.0024,-0.096 1.71061,0.6061 1.71061,1.6967 0,0.8109 -2.59937,12.5128 -2.86776,12.9102 -0.36438,0.5394 -0.7656,0.7776 -1.39462,0.828 -0.4674,0.038 -0.65096,0 -0.96428,-0.22 z m -4.87684,-2.0294 c -0.55576,-0.1302 -0.70769,-0.2586 -3.18572,-2.6945 -3.37519,-3.3177 -3.37519,-3.1396 0,-6.4551 1.2647,-1.242 2.45318,-2.3564 2.64107,-2.4764 0.74583,-0.4763 2.03865,-0.1652 2.41652,0.5815 0.19942,0.3941 0.18003,1.1994 -0.0401,1.6631 -0.10217,0.2153 -0.90544,1.082 -1.78507,1.9262 l -1.59934,1.5348 1.71862,1.6781 c 1.55325,1.5166 1.72848,1.7274 1.82097,2.1905 0.18198,0.9111 -0.26466,1.8192 -0.97836,1.989 -0.16539,0.039 -0.37755,0.089 -0.4715,0.1102 -0.0939,0.021 -0.33606,-10e-5 -0.53803,-0.047 z m 12.95037,-0.026 c -0.86176,-0.2336 -1.30207,-1.0393 -1.10713,-2.026 0.0916,-0.4637 0.26451,-0.6718 1.81986,-2.1905 l 1.71862,-1.6781 -1.59934,-1.5348 c -0.87962,-0.8441 -1.68291,-1.7109 -1.78506,-1.9261 -0.22008,-0.4638 -0.23944,-1.269 -0.0401,-1.6631 0.37784,-0.7468 1.67065,-1.0579 2.41648,-0.5815 0.1879,0.12 1.37637,1.2343 2.64107,2.4763 3.38356,3.3228 3.38524,3.1296 -0.056,6.5091 -1.29655,1.2732 -2.48546,2.3804 -2.64203,2.4605 -0.42845,0.219 -0.9221,0.2747 -1.36648,0.1542 z"
       id="path8754"
       inkscape:connector-curvature="0" />
    <path
       style="fill:#000000"
       d="m 355.62349,1046.1142 c -0.19039,-0.089 -2.08504,-1.9435 -6.06338,-5.9344 -5.01538,-5.0314 -5.79715,-5.8428 -5.86671,-6.0898 -0.11103,-0.3938 -0.0978,-0.7078 0.0428,-1.0119 0.0765,-0.1655 2.16678,-2.3226 5.81432,-5.9997 6.05783,-6.1069 6.04936,-6.0992 6.69239,-6.0977 0.62859,0 0.75801,0.1128 4.46462,3.8367 l 3.49174,3.5081 -3.97585,3.9763 -3.97589,3.9764 -1.29844,-1.2971 c -0.71409,-0.7134 -1.29839,-1.3284 -1.29839,-1.3666 0,-0.038 1.17574,-1.2456 2.61272,-2.683 l 2.61271,-2.6133 -1.27943,-1.2809 c -0.7037,-0.7044 -1.31099,-1.2808 -1.3496,-1.2808 -0.0385,0 -1.83597,1.7678 -3.99423,3.9285 l -3.92408,3.9285 3.93564,3.9631 c 2.16456,2.1796 3.95742,3.963 3.98408,3.963 0.0263,0 2.41006,-2.3752 5.29651,-5.2783 l 5.24804,-5.2784 0.91242,0.9 c 0.93424,0.9215 1.17028,1.2611 1.17305,1.6879 0.005,0.6657 0.23985,0.4039 -5.94553,6.609 -3.97834,3.9909 -5.87301,5.8453 -6.06333,5.9344 -0.15482,0.072 -0.42952,0.1296 -0.62304,0.1296 -0.19353,0 -0.46822,-0.057 -0.623,-0.1296 z"
       id="path8821"
       inkscape:connector-curvature="0" />
    <g
       id="g9574"
       transform="matrix(0.97315021,0,0,0.97315021,-2359.413,797.03915)">
      <path
         inkscape:connector-curvature="0"
         id="path9572"
         d="m 2826.129,254.56897 -8.7504,-7.6014 0.4419,-2.38648 13.877,-4.50781 8.6621,4.94975 -0.5304,2.20971 -6.7175,4.15425 z"
         style="fill:#ffffff;fill-rule:evenodd;stroke:none;stroke-width:1px;stroke-linecap:butt;stroke-linejoin:miter;stroke-opacity:1" />
      <path
         inkscape:connector-curvature="0"
         id="path9570"
         d="m 2825.8415,255.04006 c -1.9102,-1.29629 -9.3453,-7.53212 -9.516,-7.98106 -0.3014,-0.79285 -0.2224,-1.74057 0.2035,-2.43904 0.3296,-0.54039 0.6641,-0.72601 2.0812,-1.15459 0.9287,-0.28087 3.8822,-1.16679 6.5633,-1.96872 2.6811,-0.80192 4.9023,-1.48287 4.9359,-1.51323 0.034,-0.0304 -1.4517,-1.73383 -3.3008,-3.78548 -1.849,-2.05165 -3.4184,-3.93961 -3.4874,-4.19547 -0.1288,-0.47749 0.3776,-1.26128 0.8149,-1.26128 0.3613,0 9.0031,3.26292 9.3231,3.52019 0.1625,0.13059 1.7949,2.24826 3.6277,4.70595 5.2638,7.05855 4.7997,6.30476 4.9582,8.05315 0.2083,2.29925 0.3003,2.23213 -7.5892,5.53579 -3.6084,1.51094 -6.8542,2.80224 -7.2131,2.86956 -0.4969,0.0932 -0.831,0.001 -1.4013,-0.38577 z m -0.5665,-2.97185 c 0,-0.6806 -0.5138,-1.19228 -0.8549,-0.85125 -0.3207,0.32076 -0.2848,1.46141 0.053,1.66995 0.403,0.2491 0.8023,-0.15835 0.8023,-0.8187 z m 4.7683,-2.36976 c 2.0241,-0.74863 2.5076,-0.99877 2.2996,-1.18961 -0.145,-0.13291 -1.9808,-1.35177 -4.0798,-2.70858 l -3.8163,-2.46693 -2.4295,0.75592 c -1.3362,0.41576 -2.4295,0.81862 -2.4295,0.89525 0,0.16728 7.5046,5.66191 7.733,5.66191 0.088,0 1.3128,-0.42659 2.7225,-0.94796 z m 6.7072,-2.53296 c 1.5415,-0.59744 2.0902,-0.89399 1.8758,-1.01396 -0.1667,-0.0933 -2.0173,-1.1766 -4.1126,-2.40742 -2.0952,-1.23082 -3.9114,-2.23605 -4.0359,-2.23384 -0.4983,0.009 -4.4893,1.35445 -4.4535,1.50158 0.021,0.0867 1.7577,1.28638 3.8591,2.66585 2.6691,1.75203 3.9516,2.48161 4.2546,2.42016 0.2385,-0.0484 1.4141,-0.46795 2.6125,-0.93237 z"
         style="fill:#000000" />
    </g>
    <path
       style="fill:#000000"
       d="m 429.36866,1040.4335 c -1.03775,-1.2451 -1.91211,-2.3298 -1.94306,-2.4104 -0.0472,-0.123 0.12834,-0.1467 1.0889,-0.1466 h 1.14523 l -0.0283,-3.126 -0.0283,-3.126 h 1.61621 1.61622 v 3.126 3.1259 h 1.15958 c 0.63782,0 1.1589,0.034 1.15802,0.076 0,0.042 -0.87842,1.1263 -1.94992,2.4104 l -1.94831,2.3348 -1.8868,-2.2638 z m -7.2213,-0.2775 c -1.64583,-0.4605 -2.9507,-1.7795 -3.3891,-3.4259 -0.49268,-1.8504 0.35295,-4.0521 1.96093,-5.1056 0.18671,-0.1223 0.24826,-0.2896 0.32158,-0.8743 0.2027,-1.616 0.85504,-2.9253 2.0557,-4.126 1.43642,-1.4363 2.9634,-2.0832 4.94986,-2.0966 1.29815,-0.01 2.28656,0.2281 3.40591,0.8163 0.74023,0.389 1.9732,1.469 2.43065,2.1291 0.26121,0.3769 0.29898,0.3965 0.5985,0.3106 0.50683,-0.1454 1.89659,-0.1069 2.49589,0.069 1.32608,0.3895 2.68386,1.5 3.20203,2.6188 0.20537,0.4434 0.29449,0.5272 0.7226,0.6792 1.12508,0.3997 2.21705,1.5457 2.73465,2.8701 0.32216,0.8243 0.32724,2.1476 0.0118,3.0488 -0.45929,1.3117 -1.52234,2.4215 -2.81334,2.9371 -0.54285,0.2168 -0.76074,0.2371 -2.88133,0.2689 -1.2617,0.019 -2.29399,0.01 -2.29399,-0.028 0,-0.034 0.28077,-0.3892 0.62397,-0.7883 l 0.62404,-0.7256 1.56917,-0.053 c 1.44583,-0.049 1.60929,-0.074 2.07978,-0.3199 1.0849,-0.5669 1.69559,-1.5733 1.70151,-2.8039 0.005,-0.9448 -0.33118,-1.7071 -1.01813,-2.3118 -0.48445,-0.4264 -1.36103,-0.8136 -1.84201,-0.8136 -0.25137,0 -0.29623,-0.046 -0.35708,-0.3709 -0.18379,-0.9799 -0.84456,-1.8514 -1.78288,-2.3515 -1.08689,-0.5794 -2.63373,-0.5264 -3.54328,0.1213 -0.15684,0.1116 -0.29605,0.1867 -0.30941,0.1668 -0.0132,-0.02 -0.19793,-0.3944 -0.41022,-0.8323 -0.93194,-1.9218 -3.2273,-3.2506 -5.25119,-3.04 -3.00837,0.3132 -5.12044,2.5783 -5.13206,5.504 l -0.005,0.8613 -0.5351,0.2361 c -0.73017,0.3223 -1.4491,1.1197 -1.68466,1.8688 -0.49759,1.5818 0.31546,3.319 1.81594,3.8805 0.46284,0.1731 0.78858,0.2078 1.95344,0.2078 h 1.39791 l 0.53391,0.6302 c 0.29365,0.3466 0.60014,0.7096 0.68108,0.8067 0.1394,0.1672 0.0334,0.1761 -2.0113,0.1697 -1.40711,-0.01 -2.31633,-0.051 -2.61214,-0.1338 z"
       id="path9873"
       inkscape:connector-curvature="0" />
    <g
       id="g9952"
       transform="matrix(0.07558788,0,0,0.07558788,324.15145,1005.4515)">
      <path
         inkscape:connector-curvature="0"
         id="path9950"
         d="m 1944.5436,507.88998 -82.0243,-12.72792 1.4142,-110.30866 96.1665,5.65685 z"
         style="fill:#ffffff;fill-rule:evenodd;stroke:none;stroke-width:1px;stroke-linecap:butt;stroke-linejoin:miter;stroke-opacity:1" />
      <path
         style="fill:#000000"
         d="m 1994.7346,357.58455 c 6.7467,0.81588 10.9508,3.33626 12.5568,7.52774 1.1888,3.10309 0.3822,83.97215 -0.9368,93.91307 -1.5301,11.53178 -6.3608,23.18075 -15.2234,36.71061 -10.1059,15.42817 -22.9474,27.19137 -37.8748,34.69451 -7.868,3.95475 -27.1666,8.67608 -37.4536,9.16287 -15.1491,0.71685 -34.6025,-3.77658 -47.6992,-11.0178 -23.4634,-12.97295 -41.4257,-36.88549 -47.8593,-63.71313 -2.3855,-9.94786 -2.4338,-11.39242 -1.7923,-53.5848 0.3626,-23.84873 0.922,-44.68498 1.243,-46.3028 1.1548,-5.81936 3.9917,-7.76992 13.3643,-9.18886 l 8.4266,-1.27572 0.4284,-48.53533 c 0.1385,-15.69554 0.7083,-31.3345 1.0504,-34.75583 1.8155,-18.15559 11.027,-35.86121 24.8243,-47.71559 11.9535,-10.27015 23.4174,-15.34156 39.3236,-17.396 17.3532,-2.24133 33.0985,1.2027 47.7764,10.4504 16.2824,10.25859 26.293,23.39558 31.3039,41.08069 2.8408,10.02608 3.308,16.82283 2.7916,46.92902 -1.7326,6.94897 -34.2742,4.89149 -33.7688,-0.66883 h -5e-4 c 0.4351,-30.46421 0.3337,-32.71287 -1.7273,-38.27828 -6.2616,-16.90843 -20.6488,-27.02827 -38.1128,-26.80815 -12.8353,0.16177 -24.7268,6.56924 -32.055,17.27216 -6.3686,9.30137 -7.1262,14.1069 -7.5954,48.17921 -0.2316,16.83052 -0.2058,50.74328 0.058,50.91713 0.5997,0.39594 74.2561,1.67014 76.9766,1.33164 14.7234,-0.27898 29.2676,-0.54448 41.9753,1.07207 z m -70.1524,133.78595 c -0.1766,-0.94616 -1.2443,-12.76394 -2.3725,-26.26175 -1.1283,-13.49781 -2.1507,-25.07373 -2.2719,-25.7243 -0.1214,-0.65054 1.5709,-2.41233 3.7604,-3.91506 4.5821,-3.14483 6.2999,-6.58877 6.7829,-13.59915 0.492,-7.14245 -1.6708,-11.56827 -7.3294,-14.99791 -5.3584,-3.24767 -10.6979,-4.03157 -18.0672,-2.65236 -10.3956,1.94561 -15.3605,9.62148 -13.3101,20.57739 1.0698,5.71565 2.4676,8.0158 6.8282,11.23614 l 2.8336,2.09256 -3.2193,26.81374 c -1.7706,14.74755 -2.9308,27.01122 -2.5783,27.25259 0.4925,0.33724 24.707,1.13339 28.509,0.93737 0.4157,-0.0214 0.6112,-0.81311 0.4346,-1.75926 z"
         id="path9942"
         inkscape:connector-curvature="0"
         sodipodi:nodetypes="ccssssssscscsssssscccssssccccscsssssccsssc" />
    </g>
    <g
       id="g10025"
       transform="matrix(0.11710474,0,0,0.11710474,225.82038,902.07964)">
      <path
         inkscape:connector-curvature="0"
         id="path10023"
         d="m 2358.5,1137.3622 -7,-23.5 19,-19.5 26.5,7 10.5,23.5 -13,19 -25,1 z"
         style="fill:#ffffff;fill-rule:evenodd;stroke:none;stroke-width:1px;stroke-linecap:butt;stroke-linejoin:miter;stroke-opacity:1" />
      <path
         inkscape:connector-curvature="0"
         id="path10021"
         d="m 2399.9052,1211.9141 c -7.8974,-3.9091 -12.4065,-13.2862 -10.7176,-22.2886 0.357,-1.9034 2.1952,-5.7581 4.0848,-8.566 l 3.4357,-5.1054 -4.9997,-12.8295 -4.9996,-12.8295 h -7.4854 c -13.2092,0 -23.0188,-6.8216 -27.5057,-19.1274 l -2.2223,-6.0948 -11.116,0.047 -11.116,0.047 -2.0667,4.2026 c -5.6206,11.4294 -22.0156,14.2778 -31.9542,5.5516 -7.2244,-6.3431 -8.5769,-18.9878 -2.8939,-27.0558 4.3538,-6.1811 10.4008,-9.0385 18.1442,-8.5736 7.9274,0.4759 13.562,4.1405 17.0134,11.065 l 2.3841,4.7832 10.6052,-0.2832 10.6052,-0.2832 1.8696,-5.6146 c 2.4268,-7.2881 7.488,-13.0998 14.3189,-16.4418 6.0281,-2.9493 6.0496,-3.0081 4.8244,-13.2092 -0.6128,-5.1019 -0.7754,-5.3289 -5.2289,-7.2989 -5.8751,-2.5988 -8.9203,-5.4282 -11.2313,-10.4355 -8.5,-18.417 12.7597,-36.8969 29.7634,-25.8715 6.0243,3.9063 8.6978,8.5229 9.1626,15.8225 0.5636,8.8515 -3.0245,15.2331 -11.2801,20.0622 -1.5318,0.896 -1.634,1.9294 -0.884,8.9391 l 0.8481,7.926 3.5,0.8356 c 1.925,0.4595 5.6541,1.8091 8.287,2.9991 l 4.7869,2.1635 7.5053,-7.4382 c 5.8265,-5.7745 7.3688,-7.8856 6.8951,-9.4383 -2.3527,-7.712 -2.5007,-9.8973 -1.0161,-15.0043 4.8063,-16.533 27.4937,-19.6763 36.9341,-5.1171 8.7755,13.534 -1.1348,31.5362 -17.3923,31.5933 -2.475,0.01 -5.8269,-0.6761 -7.4487,-1.5218 l -2.9486,-1.5376 -7.7926,7.7938 -7.7926,7.7937 2.3416,4.6241 c 1.288,2.5432 2.5919,5.5807 2.8977,6.75 0.5487,2.098 0.8917,2.1259 26.1362,2.1259 h 25.5802 l 1.5611,-3.7363 c 4.378,-10.478 16.549,-15.1338 27.0707,-10.3555 10.9983,4.9947 15.2495,16.9709 9.8619,27.7824 -4.8195,9.6715 -15.6644,13.7971 -25.9462,9.8705 -4.812,-1.8377 -10.1242,-7.133 -11.1147,-11.0794 l -0.6228,-2.4817 h -26.3121 -26.3122 l -0.7015,3.25 c -1.1713,5.4268 -4.1467,10.3063 -8.7673,14.3782 l -4.3935,3.8718 5.0886,13.1458 5.0885,13.1459 5.2982,0.4393 c 20.6637,1.7136 25.1732,31.2088 5.9966,39.2213 -5.2762,2.2045 -12.4402,1.9561 -17.6267,-0.6111 z m -10.1507,-74.2391 c 5.7116,-2.8127 10.108,-9.5776 10.7818,-16.5907 0.6481,-6.7449 -3.1219,-14.5952 -8.948,-18.6328 -3.6946,-2.5603 -5.0021,-2.8786 -11.8249,-2.8786 -6.8131,0 -8.133,0.3202 -11.8024,2.863 -5.0244,3.4819 -9.1976,11.2575 -9.1976,17.137 0,5.2843 4.2273,13.8136 8.2748,16.6957 3.8667,2.7532 11.2619,4.7468 15.2252,4.1043 1.65,-0.2674 5.021,-1.4815 7.4911,-2.6979 z"
         style="fill:#000000" />
    </g>
  </g>
</svg>
