<?xml version="1.0" encoding="UTF-8" standalone="no"?>
<!-- Created with Inkscape (http://www.inkscape.org/) -->

<svg
   xmlns:dc="http://purl.org/dc/elements/1.1/"
   xmlns:cc="http://creativecommons.org/ns#"
   xmlns:rdf="http://www.w3.org/1999/02/22-rdf-syntax-ns#"
   xmlns:svg="http://www.w3.org/2000/svg"
   xmlns="http://www.w3.org/2000/svg"
   xmlns:sodipodi="http://sodipodi.sourceforge.net/DTD/sodipodi-0.dtd"
   xmlns:inkscape="http://www.inkscape.org/namespaces/inkscape"
   width="977.396"
   height="1122.5197"
   viewBox="0 0 258.60268 297"
   version="1.1"
   id="svg8"
   inkscape:version="0.92.1 r"
   sodipodi:docname="portada.svg"
   inkscape:export-filename="/home/nika-zhenya/Descargas/portada.png"
   inkscape:export-xdpi="299.98199"
   inkscape:export-ydpi="299.98199">
  <defs
     id="defs2">
    <clipPath
       clipPathUnits="userSpaceOnUse"
       id="clipPath5047">
      <rect
         style="opacity:0.5;fill:#ffff00;fill-opacity:1;stroke:none;stroke-width:2.80269861;stroke-linecap:round;stroke-miterlimit:4;stroke-dasharray:none;stroke-opacity:1"
         id="rect5049"
         height="123.34365"
         x="69.890755"
         y="115.0776"
         width="131.21356" />
    </clipPath>
    <clipPath
       clipPathUnits="userSpaceOnUse"
       id="clipPath5124">
      <rect
         style="opacity:0.5;fill:#ffff00;fill-opacity:1;stroke:none;stroke-width:1.0029918;stroke-linecap:round;stroke-miterlimit:4;stroke-dasharray:none;stroke-opacity:1"
         id="rect5126"
         width="148.3233"
         height="175.42834"
         x="-190.42223"
         y="144.56227" />
    </clipPath>
  </defs>
  <sodipodi:namedview
     id="base"
     pagecolor="#ffffff"
     bordercolor="#666666"
     borderopacity="1.0"
     inkscape:pageopacity="0.0"
     inkscape:pageshadow="2"
     inkscape:zoom="0.26700473"
     inkscape:cx="-824.013"
     inkscape:cy="813.21513"
     inkscape:document-units="mm"
     inkscape:current-layer="layer1"
     showgrid="false"
     inkscape:window-width="1920"
     inkscape:window-height="1017"
     inkscape:window-x="0"
     inkscape:window-y="26"
     inkscape:window-maximized="1"
     units="px" />
  <metadata
     id="metadata5">
    <rdf:RDF>
      <cc:Work
         rdf:about="">
        <dc:format>image/svg+xml</dc:format>
        <dc:type
           rdf:resource="http://purl.org/dc/dcmitype/StillImage" />
        <dc:title />
      </cc:Work>
    </rdf:RDF>
  </metadata>
  <g
     inkscape:label="Capa 1"
     inkscape:groupmode="layer"
     id="layer1"
     transform="translate(0,7.5138346e-6)">
    <g
       id="g4584"
       transform="translate(0,-259.62399)">
      <rect
         transform="scale(-1,1)"
         style="opacity:1;fill:#ff0042;fill-opacity:1;stroke:none;stroke-width:2.14388514;stroke-linecap:round;stroke-miterlimit:4;stroke-dasharray:none;stroke-opacity:1"
         id="rect5417"
         width="105.18273"
         height="297"
         x="-260.11945"
         y="9.2708333e-06" />
      <rect
         y="9.2708333e-06"
         x="2.8421709e-14"
         height="297"
         width="154.93672"
         id="rect5415"
         style="opacity:1;fill:#ff00ff;fill-opacity:1;stroke:none;stroke-width:2.60199499;stroke-linecap:round;stroke-miterlimit:4;stroke-dasharray:none;stroke-opacity:1" />
    </g>
    <g
       id="g4955"
       transform="matrix(1,0,0,0.9999973,-27.890756,176.47438)">
      <g
         transform="translate(-75.854812,96.297952)"
         id="g4638">
        <path
           style="fill:#ffffff;fill-opacity:1;fill-rule:evenodd;stroke:#000000;stroke-width:1;stroke-linecap:butt;stroke-linejoin:miter;stroke-miterlimit:4;stroke-dasharray:none;stroke-opacity:1"
           d="m 154.2,140.463 -13.764,-23.839 37.67101,-30.117998 c 5.14812,-2.972268 12.40254,-0.04552 16.20324,6.537486 3.8007,6.583005 2.70887,14.329242 -2.43925,17.301512 z"
           id="path4578"
           inkscape:connector-curvature="0"
           sodipodi:nodetypes="cccscc" />
        <path
           style="opacity:1;fill:#ffffff;fill-opacity:1;stroke:#000000;stroke-width:1;stroke-linecap:butt;stroke-miterlimit:4;stroke-dasharray:none;stroke-opacity:1"
           d="m 156.63964,123.16206 c 3.8007,6.583 2.70849,14.32867 -2.43964,17.30094 -5.14812,2.97227 -12.40302,0.0457 -16.20372,-6.53732 -3.80069,-6.583 -2.7084,-14.32941 2.43972,-17.30168 5.14812,-2.97227 12.40294,-0.0449 16.20364,6.53806 z"
           id="path4572"
           inkscape:connector-curvature="0"
           sodipodi:nodetypes="sssss" />
      </g>
      <g
         transform="translate(-75.854812,96.297952)"
         id="g4737">
        <path
           style="fill:#ffffff;fill-opacity:1;fill-rule:evenodd;stroke:none;stroke-width:0.26458332px;stroke-linecap:butt;stroke-linejoin:miter;stroke-opacity:1"
           d="m 178.03069,115.83095 11.31712,2.47264 16.83303,-22.729342 -15.2163,-2.567749 z"
           id="path4731"
           inkscape:connector-curvature="0" />
        <path
           style="fill:#ffffff;fill-opacity:1;fill-rule:evenodd;stroke:#000000;stroke-width:1.10000002;stroke-linecap:round;stroke-linejoin:miter;stroke-miterlimit:4;stroke-dasharray:none;stroke-opacity:1"
           d="M 271.9675,108.00844 132.74,82.200443 m -26.92527,20.380937 148.75696,27.50411"
           id="path4652"
           inkscape:connector-curvature="0"
           sodipodi:nodetypes="cccc" />
        <path
           style="fill:#000000;stroke-width:0.35277778"
           d="m 106.01657,103.19182 c -0.38805,-0.0821 -1.06274,-0.22542 -1.4993,-0.31858 -1.50495,-0.32113 -0.79516,-1.12848 2.01057,-2.28688 2.71265,-1.119973 2.80778,-1.199193 2.91041,-2.423853 l 0.1061,-1.26603 2.8902,-0.29789 c 2.74121,-0.28252 2.89579,-0.34417 2.99861,-1.19587 0.0931,-0.7716 0.44853,-1.00787 2.52497,-1.67869 2.5521,-0.8245 3.01595,-1.22324 3.08086,-2.64838 0.13347,-2.93088 -0.31108,-2.63432 4.11577,-2.74558 l 3.96875,-0.0998 10e-4,-1.48775 c 0.002,-1.8056 0.98309,-3.53103 2.5531,-4.48827 1.43381,-0.8742 1.67892,-0.8774 1.67892,-0.0219 0,0.37498 -0.29239,0.77458 -0.64976,0.888 -0.35737,0.11343 -1.01755,0.59773 -1.46707,1.07622 -0.78809,0.83889 -0.9542,2.06368 -0.62195,4.58594 0.0877,0.66602 -0.13929,0.71112 -4.05219,0.80495 l -4.14514,0.0994 v 1.06466 c 0,1.91594 -0.87286,3.0262 -3.00682,3.82462 -1.07718,0.40303 -2.11132,0.73278 -2.29806,0.73278 -0.18675,0 -0.33955,0.37139 -0.33955,0.82532 0,0.99427 -1.21905,1.64199 -3.1034,1.64894 -2.2413,0.008 -2.84364,0.31199 -2.96235,1.49372 -0.0943,0.938763 -0.34091,1.162003 -1.9618,1.775823 -1.60291,0.60702 -1.77473,0.76 -1.26902,1.12979 0.32171,0.23524 0.47192,0.61054 0.33381,0.834 -0.25538,0.41322 -0.54023,0.441 -1.79696,0.17525 z"
           id="path4723"
           inkscape:connector-curvature="0"
           sodipodi:nodetypes="cccsccccsccccscccscscssccccccc" />
        <path
           inkscape:connector-curvature="0"
           id="path4729"
           d="m 254.50347,129.90751 c 0,-0.26729 0.24095,-0.68595 0.53545,-0.93036 0.47482,-0.39406 0.45485,-0.58099 -0.17639,-1.65086 -0.39151,-0.66356 -0.71184,-1.55895 -0.71184,-1.98976 0,-1.83329 2.29845,-3.40564 4.99221,-3.41512 1.78547,-0.006 2.05305,-0.15853 2.78069,-1.5821 0.4668,-0.91323 0.85286,-1.12034 2.81592,-1.51064 2.77558,-0.55184 3.2962,-0.97807 2.17793,-1.78308 -2.408,-1.73345 -2.64837,-2.03211 -2.40762,-2.99136 0.34879,-1.38968 1.49695,-1.94599 4.77275,-2.31248 3.27314,-0.3662 4.23114,-0.91811 3.60958,-2.0795 -0.20757,-0.38786 -0.61727,-0.79725 -0.91043,-0.90975 -0.62653,-0.24042 -0.34118,-1.28958 0.35075,-1.28958 0.75376,0 1.98516,2.01801 1.86186,3.05119 -0.17848,1.49564 -1.55904,2.23862 -4.75906,2.56121 -1.5655,0.15782 -3.02558,0.39771 -3.24463,0.53309 -0.7458,0.46093 -0.4009,1.2851 0.84556,2.02053 1.56997,0.9263 2.08455,1.82431 1.58271,2.76201 -0.4331,0.80925 -1.44559,1.41835 -2.36239,1.42116 -0.3523,10e-4 -1.24469,0.16974 -1.98309,0.37478 -1.23348,0.34253 -1.33378,0.46416 -1.23472,1.49734 l 0.10782,1.12453 -2.83353,0.21102 c -3.05536,0.22754 -4.1661,0.63599 -4.76312,1.75153 -0.30046,0.56143 -0.2277,0.95947 0.3447,1.88563 0.8963,1.45026 0.92034,2.39258 0.0804,3.15269 -0.78493,0.71035 -1.47153,0.75602 -1.47153,0.0979 z"
           style="fill:#000000;stroke-width:0.35277778"
           sodipodi:nodetypes="cssscccsccccscccccccccsccccc" />
      </g>
      <g
         transform="translate(-75.854812,70.688901)"
         id="g4644">
        <path
           sodipodi:nodetypes="cccscc"
           inkscape:connector-curvature="0"
           id="path4640"
           d="m 154.2,140.463 -13.764,-23.839 37.67101,-30.117998 c 5.14812,-2.972268 12.40254,-0.04552 16.20324,6.537486 3.8007,6.583005 2.70887,14.329242 -2.43925,17.301512 z"
           style="fill:#ffffff;fill-opacity:1;fill-rule:evenodd;stroke:#000000;stroke-width:1;stroke-linecap:butt;stroke-linejoin:miter;stroke-miterlimit:4;stroke-dasharray:none;stroke-opacity:1" />
        <path
           sodipodi:nodetypes="sssss"
           inkscape:connector-curvature="0"
           id="path4642"
           d="m 156.63964,123.16206 c 3.8007,6.583 2.70849,14.32867 -2.43964,17.30094 -5.14812,2.97227 -12.40302,0.0457 -16.20372,-6.53732 -3.80069,-6.583 -2.7084,-14.32941 2.43972,-17.30168 5.14812,-2.97227 12.40294,-0.0449 16.20364,6.53806 z"
           style="opacity:1;fill:#ffffff;fill-opacity:1;stroke:#000000;stroke-width:1;stroke-linecap:butt;stroke-miterlimit:4;stroke-dasharray:none;stroke-opacity:1" />
      </g>
      <g
         style="opacity:1"
         id="g4650"
         transform="translate(-75.854812,45.106197)">
        <path
           style="fill:#ffffff;fill-opacity:1;fill-rule:evenodd;stroke:#000000;stroke-width:1;stroke-linecap:butt;stroke-linejoin:miter;stroke-miterlimit:4;stroke-dasharray:none;stroke-opacity:1"
           d="m 154.2,140.463 -13.764,-23.839 37.67101,-30.117998 c 5.14812,-2.972268 12.40254,-0.04552 16.20324,6.537486 3.8007,6.583005 2.70887,14.329242 -2.43925,17.301512 z"
           id="path4646"
           inkscape:connector-curvature="0"
           sodipodi:nodetypes="cccscc" />
        <path
           style="opacity:1;fill:#ffffff;fill-opacity:1;stroke:#000000;stroke-width:1;stroke-linecap:butt;stroke-miterlimit:4;stroke-dasharray:none;stroke-opacity:1"
           d="m 156.63964,123.16206 c 3.8007,6.583 2.70849,14.32867 -2.43964,17.30094 -5.14812,2.97227 -12.40302,0.0457 -16.20372,-6.53732 -3.80069,-6.583 -2.7084,-14.32941 2.43972,-17.30168 5.14812,-2.97227 12.40294,-0.0449 16.20364,6.53806 z"
           id="path4648"
           inkscape:connector-curvature="0"
           sodipodi:nodetypes="sssss" />
      </g>
      <path
         sodipodi:nodetypes="ccccccccccccccccscscccccsccccsc"
         style="fill:#000000;stroke-width:0.35277778"
         d="m 98.307699,192.4385 c 1.300274,-2.27478 -0.0516,-5.54371 -1.2553,-7.43727 -1.88188,-2.93263 -5.0397,-4.77567 -7.14701,-4.1713 -0.5759,0.16516 -1.27277,0.174 -1.5486,0.0196 -0.37928,-0.21226 -0.031,-0.68264 1.42898,-1.92994 1.86944,-1.59711 2.80272,-1.98635 3.20437,-1.33647 0.10633,0.17204 -0.043,0.50898 -0.33195,0.74875 -0.91638,0.76053 -0.58958,1.27401 2.09838,3.29714 l 2.62368,1.97473 1.962442,-1.5986 c 2.248259,-1.83141 2.352539,-2.29474 1.114799,-4.95295 -1.011959,-2.17335 -2.126371,-3.08925 -3.115021,-2.56014 -0.37322,0.19974 -0.89169,0.28138 -1.15217,0.18143 -0.6602,-0.25334 -0.4246,-1.38236 0.311,-1.49032 l 3.992711,-3.02705 c 0.74316,-0.61677 1.34075,0.13805 0.79771,1.0076 -0.3523,0.56411 -0.24365,1.09476 0.64049,3.1284 1.48011,3.40444 1.96747,5.94091 1.768,9.20163 -0.21175,3.46168 -1.11263,5.45022 -3.561,7.86039 -1.741211,1.71404 -3.163201,2.55598 -1.831371,1.08433 z m 2.923001,-5.29036 c 0.0894,-0.48507 0.23678,-1.89908 0.32745,-3.14224 l 0.16488,-2.26029 -1.53187,1.17654 c -0.842519,0.64709 -1.671051,1.29541 -1.841171,1.44071 -0.17013,0.1453 0.0213,0.79907 0.4253,1.45283 0.404042,0.65375 0.844834,1.87787 0.979544,2.72027 l 0.24492,1.53164 0.534177,-1.01876 c 0.2938,-0.56032 0.60734,-1.41563 0.69677,-1.9007 z"
         id="path4725"
         inkscape:connector-curvature="0" />
      <path
         sodipodi:nodetypes="ccssccscscccccccccscccccccscsccscsccccccccccsccccccssccscsccccsccccccsccccc"
         inkscape:connector-curvature="0"
         id="path4727"
         d="m 170.82985,216.36362 c 0,-0.51572 -1.4304,-1.39706 -6.15496,-3.79236 -3.38523,-1.71628 -6.0309,-3.24502 -5.87926,-3.39721 0.15164,-0.15219 4.67461,-0.42954 10.05105,-0.61633 7.70911,-0.26784 10.00269,-0.45719 10.85093,-0.89583 0.59157,-0.30592 1.17821,-0.45359 1.30363,-0.32817 0.26479,0.26478 -3.70766,4.05732 -4.24979,4.05732 -0.23494,0 -0.22455,-0.16747 0.0294,-0.47343 0.62903,-0.75796 0.10006,-0.93768 -2.75985,-0.93768 h -2.68849 l -1.68501,1.71073 -1.68501,1.71073 1.76367,0.75871 c 2.0639,0.88787 2.45715,0.9133 3.37599,0.21833 1.43059,-1.08205 1.33914,-0.4535 -0.15562,1.06955 -1.71537,1.74784 -2.11667,1.92143 -2.11667,0.91564 z m -2.33179,-4.81372 c 0.7548,-0.67974 1.31002,-1.29823 1.23381,-1.37444 -0.0762,-0.0762 -1.79091,-0.0475 -3.81045,0.0638 l -3.67189,0.20233 2.26169,1.16317 c 1.24393,0.63975 2.34107,1.1672 2.43808,1.17211 0.097,0.005 0.79395,-0.54721 1.54876,-1.22695 z m -24.95143,0.25936 c 0.13733,-0.52514 -0.94583,-1.20097 -6.03024,-3.76251 -5.8895,-2.96714 -6.98533,-3.69799 -5.58029,-3.72168 0.33955,-0.006 4.8563,-0.15645 10.03721,-0.33495 7.5356,-0.25962 9.6415,-0.43916 10.52793,-0.89754 0.60944,-0.31516 1.18075,-0.50034 1.26957,-0.41151 0.20264,0.20264 -3.6936,4.12386 -4.0976,4.12386 -0.16321,0 -0.21372,-0.3175 -0.11224,-0.70556 0.17302,-0.66161 0.0108,-0.70555 -2.60393,-0.70555 h -2.78843 l -1.69218,1.71801 -1.69219,1.71802 1.55224,0.75143 c 1.86114,0.90096 2.48929,0.93235 3.63495,0.18168 1.30333,-0.85397 1.04752,-0.10003 -0.46825,1.38009 -1.45106,1.41692 -2.22146,1.67924 -1.95655,0.66621 z m -2.15712,-5.05029 1.39451,-1.45708 -1.41111,0.21847 c -0.77611,0.12016 -2.60174,0.22792 -4.05694,0.23947 l -2.64584,0.021 2.29306,1.20049 c 1.26118,0.66026 2.45927,1.20818 2.66243,1.2176 0.20316,0.009 0.99691,-0.63857 1.76389,-1.43995 z m -25.37332,-0.11602 c 0.24761,-0.64525 -0.74825,-1.27256 -7.09884,-4.4717 -2.71639,-1.36839 -4.93889,-2.67155 -4.93889,-2.89591 0,-0.29258 2.7786,-0.48308 9.82714,-0.67376 7.94307,-0.21488 10.05907,-0.37592 11.03692,-0.83993 0.66538,-0.31575 1.28643,-0.49744 1.3801,-0.40377 0.21393,0.21392 -3.73337,4.15538 -4.16154,4.15538 -0.17318,0 -0.21411,-0.3175 -0.0909,-0.70556 0.21073,-0.66393 0.0634,-0.70555 -2.49728,-0.70555 h -2.72122 l -1.69828,1.58854 -1.69827,1.58854 0.79547,0.52122 c 1.68816,1.10612 3.00413,1.35643 3.93265,0.74804 1.64232,-1.07609 1.73471,-0.5596 0.18276,1.02171 -1.52996,1.55892 -2.63931,2.08788 -2.24977,1.07275 z m -2.15995,-5.12969 1.37792,-1.41111 -1.39452,0.002 c -0.76698,0.001 -2.49022,0.10596 -3.82943,0.23241 l -2.43492,0.22991 2.25853,1.16158 c 1.24219,0.63887 2.34538,1.16928 2.45152,1.1787 0.10614,0.01 0.81305,-0.61785 1.5709,-1.39396 z"
         style="fill:#000000;stroke-width:0.35277778" />
      <g
         id="g4817">
        <g
           style="opacity:1"
           id="g4803"
           transform="translate(-10.06538,-2.4467964)">
          <path
             style="opacity:1;fill:#ffffff;fill-opacity:1;stroke:#000000;stroke-width:1;stroke-linecap:butt;stroke-miterlimit:4;stroke-dasharray:none;stroke-opacity:1"
             d="m 71.094,156.56 37.6822,-30.17258 c 0.85426,-0.68402 2.28336,-0.008 2.98306,1.20365 0.6997,1.21191 0.40515,2.50105 -0.44913,3.18506 L 73.628,160.948"
             id="path4799"
             inkscape:connector-curvature="0"
             sodipodi:nodetypes="csssc" />
          <path
             sodipodi:nodetypes="sssss"
             inkscape:connector-curvature="0"
             id="path4801"
             d="m 74.077022,157.76338 c 0.699701,1.21191 0.498737,2.63743 -0.449022,3.18462 -0.947758,0.54719 -2.283479,0.008 -2.98318,-1.20306 -0.699698,-1.21192 -0.498578,-2.63775 0.44918,-3.18494 0.947757,-0.54718 2.283322,-0.008 2.983022,1.20338 z"
             style="opacity:1;fill:#ffffff;fill-opacity:1;stroke:#000000;stroke-width:1;stroke-linecap:butt;stroke-miterlimit:4;stroke-dasharray:none;stroke-opacity:1" />
        </g>
        <g
           transform="translate(-6.8115053,-5.0929244)"
           id="g4797"
           style="opacity:1">
          <path
             sodipodi:nodetypes="csssc"
             inkscape:connector-curvature="0"
             id="path4793"
             d="m 71.094,156.56 37.6822,-30.17258 c 0.85426,-0.68402 2.28336,-0.008 2.98306,1.20365 0.6997,1.21191 0.40515,2.50105 -0.44913,3.18506 L 73.628,160.948"
             style="opacity:1;fill:#ffffff;fill-opacity:1;stroke:#000000;stroke-width:1;stroke-linecap:butt;stroke-miterlimit:4;stroke-dasharray:none;stroke-opacity:1" />
          <path
             style="opacity:1;fill:#ffffff;fill-opacity:1;stroke:#000000;stroke-width:1;stroke-linecap:butt;stroke-miterlimit:4;stroke-dasharray:none;stroke-opacity:1"
             d="m 74.077022,157.76338 c 0.699701,1.21191 0.498737,2.63743 -0.449022,3.18462 -0.947758,0.54719 -2.283479,0.008 -2.98318,-1.20306 -0.699698,-1.21192 -0.498578,-2.63775 0.44918,-3.18494 0.947757,-0.54718 2.283322,-0.008 2.983022,1.20338 z"
             id="path4795"
             inkscape:connector-curvature="0"
             sodipodi:nodetypes="sssss" />
        </g>
        <g
           id="g4761"
           style="opacity:1">
          <path
             sodipodi:nodetypes="csssc"
             inkscape:connector-curvature="0"
             id="path4747"
             d="m 71.094,156.56 37.6822,-30.17258 c 0.85426,-0.68402 2.28336,-0.008 2.98306,1.20365 0.6997,1.21191 0.40515,2.50105 -0.44913,3.18506 L 73.628,160.948"
             style="opacity:1;fill:#ffffff;fill-opacity:1;stroke:#000000;stroke-width:1;stroke-linecap:butt;stroke-miterlimit:4;stroke-dasharray:none;stroke-opacity:1" />
          <path
             style="opacity:1;fill:#ffffff;fill-opacity:1;stroke:#000000;stroke-width:1;stroke-linecap:butt;stroke-miterlimit:4;stroke-dasharray:none;stroke-opacity:1"
             d="m 74.077022,157.76338 c 0.699701,1.21191 0.498737,2.63743 -0.449022,3.18462 -0.947758,0.54719 -2.283479,0.008 -2.98318,-1.20306 -0.699698,-1.21192 -0.498578,-2.63775 0.44918,-3.18494 0.947757,-0.54718 2.283322,-0.008 2.983022,1.20338 z"
             id="path4741"
             inkscape:connector-curvature="0"
             sodipodi:nodetypes="sssss" />
        </g>
        <g
           style="opacity:1"
           id="g4791"
           transform="translate(-2.534,-4.388)">
          <path
             style="opacity:1;fill:#ffffff;fill-opacity:1;stroke:#000000;stroke-width:1;stroke-linecap:butt;stroke-miterlimit:4;stroke-dasharray:none;stroke-opacity:1"
             d="m 71.094,156.56 37.6822,-30.17258 c 0.85426,-0.68402 2.28336,-0.008 2.98306,1.20365 0.6997,1.21191 0.40515,2.50105 -0.44913,3.18506 L 73.628,160.948"
             id="path4787"
             inkscape:connector-curvature="0"
             sodipodi:nodetypes="csssc" />
          <path
             sodipodi:nodetypes="sssss"
             inkscape:connector-curvature="0"
             id="path4789"
             d="m 74.077022,157.76338 c 0.699701,1.21191 0.498737,2.63743 -0.449022,3.18462 -0.947758,0.54719 -2.283479,0.008 -2.98318,-1.20306 -0.699698,-1.21192 -0.498578,-2.63775 0.44918,-3.18494 0.947757,-0.54718 2.283322,-0.008 2.983022,1.20338 z"
             style="opacity:1;fill:#ffffff;fill-opacity:1;stroke:#000000;stroke-width:1;stroke-linecap:butt;stroke-miterlimit:4;stroke-dasharray:none;stroke-opacity:1" />
        </g>
      </g>
      <g
         transform="translate(20.620316,11.793399)"
         id="g4843">
        <g
           transform="translate(-10.06538,-2.4467964)"
           id="g4823"
           style="opacity:1">
          <path
             sodipodi:nodetypes="csssc"
             inkscape:connector-curvature="0"
             id="path4819"
             d="m 71.094,156.56 37.6822,-30.17258 c 0.85426,-0.68402 2.28336,-0.008 2.98306,1.20365 0.6997,1.21191 0.40515,2.50105 -0.44913,3.18506 L 73.628,160.948"
             style="opacity:1;fill:#ffffff;fill-opacity:1;stroke:#000000;stroke-width:1;stroke-linecap:butt;stroke-miterlimit:4;stroke-dasharray:none;stroke-opacity:1" />
          <path
             style="opacity:1;fill:#ffffff;fill-opacity:1;stroke:#000000;stroke-width:1;stroke-linecap:butt;stroke-miterlimit:4;stroke-dasharray:none;stroke-opacity:1"
             d="m 74.077022,157.76338 c 0.699701,1.21191 0.498737,2.63743 -0.449022,3.18462 -0.947758,0.54719 -2.283479,0.008 -2.98318,-1.20306 -0.699698,-1.21192 -0.498578,-2.63775 0.44918,-3.18494 0.947757,-0.54718 2.283322,-0.008 2.983022,1.20338 z"
             id="path4821"
             inkscape:connector-curvature="0"
             sodipodi:nodetypes="sssss" />
        </g>
        <g
           style="opacity:1"
           id="g4829"
           transform="translate(-6.8115053,-5.0929244)">
          <path
             style="opacity:1;fill:#ffffff;fill-opacity:1;stroke:#000000;stroke-width:1;stroke-linecap:butt;stroke-miterlimit:4;stroke-dasharray:none;stroke-opacity:1"
             d="m 71.094,156.56 37.6822,-30.17258 c 0.85426,-0.68402 2.28336,-0.008 2.98306,1.20365 0.6997,1.21191 0.40515,2.50105 -0.44913,3.18506 L 73.628,160.948"
             id="path4825"
             inkscape:connector-curvature="0"
             sodipodi:nodetypes="csssc" />
          <path
             sodipodi:nodetypes="sssss"
             inkscape:connector-curvature="0"
             id="path4827"
             d="m 74.077022,157.76338 c 0.699701,1.21191 0.498737,2.63743 -0.449022,3.18462 -0.947758,0.54719 -2.283479,0.008 -2.98318,-1.20306 -0.699698,-1.21192 -0.498578,-2.63775 0.44918,-3.18494 0.947757,-0.54718 2.283322,-0.008 2.983022,1.20338 z"
             style="opacity:1;fill:#ffffff;fill-opacity:1;stroke:#000000;stroke-width:1;stroke-linecap:butt;stroke-miterlimit:4;stroke-dasharray:none;stroke-opacity:1" />
        </g>
        <g
           style="opacity:1"
           id="g4835">
          <path
             style="opacity:1;fill:#ffffff;fill-opacity:1;stroke:#000000;stroke-width:1;stroke-linecap:butt;stroke-miterlimit:4;stroke-dasharray:none;stroke-opacity:1"
             d="m 71.094,156.56 37.6822,-30.17258 c 0.85426,-0.68402 2.28336,-0.008 2.98306,1.20365 0.6997,1.21191 0.40515,2.50105 -0.44913,3.18506 L 73.628,160.948"
             id="path4831"
             inkscape:connector-curvature="0"
             sodipodi:nodetypes="csssc" />
          <path
             sodipodi:nodetypes="sssss"
             inkscape:connector-curvature="0"
             id="path4833"
             d="m 74.077022,157.76338 c 0.699701,1.21191 0.498737,2.63743 -0.449022,3.18462 -0.947758,0.54719 -2.283479,0.008 -2.98318,-1.20306 -0.699698,-1.21192 -0.498578,-2.63775 0.44918,-3.18494 0.947757,-0.54718 2.283322,-0.008 2.983022,1.20338 z"
             style="opacity:1;fill:#ffffff;fill-opacity:1;stroke:#000000;stroke-width:1;stroke-linecap:butt;stroke-miterlimit:4;stroke-dasharray:none;stroke-opacity:1" />
        </g>
        <g
           transform="translate(-2.534,-4.388)"
           id="g4841"
           style="opacity:1">
          <path
             sodipodi:nodetypes="csssc"
             inkscape:connector-curvature="0"
             id="path4837"
             d="m 71.094,156.56 37.6822,-30.17258 c 0.85426,-0.68402 2.28336,-0.008 2.98306,1.20365 0.6997,1.21191 0.40515,2.50105 -0.44913,3.18506 L 73.628,160.948"
             style="opacity:1;fill:#ffffff;fill-opacity:1;stroke:#000000;stroke-width:1;stroke-linecap:butt;stroke-miterlimit:4;stroke-dasharray:none;stroke-opacity:1" />
          <path
             style="opacity:1;fill:#ffffff;fill-opacity:1;stroke:#000000;stroke-width:1;stroke-linecap:butt;stroke-miterlimit:4;stroke-dasharray:none;stroke-opacity:1"
             d="m 74.077022,157.76338 c 0.699701,1.21191 0.498737,2.63743 -0.449022,3.18462 -0.947758,0.54719 -2.283479,0.008 -2.98318,-1.20306 -0.699698,-1.21192 -0.498578,-2.63775 0.44918,-3.18494 0.947757,-0.54718 2.283322,-0.008 2.983022,1.20338 z"
             id="path4839"
             inkscape:connector-curvature="0"
             sodipodi:nodetypes="sssss" />
        </g>
      </g>
      <path
         inkscape:connector-curvature="0"
         id="path4910"
         d="m 91.440001,154.21093 c -1.11566,-1.0891 -2.02847,-2.08471 -2.02847,-2.21246 0,-0.31816 1.83104,0.0295 4.64762,0.88238 1.60812,0.48696 2.29846,0.8592 2.17758,1.17419 -0.26573,0.6925 -1.07946,0.88957 -2.08873,0.50585 -1.45991,-0.55506 -1.7371,-0.39892 -0.89088,0.50184 0.43647,0.4646 0.66258,0.90855 0.50247,0.98656 -0.16011,0.078 -1.20393,-0.74926 -2.31959,-1.83836 z"
         style="fill:#000000;stroke-width:0.35277778" />
    </g>
    <path
       inkscape:connector-curvature="0"
       id="path5120"
       d="m -42.708329,388.96296 c 24.119961,-0.13156 42.26407604,-0.50171 42.63216452,-0.8698 0.82998658,-0.82998 -5.35245592,-12.23755 -7.41535242,-13.68248 -1.3313785,-0.93255 -6.5924871,-1.0732 -40.1370701,-1.0732 -35.904946,0 -38.677313,0.0858 -39.640919,1.22561 -2.911175,3.44385 -8.363475,12.98353 -7.763484,13.58354 0.983194,0.98317 6.355476,1.067 52.324661,0.81633 z m -44.0911,-3.83469 c -0.727946,-0.72845 0.976549,-3.38662 2.171581,-3.38662 0.769424,0 0.955136,0.44591 0.656292,1.57578 l -0.416794,1.57577 1.155354,-1.57577 c 1.30639,-1.78175 3.46831,-2.18268 2.832321,-0.52527 -0.221817,0.57781 -0.128644,1.05054 0.206729,1.05054 0.335398,0 0.939439,-0.94548 1.342283,-2.10105 0.43294,-1.24197 1.248447,-2.12365 1.994446,-2.15634 0.734695,-0.0323 0.89624,-0.20302 0.386617,-0.40853 -1.658703,-0.66929 -0.870379,-1.6374 1.400702,-1.72007 l 2.276111,-0.0829 -2.10104,-0.53461 c -3.140667,-0.79917 -9.310934,-0.79917 -9.804834,0 -0.266788,0.43164 0.926523,0.70034 3.110202,0.70034 1.948705,0 3.543086,0.26888 3.543086,0.59755 0,0.32863 -1.534189,0.45013 -3.409335,0.26994 l -3.409309,-0.32759 -1.66818,3.52523 c -1.112816,2.3516 -2.220339,3.67205 -3.326616,3.96622 -0.91215,0.24246 -1.814637,0.28478 -2.005538,0.094 -0.190846,-0.19085 1.028114,-2.71681 2.708945,-5.61315 l 3.056043,-5.266 38.594596,-0.0238 38.594596,-0.0238 2.4580638,4.02699 c 1.3519444,2.21486 2.8298843,4.74334 3.2843445,5.61882 l 0.8262816,1.59185 -41.9959899,-0.19111 c -23.097804,-0.10509 -42.205234,-0.40051 -42.460958,-0.65643 z m 67.932334,-0.41319 c 1.884464,-0.41439 2.744256,-1.30895 1.811884,-1.8852 -0.418752,-0.25888 -0.761377,-0.13685 -0.761377,0.27113 0,0.40793 -0.333758,0.74169 -0.741657,0.74169 -0.407927,0 -0.560181,-0.29372 -0.338312,-0.6527 0.221817,-0.35896 -0.468647,-0.78448 -1.534453,-0.94559 -1.065806,-0.1612 -0.147701,-0.34011 2.04045,-0.39784 3.608521,-0.095 4.006495,0.0415 4.281806,1.47086 0.291883,1.51544 0.307156,1.51856 0.398874,0.0818 0.149819,-2.34749 2.67382,-2.60046 3.566752,-0.35751 l 0.737156,1.85159 -0.256227,-1.92594 c -0.1408194,-1.05926 0.07543,-1.92595 0.4807971,-1.92595 0.4054113,0 0.1252025,-0.46272 -0.6223575,-1.02823 -1.3321986,-1.00764 -1.3325416,-1.02871 -0.01588,-1.05055 0.738295,-0.0132 1.1604882,-0.20408 0.9382221,-0.42637 -0.2223461,-0.22235 -8.2324757,-0.40126 -17.8004587,-0.39776 -22.589663,0.008 -22.09976,-0.0106 -21.617348,0.77127 0.227641,0.36838 0.876574,0.49224 1.442022,0.27527 0.565447,-0.21706 1.028086,-0.008 1.028086,0.46242 0,0.50547 -0.561372,0.71015 -1.368594,0.49906 -0.933191,-0.24404 -1.730832,0.19482 -2.507192,1.37977 -0.626195,0.95572 -0.963209,1.91303 -0.748909,2.12734 0.214404,0.2144 0.572727,-0.0873 0.796475,-0.67052 0.282698,-0.73671 1.486359,-1.08449 3.945111,-1.13987 2.952996,-0.0664 3.404121,0.0818 2.727208,0.89756 -0.617354,0.74386 -0.606395,1.1038 0.04579,1.50692 0.92443,0.57133 21.761026,0.97595 24.073374,0.46747 z m -14.532206,-1.33622 c 0.481511,-0.19428 1.269386,-0.19428 1.750871,0 0.481485,0.19429 0.08761,0.35325 -0.875436,0.35325 -0.962971,0 -1.356921,-0.15909 -0.875435,-0.35325 z m 3.23273,-1.42653 c 0.498214,-0.49825 6.856415,-0.32495 7.3892,0.20143 0.160406,0.15856 -1.546603,0.28828 -3.793544,0.28828 -2.246942,0 -3.864987,-0.22023 -3.595656,-0.48966 z m -6.043742,-0.003 c 0.861379,-0.16623 2.437179,-0.17047 3.501741,-0.0106 1.064562,0.16095 0.359804,0.29697 -1.566138,0.30224 -1.925969,0.005 -2.796984,-0.12652 -1.935603,-0.29268 z m -4.906123,0.0336 c 0.474153,-0.1919 1.419628,-0.20354 2.10104,-0.0265 0.681411,0.17761 0.29347,0.33452 -0.862095,0.34879 -1.155566,0.0132 -1.713098,-0.13103 -1.238945,-0.32285 z m 26.801588,-2.3418 c 0,-0.38519 0.630326,-0.70034 1.400702,-0.70034 0.770377,0 1.400677,0.31515 1.400677,0.70034 0,0.38519 -0.6303,0.70033 -1.400677,0.70033 -0.770376,0 -1.400702,-0.31514 -1.400702,-0.70033 z m -3.50174,0 c 0,-0.38519 0.630325,-0.70034 1.400702,-0.70034 0.770377,0 1.400701,0.31515 1.400701,0.70034 0,0.38519 -0.630324,0.70033 -1.400701,0.70033 -0.770377,0 -1.400702,-0.31514 -1.400702,-0.70033 z m -3.851884,0 c 0.237963,-0.38519 1.044524,-0.70034 1.79219,-0.70034 0.747639,0 1.359356,0.31515 1.359356,0.70034 0,0.38519 -0.806482,0.70033 -1.79219,0.70033 -1.016466,0 -1.604863,-0.30314 -1.359356,-0.70033 z m -3.851911,0 c 0,-0.38519 0.630299,-0.70034 1.400676,-0.70034 0.770402,0 1.400702,0.31515 1.400702,0.70034 0,0.38519 -0.6303,0.70033 -1.400702,0.70033 -0.770377,0 -1.400676,-0.31514 -1.400676,-0.70033 z m -7.003483,-0.0305 c 0,-0.30425 1.418198,-0.55317 3.151572,-0.55317 1.733348,0 3.151546,0.27741 3.151546,0.61644 0,0.33902 -1.418198,0.58793 -3.151546,0.55315 -1.733374,-0.0347 -3.151572,-0.31217 -3.151572,-0.61642 z m -3.851884,0.0305 c 0.237964,-0.38519 1.063133,-0.70034 1.83351,-0.70034 0.770376,0 1.205937,0.31515 0.967868,0.70034 -0.237963,0.38519 -1.06316,0.70033 -1.833537,0.70033 -0.770376,0 -1.20591,-0.31514 -0.967841,-0.70033 z m -4.202079,0 c 0.237964,-0.38519 1.044524,-0.70034 1.79219,-0.70034 0.747639,0 1.359357,0.31515 1.359357,0.70034 0,0.38519 -0.806482,0.70033 -1.792191,0.70033 -1.016466,0 -1.604863,-0.30314 -1.359356,-0.70033 z m -4.202079,0 c 0.237963,-0.38519 1.044525,-0.70034 1.79219,-0.70034 0.747639,0 1.359356,0.31515 1.359356,0.70034 0,0.38519 -0.806482,0.70033 -1.79219,0.70033 -1.016466,0 -1.604863,-0.30314 -1.359356,-0.70033 z m -16.217511,4.37718 c 0.177877,-0.28889 0.528628,-2.10104 0.779588,-4.02701 0.554542,-4.25585 -0.616746,-2.89183 -1.353109,1.57577 -0.452104,2.74296 -0.21917,3.73889 0.573521,2.45124 z m -13.617251,-2.69635 c 0.494429,-1.36732 0.743854,-2.64113 0.554277,-2.83071 -0.189524,-0.18953 -0.722625,0.8006 -1.184602,2.20038 -1.094473,3.31632 -0.541069,3.86973 0.630325,0.63033 z m 21.780772,-0.28013 c 0,-0.90742 -0.4669,-1.4007 -1.325765,-1.4007 -0.72919,0 -1.507164,-0.47273 -1.728901,-1.05053 -0.622041,-1.62107 -1.807622,-1.24732 -2.592584,0.81733 -0.853889,2.24588 -0.0053,3.00795 3.371113,3.02386 1.81281,0.008 2.276137,-0.27439 2.276137,-1.38996 z m -3.326644,0.25887 c -1.540145,-0.41274 -2.262479,-2.35996 -0.875435,-2.35996 0.385189,0 0.700338,0.31514 0.700338,0.70034 0,0.38518 0.630325,0.70033 1.400702,0.70033 0.770377,0 1.400675,0.31518 1.400675,0.70036 0,0.80424 -0.432384,0.84689 -2.62628,0.25888 z m 34.316971,-4.98515 c -6.644551,-0.11513 -17.517415,-0.11513 -24.161968,0 -6.644526,0.11515 -1.208081,0.20939 12.080998,0.20939 13.289078,0 18.725497,-0.0943 12.08097,-0.20939 z m -63.206285,3.92133 c 0,-0.93933 2.32545,-1.6735 2.608757,-0.82361 0.132879,0.39851 1.065251,0.56712 2.072028,0.37466 1.204032,-0.23029 1.670218,-0.0905 1.362189,0.40784 -0.564442,0.91329 -6.042974,0.95053 -6.042974,0.041 z m -18.414134,4.33086 c 1.70992,-0.72701 4.442319,-4.72178 5.663715,-8.28035 0.684033,-1.9929 0.605471,-2.48815 -0.583156,-3.67681 -2.020469,-2.02047 -8.085909,-1.90233 -11.233409,0.2189 -5.13408,3.45987 -7.29711,9.6831 -3.82446,11.00339 2.74333,1.04301 8.29158,1.45172 9.97731,0.735 z m -8.87876,-6.37713 c 0.97306,-2.34917 4.45561,-5.55301 6.03609,-5.55301 0.90347,0 0.89524,0.15167 -0.0601,1.10697 -0.60883,0.60886 -0.89841,1.44449 -0.64345,1.85697 0.30072,0.48662 0.7605,0.34382 1.30925,-0.40663 0.46515,-0.63615 1.4413,-1.16663 2.16922,-1.17889 1.28204,-0.0212 1.2809,-0.0545 -0.036,-1.05053 -1.23203,-0.93184 -1.24413,-1.02824 -0.12917,-1.02824 1.7423,0 3.939738,1.29196 3.939738,2.31629 0,0.47645 -0.968428,2.04116 -2.152018,3.47709 -2.04297,2.47845 -2.36246,2.61078 -6.30312,2.61078 -2.82451,0 -4.16878,0.27979 -4.2064,0.87544 -0.0418,0.66352 -0.14373,0.65492 -0.42039,-0.0355 -0.2009,-0.50105 0.0238,-1.84685 0.49631,-2.99064 z m 20.996419,-10.35003 c 1.351839,-0.29177 5.527633,-1.71996 9.279595,-3.17373 l 6.821741,-2.64319 -0.04923,-4.32283 c -0.07544,-6.62791 -1.242545,-8.25364 -1.302234,-1.814 l -0.04923,5.3102 -2.423098,0.74366 -2.423098,0.74368 -0.237434,-5.35353 -0.237434,-5.35349 -0.140819,5.42768 c -0.07756,2.98526 -0.377327,5.42836 -0.666218,5.42919 -0.288891,6.8e-4 -0.495885,-3.38714 -0.459993,-7.52874 l 0.06538,-7.53022 -0.415444,6.6533 -0.415417,6.65329 -0.567486,-9.70428 c -0.312131,-5.33735 -0.390905,-9.88085 -0.174964,-10.09668 0.215728,-0.21573 0.392387,0.90969 0.392387,2.50108 0,2.17671 0.346993,3.07918 1.400702,3.64312 0.770377,0.4123 1.422857,1.29006 1.449909,1.95058 0.0413,1.01005 0.15432,0.97828 0.710899,-0.19984 0.445831,-0.9438 0.567963,0.88364 0.374389,5.60279 -0.165966,4.0489 -0.04368,6.41256 0.290401,5.6028 0.317743,-0.77039 0.599831,-3.89218 0.62691,-6.93735 l 0.04923,-5.53662 9.979931,0.45656 c 5.48896,0.2516 13.289078,0.45767 17.333583,0.45858 l 7.353651,0.001 -0.234257,3.75713 -0.234258,3.75716 -4.668053,0.44093 c -2.567464,0.24245 -6.49034,0.44314 -8.717561,0.4459 -6.570649,0.008 -11.885148,3.24558 -7.331153,4.466 0.866674,0.23214 11.679319,0.42658 24.028085,0.43185 18.448041,0.008 22.694775,-0.1702 23.8118,-0.99816 1.255065,-0.93032 1.272164,-1.09637 0.22261,-2.16229 -0.879511,-0.89327 -3.019196,-1.24095 -9.454691,-1.53634 -10.967017,-0.50335 -11.267157,-0.6336 -11.573969,-5.02324 l -0.245639,-3.51459 18.360241,-0.2062 c 16.55381,-0.18582 18.483193,-0.32968 19.6097194,-1.46137 1.15299823,-1.15831 1.24235986,-3.06439 1.15744521,-24.69049 C -0.1182221,305.01522 -0.3609781,298.83005 -1.0105734,298.0473 -1.7628443,297.14087 -7.0910284,297 -40.617664,297 c -38.265444,0 -41.827802,0.19137 -43.181255,2.31994 -0.290823,0.45738 -0.533604,2.8259 -0.539507,5.26335 l -0.01059,4.43177 -2.82483,-2.41797 c -1.616959,-1.38406 -3.937804,-2.60196 -5.427709,-2.84827 -6.174899,-1.0208 -23.982115,-0.008 -25.437445,1.44855 -0.8918,0.89179 -1.76239,51.86556 -0.99196,58.0811 0.39999,3.22705 0.64618,3.63744 2.3915,3.98652 3.42749,0.68549 22.747503,1.1251 25.293631,0.57553 z m -20.705989,-1.95067 -4.94157,-0.42436 -0.18767,-29.60717 c -0.11647,-18.37786 0.0675,-29.76479 0.48477,-30.02279 0.36986,-0.22844 0.82366,0.16252 1.00844,0.86916 0.40695,1.55619 4.24208,2.20121 13.08754,2.20121 6.257485,0 7.746147,-0.56529 7.746147,-2.94146 0,-1.5401 2.930153,-1.74268 4.138974,-0.28612 1.103501,1.32964 0.218906,60.0366 -0.917177,60.8736 -0.735807,0.54208 -9.832254,0.24723 -20.419434,-0.66207 z m 15.796928,-11.06983 c 0,-1.32546 -0.236375,-2.55564 -0.525267,-2.73378 -0.288891,-0.17814 -4.444251,-0.42482 -9.234121,-0.54819 l -8.70885,-0.2242 -0.56423,2.08264 c -0.8983,3.31583 0.50774,3.83349 10.412,3.83349 h 8.620468 z m -8.404158,0.7163 c 0,-1.77082 1.1548,-2.50853 3.92685,-2.50853 2.609706,0 3.076607,0.21256 3.076607,1.40071 0,1.21393 -0.466901,1.4007 -3.501717,1.4007 -1.92597,0 -3.50174,-0.13182 -3.50174,-0.29288 z m -6.47822,-0.15671 c -3.96766,-0.65579 -3.44456,-2.35187 0.72538,-2.35187 2.88476,0 3.35166,0.19508 3.35166,1.4007 0,1.53459 -0.22711,1.58753 -4.07704,0.95117 z m 16.28308,-17.75952 c 0.702059,-0.4537 -2.73814,-0.68243 -10.37145,-0.6896 -7.43893,-0.008 -11.27104,0.23346 -10.98911,0.6896 0.56219,0.9097 19.952923,0.9097 21.36056,0 z m 0.700337,-8.40416 c 0,-0.4377 -4.202078,-0.70034 -11.205537,-0.70034 -7.00348,0 -11.20556,0.26259 -11.20556,0.70034 0,0.43772 4.20208,0.70033 11.20556,0.70033 7.003459,0 11.205537,-0.26256 11.205537,-0.70033 z m -0.350167,-6.9742 c 0.880914,-0.34367 -1.587977,-0.73299 -6.65329,-1.04912 -9.07188,-0.56622 -14.12198,-0.34183 -13.8442,0.61508 0.23187,0.79888 18.56718,1.18714 20.49749,0.43404 z m 0,-8.43343 c 0.25755,-0.4168 -0.576354,-0.70037 -2.059722,-0.70037 -1.748699,0 -2.492527,-0.31351 -2.492527,-1.05051 0,-0.75871 0.778159,-1.05054 2.801377,-1.05054 1.540754,0 2.801378,-0.31515 2.801378,-0.70033 0,-0.43747 -3.877453,-0.68186 -10.330096,-0.65113 -13.69026,0.0654 -17.66756,1.48689 -6.33378,2.26393 3.11367,0.21361 4.80705,0.055 5.02418,-0.47032 0.21864,-0.52878 0.5704,-0.44291 1.05782,0.25808 0.62984,0.90604 -0.13341,1.0782 -5.54948,1.2519 -3.45383,0.11065 -6.27972,0.50471 -6.27972,0.87544 0,0.91968 20.791733,0.89409 21.36057,-0.0265 z m -8.05399,-1.75088 c 0,-0.57779 0.47272,-1.05054 1.05053,-1.05054 0.57779,0 1.05051,0.47275 1.05051,1.05054 0,0.57778 -0.47272,1.05051 -1.05051,1.05051 -0.57781,0 -1.05053,-0.47273 -1.05053,-1.05051 z m 14.988412,46.04784 c 0.216258,-3.75561 0.501126,-15.65277 0.632788,-26.43811 0.131554,-10.78535 0.06776,-15.98543 -0.141879,-11.55573 l -0.38135,8.05398 -0.440616,-8.75434 c -0.25014,-4.96922 -0.341302,-0.57847 -0.210964,10.15504 0.12626,10.40016 -0.02912,22.69126 -0.345749,27.31356 -0.441569,6.449 -0.600864,1.60931 -0.684746,-20.80309 l -0.109321,-29.20727 2.421589,1.54354 2.421562,1.54354 -0.115143,11.90589 -0.115145,11.90591 -0.380396,-9.80487 -0.380425,-9.80484 -0.525266,17.09683 c -0.28889,9.40325 -0.52524,20.82768 -0.52524,25.38759 0,5.47039 -0.257286,8.29077 -0.75648,8.29077 -0.516902,0 -0.631887,-2.16245 -0.363087,-6.8284 z m 2.001937,-4.87685 c 0.139496,-2.22892 0.254639,-0.58585 0.256228,3.65125 0.0014,4.2371 -0.112497,6.06077 -0.25358,4.05258 -0.141084,-2.00821 -0.142144,-5.47491 -0.0026,-7.70383 z m 65.300364,6.80283 c -0.237963,-0.38519 -0.099,-0.70037 0.30885,-0.70037 0.407926,0 0.741682,0.31518 0.741682,0.70037 0,0.38519 -0.138965,0.70033 -0.308848,0.70033 -0.169937,0 -0.503614,-0.31514 -0.741684,-0.70033 z m -10.422241,-0.38657 c -0.239287,-0.62326 -0.121762,-0.90436 0.275233,-0.65902 0.380794,0.23532 0.692343,0.72446 0.692343,1.08691 0,1.0074 -0.502,0.78541 -0.967576,-0.42789 z m 7.460351,-0.0365 c 0.23267,-0.23266 0.83679,-0.25755 1.342336,-0.0553 0.558698,0.22367 0.392732,0.38951 -0.42312,0.42312 -0.738269,0.0305 -1.151912,-0.13526 -0.919216,-0.36785 z m -5.792437,-0.27724 c 0,-0.38519 0.138965,-0.70034 0.30885,-0.70034 0.169935,0 0.503614,0.31515 0.741683,0.70034 0.237963,0.38519 0.099,0.70037 -0.30885,0.70037 -0.407926,0 -0.741683,-0.31518 -0.741683,-0.70037 z m -7.286313,-0.42725 c -0.299664,-0.78089 -0.119379,-0.87624 0.743484,-0.39332 0.62646,0.35057 1.724559,0.4843 2.440224,0.29715 0.715663,-0.18714 1.301227,-0.0363 1.301227,0.33516 0,1.11264 -4.049057,0.89686 -4.484935,-0.23902 z m -3.182093,-0.20397 c -0.601657,-1.12423 -0.503852,-1.2773 0.627255,-0.9815 1.624478,0.42481 2.513889,2.31347 1.08947,2.31347 -0.552133,0 -1.324655,-0.59938 -1.716725,-1.33197 z m -2.113188,-0.0238 c -0.896851,-1.67581 -0.943145,-3.06494 -0.08444,-2.53422 0.352288,0.21785 0.773369,0.1575 0.935734,-0.13367 0.162261,-0.2913 0.190318,-0.11276 0.06247,0.39655 -0.128113,0.50938 0.09238,1.53362 0.489611,2.27611 0.473758,0.88523 0.481354,1.34996 0.02117,1.34996 -0.385189,0 -1.026605,-0.6096 -1.425346,-1.35465 z m -2.423892,0.18714 c -0.748909,-1.95162 0.69454,-2.50785 1.562802,-0.60222 0.64912,1.42462 0.61905,1.76986 -0.154053,1.76986 -0.528311,0 -1.162209,-0.52545 -1.408643,-1.16764 z m -1.369707,0.0808 c -0.239286,-0.62323 -0.12176,-0.90436 0.275234,-0.65899 0.380794,0.23532 0.692344,0.72443 0.692344,1.08689 0,1.00739 -0.502,0.78541 -0.967578,-0.4279 z m -6.359233,-0.14611 c -0.338788,-0.88288 -0.225788,-0.91395 0.657482,-0.18079 0.866992,0.71954 1.068559,0.70532 1.077268,-0.0759 0.008,-0.75499 0.156437,-0.73583 0.689618,0.0892 0.373409,0.57778 0.683741,0.7091 0.689643,0.2918 0.0053,-0.41729 0.453402,-0.7587 0.994471,-0.7587 0.541042,0 0.851373,0.34496 0.689564,0.76657 -0.460336,1.19967 -4.327863,1.09318 -4.798046,-0.13209 z m -5.979791,0.64949 c 0,-0.32099 0.45888,-0.58363 1.019722,-0.58363 0.560842,0 0.85741,0.26258 0.659019,0.58363 -0.198524,0.321 -0.657272,0.58364 -1.019723,0.58364 -0.36245,0 -0.659018,-0.26259 -0.659018,-0.58364 z m -2.10104,-0.11673 c 0,-0.38519 0.138967,-0.70034 0.30885,-0.70034 0.169936,0 0.503615,0.31515 0.741684,0.70034 0.237964,0.3852 0.099,0.70037 -0.30885,0.70037 -0.407926,0 -0.741684,-0.31517 -0.741684,-0.70037 z m 17.760516,-10.29029 c 0.832447,-0.83246 1.912654,0.90569 1.397393,2.24848 -0.463725,1.20845 -0.544617,1.19206 -1.183518,-0.23982 -0.377169,-0.84527 -0.473412,-1.74919 -0.213875,-2.00872 z m -39.874305,-3.10201 c -0.267133,-0.43225 -0.629716,-10.98685 -0.805714,-23.45465 l -0.319993,-22.66872 1.860508,-0.70738 c 1.170679,-0.44508 16.131405,-0.70733 40.351291,-0.70733 h 38.49078 l 0.5079289,1.57579 c 0.2793619,0.86667 0.4127693,11.73955 0.2964608,24.16198 l -0.2114921,22.58621 H -41.623439 c -28.697593,0 -39.977879,-0.2197 -40.327731,-0.7859 z m 63.414233,-0.45469 c 7.885376,-0.10457 14.6171734,-0.47018 14.959507,-0.81252 0.5034029,-0.50341 0.6554463,-13.71498 0.482121,-41.8937 l -0.01324,-2.27614 h -37.768679 c -33.814417,0 -37.886953,0.11833 -38.898336,1.12968 -0.998335,0.99832 -1.105934,3.55659 -0.925464,22.00357 0.112232,11.48066 0.467033,21.13609 0.788271,21.45656 0.569788,0.56838 32.64183,0.7735 61.376588,0.39255 z m -60.559969,-22.57123 v -20.66025 h 37.293447 37.2934728 v 20.68688 20.68689 l -37.2934728,-0.0267 -37.293447,-0.0267 v -20.66033 z m -34.704884,-16.56592 c -0.5083,-0.50833 0.91347,-0.87047 4.66125,-1.18726 8.88077,-0.75071 13.585486,-0.5852 13.585486,0.47795 0,0.51359 -0.236375,1.17668 -0.525241,1.47351 -0.769052,0.79026 -16.860995,0.0964 -17.721495,-0.7642 z m 36.255458,45.63036 c -0.0053,-1.92598 -0.141349,-2.63074 -0.302259,-1.56617 -0.160936,1.06459 -0.156701,2.64036 0.01059,3.50174 0.166231,0.86138 0.297944,-0.0106 0.292677,-1.93557 z"
       style="fill:#000000;stroke-width:0.70034707" />
    <g
       id="g5472"
       inkscape:export-xdpi="299.98199"
       inkscape:export-ydpi="299.98199">
      <path
         id="path5419"
         transform="matrix(0.26458333,0,0,0.26458333,0,-7.5138346e-6)"
         d="M 585.93555 420.06055 L 585.93555 437.27344 L 585.4375 561.24609 L 584.77539 658.73633 L 585.27344 760.53125 L 665.71484 760.86133 L 744.33594 760.36523 L 778.76367 755.40039 L 755.5918 711.86914 L 748.14258 710.04883 L 681.76953 709.2207 L 585.93555 709.55078 L 585.76953 662.875 L 659.09375 660.22656 L 661.57617 649.30273 L 630.79102 647.64844 L 594.21094 646.6543 L 591.39648 610.40625 L 713.71484 607.75781 L 714.04883 661.83398 L 743.3418 675.12305 L 776.94336 684.39258 L 870.79102 679.75781 L 873.77148 653.27539 L 874.26758 581.60547 L 872.44727 490.90234 L 869.96484 449.35742 L 799.45312 443.89453 L 772.9707 446.21094 L 758.4043 454.65234 L 742.01953 468.72266 L 742.01953 464.91602 L 743.67383 429.32812 L 734.4043 423.86719 L 705.60547 421.54883 L 585.93555 420.06055 z M 823.01953 700.125 L 808.03906 701.17969 L 800.78125 707.9668 L 805.46289 726.57617 L 836.47852 743.19531 L 854.73633 740.50391 L 854.73633 724.70312 L 838.58594 705.50977 L 823.01953 700.125 z "
         style="fill:#ffffff;fill-opacity:1;fill-rule:evenodd;stroke:none;stroke-width:0.99999994px;stroke-linecap:butt;stroke-linejoin:miter;stroke-opacity:1" />
      <g
         transform="matrix(-0.99999796,0,0,1,234.30113,-4.7761834)"
         id="g5413">
        <g
           transform="translate(9.495105,-30.9736)"
           id="g5045"
           clip-path="url(#clipPath5047)">
          <g
             id="g4963"
             transform="translate(-75.854812,96.297952)">
            <path
               sodipodi:nodetypes="cccscc"
               inkscape:connector-curvature="0"
               id="path4959"
               d="m 154.2,140.463 -13.764,-23.839 37.67101,-30.117998 c 5.14812,-2.972268 12.40254,-0.04552 16.20324,6.537486 3.8007,6.583005 2.70887,14.329242 -2.43925,17.301512 z"
               style="fill:#ffffff;fill-opacity:1;fill-rule:evenodd;stroke:#000000;stroke-width:1;stroke-linecap:butt;stroke-linejoin:miter;stroke-miterlimit:4;stroke-dasharray:none;stroke-opacity:1" />
            <path
               sodipodi:nodetypes="sssss"
               inkscape:connector-curvature="0"
               id="path4961"
               d="m 156.63964,123.16206 c 3.8007,6.583 2.70849,14.32867 -2.43964,17.30094 -5.14812,2.97227 -12.40302,0.0457 -16.20372,-6.53732 -3.80069,-6.583 -2.7084,-14.32941 2.43972,-17.30168 5.14812,-2.97227 12.40294,-0.0449 16.20364,6.53806 z"
               style="opacity:1;fill:#ffffff;fill-opacity:1;stroke:#000000;stroke-width:1;stroke-linecap:butt;stroke-miterlimit:4;stroke-dasharray:none;stroke-opacity:1" />
          </g>
          <g
             id="g4973"
             transform="translate(-75.854812,96.297952)">
            <path
               sodipodi:nodetypes="ccsssssccc"
               inkscape:connector-curvature="0"
               id="path4965"
               d="m 178.03069,115.83095 76.541,14.25454 c 2.23197,-1.05331 -0.21613,-3.40321 0.4518,-5.33045 0.49853,-1.43848 2.83503,-2.27645 6.54492,-2.23743 2.10799,0.0222 -0.17708,-1.17201 1.29143,-2.42638 1.69973,-1.45188 4.13994,-0.84281 4.95007,-2.1264 1.06595,-1.68893 -4.07374,-2.37217 -2.76885,-3.82502 2.46984,-2.74988 11.68893,-1.72081 6.92644,-6.13137 L 190.96454,93.006499 Z"
               style="fill:#ffffff;fill-opacity:1;fill-rule:evenodd;stroke:none;stroke-width:0.26458332px;stroke-linecap:butt;stroke-linejoin:miter;stroke-opacity:1" />
            <path
               sodipodi:nodetypes="cccc"
               inkscape:connector-curvature="0"
               id="path4967"
               d="M 271.9675,108.00844 132.74,82.200443 m -26.92527,20.380937 148.75696,27.50411"
               style="fill:#ffffff;fill-opacity:1;fill-rule:evenodd;stroke:#000000;stroke-width:1.10000002;stroke-linecap:round;stroke-linejoin:miter;stroke-miterlimit:4;stroke-dasharray:none;stroke-opacity:1" />
            <path
               sodipodi:nodetypes="cccsccccsccccscccscscssccccccc"
               inkscape:connector-curvature="0"
               id="path4969"
               d="m 106.01657,103.19182 c -0.38805,-0.0821 -1.06274,-0.22542 -1.4993,-0.31858 -1.50495,-0.32113 -0.79516,-1.12848 2.01057,-2.28688 2.71265,-1.119973 2.80778,-1.199193 2.91041,-2.423853 l 0.1061,-1.26603 2.8902,-0.29789 c 2.74121,-0.28252 2.89579,-0.34417 2.99861,-1.19587 0.0931,-0.7716 0.44853,-1.00787 2.52497,-1.67869 2.5521,-0.8245 3.01595,-1.22324 3.08086,-2.64838 0.13347,-2.93088 -0.31108,-2.63432 4.11577,-2.74558 l 3.96875,-0.0998 10e-4,-1.48775 c 0.002,-1.8056 0.98309,-3.53103 2.5531,-4.48827 1.43381,-0.8742 1.67892,-0.8774 1.67892,-0.0219 0,0.37498 -0.29239,0.77458 -0.64976,0.888 -0.35737,0.11343 -1.01755,0.59773 -1.46707,1.07622 -0.78809,0.83889 -0.9542,2.06368 -0.62195,4.58594 0.0877,0.66602 -0.13929,0.71112 -4.05219,0.80495 l -4.14514,0.0994 v 1.06466 c 0,1.91594 -0.87286,3.0262 -3.00682,3.82462 -1.07718,0.40303 -2.11132,0.73278 -2.29806,0.73278 -0.18675,0 -0.33955,0.37139 -0.33955,0.82532 0,0.99427 -1.21905,1.64199 -3.1034,1.64894 -2.2413,0.008 -2.84364,0.31199 -2.96235,1.49372 -0.0943,0.938763 -0.34091,1.162003 -1.9618,1.775823 -1.60291,0.60702 -1.77473,0.76 -1.26902,1.12979 0.32171,0.23524 0.47192,0.61054 0.33381,0.834 -0.25538,0.41322 -0.54023,0.441 -1.79696,0.17525 z"
               style="fill:#000000;stroke-width:0.35277778" />
            <path
               sodipodi:nodetypes="cssscccsccccscccccccccsccccc"
               style="fill:#000000;stroke-width:0.35277778"
               d="m 254.50347,129.90751 c 0,-0.26729 0.24095,-0.68595 0.53545,-0.93036 0.47482,-0.39406 0.45485,-0.58099 -0.17639,-1.65086 -0.39151,-0.66356 -0.71184,-1.55895 -0.71184,-1.98976 0,-1.83329 2.29845,-3.40564 4.99221,-3.41512 1.78547,-0.006 2.05305,-0.15853 2.78069,-1.5821 0.4668,-0.91323 0.85286,-1.12034 2.81592,-1.51064 2.77558,-0.55184 3.2962,-0.97807 2.17793,-1.78308 -2.408,-1.73345 -2.64837,-2.03211 -2.40762,-2.99136 0.34879,-1.38968 1.49695,-1.94599 4.77275,-2.31248 3.27314,-0.3662 4.23114,-0.91811 3.60958,-2.0795 -0.20757,-0.38786 -0.61727,-0.79725 -0.91043,-0.90975 -0.62653,-0.24042 -0.34118,-1.28958 0.35075,-1.28958 0.75376,0 1.98516,2.01801 1.86186,3.05119 -0.17848,1.49564 -1.55904,2.23862 -4.75906,2.56121 -1.5655,0.15782 -3.02558,0.39771 -3.24463,0.53309 -0.7458,0.46093 -0.4009,1.2851 0.84556,2.02053 1.56997,0.9263 2.08455,1.82431 1.58271,2.76201 -0.4331,0.80925 -1.44559,1.41835 -2.36239,1.42116 -0.3523,10e-4 -1.24469,0.16974 -1.98309,0.37478 -1.23348,0.34253 -1.33378,0.46416 -1.23472,1.49734 l 0.10782,1.12453 -2.83353,0.21102 c -3.05536,0.22754 -4.1661,0.63599 -4.76312,1.75153 -0.30046,0.56143 -0.2277,0.95947 0.3447,1.88563 0.8963,1.45026 0.92034,2.39258 0.0804,3.15269 -0.78493,0.71035 -1.47153,0.75602 -1.47153,0.0979 z"
               id="path4971"
               inkscape:connector-curvature="0" />
          </g>
          <g
             id="g4979"
             transform="translate(-75.854812,70.688901)">
            <path
               style="fill:#ffffff;fill-opacity:1;fill-rule:evenodd;stroke:#000000;stroke-width:1;stroke-linecap:butt;stroke-linejoin:miter;stroke-miterlimit:4;stroke-dasharray:none;stroke-opacity:1"
               d="m 154.2,140.463 -13.764,-23.839 37.67101,-30.117998 c 5.14812,-2.972268 12.40254,-0.04552 16.20324,6.537486 3.8007,6.583005 2.70887,14.329242 -2.43925,17.301512 z"
               id="path4975"
               inkscape:connector-curvature="0"
               sodipodi:nodetypes="cccscc" />
            <path
               style="opacity:1;fill:#ffffff;fill-opacity:1;stroke:#000000;stroke-width:1;stroke-linecap:butt;stroke-miterlimit:4;stroke-dasharray:none;stroke-opacity:1"
               d="m 156.63964,123.16206 c 3.8007,6.583 2.70849,14.32867 -2.43964,17.30094 -5.14812,2.97227 -12.40302,0.0457 -16.20372,-6.53732 -3.80069,-6.583 -2.7084,-14.32941 2.43972,-17.30168 5.14812,-2.97227 12.40294,-0.0449 16.20364,6.53806 z"
               id="path4977"
               inkscape:connector-curvature="0"
               sodipodi:nodetypes="sssss" />
          </g>
          <g
             transform="translate(-75.854812,45.106197)"
             id="g4985"
             style="opacity:1">
            <path
               sodipodi:nodetypes="cccscc"
               inkscape:connector-curvature="0"
               id="path4981"
               d="m 154.2,140.463 -13.764,-23.839 37.67101,-30.117998 c 5.14812,-2.972268 12.40254,-0.04552 16.20324,6.537486 3.8007,6.583005 2.70887,14.329242 -2.43925,17.301512 z"
               style="fill:#ffffff;fill-opacity:1;fill-rule:evenodd;stroke:#000000;stroke-width:1;stroke-linecap:butt;stroke-linejoin:miter;stroke-miterlimit:4;stroke-dasharray:none;stroke-opacity:1" />
            <path
               sodipodi:nodetypes="sssss"
               inkscape:connector-curvature="0"
               id="path4983"
               d="m 156.63964,123.16206 c 3.8007,6.583 2.70849,14.32867 -2.43964,17.30094 -5.14812,2.97227 -12.40302,0.0457 -16.20372,-6.53732 -3.80069,-6.583 -2.7084,-14.32941 2.43972,-17.30168 5.14812,-2.97227 12.40294,-0.0449 16.20364,6.53806 z"
               style="opacity:1;fill:#ffffff;fill-opacity:1;stroke:#000000;stroke-width:1;stroke-linecap:butt;stroke-miterlimit:4;stroke-dasharray:none;stroke-opacity:1" />
          </g>
          <path
             inkscape:connector-curvature="0"
             id="path4987"
             d="m 98.307699,192.4385 c 1.300274,-2.27478 -0.0516,-5.54371 -1.2553,-7.43727 -1.88188,-2.93263 -5.0397,-4.77567 -7.14701,-4.1713 -0.5759,0.16516 -1.27277,0.174 -1.5486,0.0196 -0.37928,-0.21226 -0.031,-0.68264 1.42898,-1.92994 1.86944,-1.59711 2.80272,-1.98635 3.20437,-1.33647 0.10633,0.17204 -0.043,0.50898 -0.33195,0.74875 -0.91638,0.76053 -0.58958,1.27401 2.09838,3.29714 l 2.62368,1.97473 1.962442,-1.5986 c 2.248259,-1.83141 2.352539,-2.29474 1.114799,-4.95295 -1.011959,-2.17335 -2.126371,-3.08925 -3.115021,-2.56014 -0.37322,0.19974 -0.89169,0.28138 -1.15217,0.18143 -0.6602,-0.25334 -0.4246,-1.38236 0.311,-1.49032 l 3.992711,-3.02705 c 0.74316,-0.61677 1.34075,0.13805 0.79771,1.0076 -0.3523,0.56411 -0.24365,1.09476 0.64049,3.1284 1.48011,3.40444 1.96747,5.94091 1.768,9.20163 -0.21175,3.46168 -1.11263,5.45022 -3.561,7.86039 -1.741211,1.71404 -3.163201,2.55598 -1.831371,1.08433 z m 2.923001,-5.29036 c 0.0894,-0.48507 0.23678,-1.89908 0.32745,-3.14224 l 0.16488,-2.26029 -1.53187,1.17654 c -0.842519,0.64709 -1.671051,1.29541 -1.841171,1.44071 -0.17013,0.1453 0.0213,0.79907 0.4253,1.45283 0.404042,0.65375 0.844834,1.87787 0.979544,2.72027 l 0.24492,1.53164 0.534177,-1.01876 c 0.2938,-0.56032 0.60734,-1.41563 0.69677,-1.9007 z"
             style="fill:#000000;stroke-width:0.35277778"
             sodipodi:nodetypes="ccccccccccccccccscscccccsccccsc" />
          <path
             style="fill:#000000;stroke-width:0.35277778"
             d="m 170.82985,216.36362 c 0,-0.51572 -1.4304,-1.39706 -6.15496,-3.79236 -3.38523,-1.71628 -6.0309,-3.24502 -5.87926,-3.39721 0.15164,-0.15219 4.67461,-0.42954 10.05105,-0.61633 7.70911,-0.26784 10.00269,-0.45719 10.85093,-0.89583 0.59157,-0.30592 1.17821,-0.45359 1.30363,-0.32817 0.26479,0.26478 -3.70766,4.05732 -4.24979,4.05732 -0.23494,0 -0.22455,-0.16747 0.0294,-0.47343 0.62903,-0.75796 0.10006,-0.93768 -2.75985,-0.93768 h -2.68849 l -1.68501,1.71073 -1.68501,1.71073 1.76367,0.75871 c 2.0639,0.88787 2.45715,0.9133 3.37599,0.21833 1.43059,-1.08205 1.33914,-0.4535 -0.15562,1.06955 -1.71537,1.74784 -2.11667,1.92143 -2.11667,0.91564 z m -2.33179,-4.81372 c 0.7548,-0.67974 1.31002,-1.29823 1.23381,-1.37444 -0.0762,-0.0762 -1.79091,-0.0475 -3.81045,0.0638 l -3.67189,0.20233 2.26169,1.16317 c 1.24393,0.63975 2.34107,1.1672 2.43808,1.17211 0.097,0.005 0.79395,-0.54721 1.54876,-1.22695 z m -24.95143,0.25936 c 0.13733,-0.52514 -0.94583,-1.20097 -6.03024,-3.76251 -5.8895,-2.96714 -6.98533,-3.69799 -5.58029,-3.72168 0.33955,-0.006 4.8563,-0.15645 10.03721,-0.33495 7.5356,-0.25962 9.6415,-0.43916 10.52793,-0.89754 0.60944,-0.31516 1.18075,-0.50034 1.26957,-0.41151 0.20264,0.20264 -3.6936,4.12386 -4.0976,4.12386 -0.16321,0 -0.21372,-0.3175 -0.11224,-0.70556 0.17302,-0.66161 0.0108,-0.70555 -2.60393,-0.70555 h -2.78843 l -1.69218,1.71801 -1.69219,1.71802 1.55224,0.75143 c 1.86114,0.90096 2.48929,0.93235 3.63495,0.18168 1.30333,-0.85397 1.04752,-0.10003 -0.46825,1.38009 -1.45106,1.41692 -2.22146,1.67924 -1.95655,0.66621 z m -2.15712,-5.05029 1.39451,-1.45708 -1.41111,0.21847 c -0.77611,0.12016 -2.60174,0.22792 -4.05694,0.23947 l -2.64584,0.021 2.29306,1.20049 c 1.26118,0.66026 2.45927,1.20818 2.66243,1.2176 0.20316,0.009 0.99691,-0.63857 1.76389,-1.43995 z m -25.37332,-0.11602 c 0.24761,-0.64525 -0.74825,-1.27256 -7.09884,-4.4717 -2.71639,-1.36839 -4.93889,-2.67155 -4.93889,-2.89591 0,-0.29258 2.7786,-0.48308 9.82714,-0.67376 7.94307,-0.21488 10.05907,-0.37592 11.03692,-0.83993 0.66538,-0.31575 1.28643,-0.49744 1.3801,-0.40377 0.21393,0.21392 -3.73337,4.15538 -4.16154,4.15538 -0.17318,0 -0.21411,-0.3175 -0.0909,-0.70556 0.21073,-0.66393 0.0634,-0.70555 -2.49728,-0.70555 h -2.72122 l -1.69828,1.58854 -1.69827,1.58854 0.79547,0.52122 c 1.68816,1.10612 3.00413,1.35643 3.93265,0.74804 1.64232,-1.07609 1.73471,-0.5596 0.18276,1.02171 -1.52996,1.55892 -2.63931,2.08788 -2.24977,1.07275 z m -2.15995,-5.12969 1.37792,-1.41111 -1.39452,0.002 c -0.76698,0.001 -2.49022,0.10596 -3.82943,0.23241 l -2.43492,0.22991 2.25853,1.16158 c 1.24219,0.63887 2.34538,1.16928 2.45152,1.1787 0.10614,0.01 0.81305,-0.61785 1.5709,-1.39396 z"
             id="path4989"
             inkscape:connector-curvature="0"
             sodipodi:nodetypes="ccssccscscccccccccscccccccscsccscsccccccccccsccccccssccscsccccsccccccsccccc" />
          <g
             id="g5015">
            <g
               transform="translate(-10.06538,-2.4467964)"
               id="g4995"
               style="opacity:1">
              <path
                 sodipodi:nodetypes="csssc"
                 inkscape:connector-curvature="0"
                 id="path4991"
                 d="m 71.094,156.56 37.6822,-30.17258 c 0.85426,-0.68402 2.28336,-0.008 2.98306,1.20365 0.6997,1.21191 0.40515,2.50105 -0.44913,3.18506 L 73.628,160.948"
                 style="opacity:1;fill:#ffffff;fill-opacity:1;stroke:#000000;stroke-width:1;stroke-linecap:butt;stroke-miterlimit:4;stroke-dasharray:none;stroke-opacity:1" />
              <path
                 style="opacity:1;fill:#ffffff;fill-opacity:1;stroke:#000000;stroke-width:1;stroke-linecap:butt;stroke-miterlimit:4;stroke-dasharray:none;stroke-opacity:1"
                 d="m 74.077022,157.76338 c 0.699701,1.21191 0.498737,2.63743 -0.449022,3.18462 -0.947758,0.54719 -2.283479,0.008 -2.98318,-1.20306 -0.699698,-1.21192 -0.498578,-2.63775 0.44918,-3.18494 0.947757,-0.54718 2.283322,-0.008 2.983022,1.20338 z"
                 id="path4993"
                 inkscape:connector-curvature="0"
                 sodipodi:nodetypes="sssss" />
            </g>
            <g
               style="opacity:1"
               id="g5001"
               transform="translate(-6.8115053,-5.0929244)">
              <path
                 style="opacity:1;fill:#ffffff;fill-opacity:1;stroke:#000000;stroke-width:1;stroke-linecap:butt;stroke-miterlimit:4;stroke-dasharray:none;stroke-opacity:1"
                 d="m 71.094,156.56 37.6822,-30.17258 c 0.85426,-0.68402 2.28336,-0.008 2.98306,1.20365 0.6997,1.21191 0.40515,2.50105 -0.44913,3.18506 L 73.628,160.948"
                 id="path4997"
                 inkscape:connector-curvature="0"
                 sodipodi:nodetypes="csssc" />
              <path
                 sodipodi:nodetypes="sssss"
                 inkscape:connector-curvature="0"
                 id="path4999"
                 d="m 74.077022,157.76338 c 0.699701,1.21191 0.498737,2.63743 -0.449022,3.18462 -0.947758,0.54719 -2.283479,0.008 -2.98318,-1.20306 -0.699698,-1.21192 -0.498578,-2.63775 0.44918,-3.18494 0.947757,-0.54718 2.283322,-0.008 2.983022,1.20338 z"
                 style="opacity:1;fill:#ffffff;fill-opacity:1;stroke:#000000;stroke-width:1;stroke-linecap:butt;stroke-miterlimit:4;stroke-dasharray:none;stroke-opacity:1" />
            </g>
            <g
               style="opacity:1"
               id="g5007">
              <path
                 style="opacity:1;fill:#ffffff;fill-opacity:1;stroke:#000000;stroke-width:1;stroke-linecap:butt;stroke-miterlimit:4;stroke-dasharray:none;stroke-opacity:1"
                 d="m 71.094,156.56 37.6822,-30.17258 c 0.85426,-0.68402 2.28336,-0.008 2.98306,1.20365 0.6997,1.21191 0.40515,2.50105 -0.44913,3.18506 L 73.628,160.948"
                 id="path5003"
                 inkscape:connector-curvature="0"
                 sodipodi:nodetypes="csssc" />
              <path
                 sodipodi:nodetypes="sssss"
                 inkscape:connector-curvature="0"
                 id="path5005"
                 d="m 74.077022,157.76338 c 0.699701,1.21191 0.498737,2.63743 -0.449022,3.18462 -0.947758,0.54719 -2.283479,0.008 -2.98318,-1.20306 -0.699698,-1.21192 -0.498578,-2.63775 0.44918,-3.18494 0.947757,-0.54718 2.283322,-0.008 2.983022,1.20338 z"
                 style="opacity:1;fill:#ffffff;fill-opacity:1;stroke:#000000;stroke-width:1;stroke-linecap:butt;stroke-miterlimit:4;stroke-dasharray:none;stroke-opacity:1" />
            </g>
            <g
               transform="translate(-2.534,-4.388)"
               id="g5013"
               style="opacity:1">
              <path
                 sodipodi:nodetypes="csssc"
                 inkscape:connector-curvature="0"
                 id="path5009"
                 d="m 71.094,156.56 37.6822,-30.17258 c 0.85426,-0.68402 2.28336,-0.008 2.98306,1.20365 0.6997,1.21191 0.40515,2.50105 -0.44913,3.18506 L 73.628,160.948"
                 style="opacity:1;fill:#ffffff;fill-opacity:1;stroke:#000000;stroke-width:1;stroke-linecap:butt;stroke-miterlimit:4;stroke-dasharray:none;stroke-opacity:1" />
              <path
                 style="opacity:1;fill:#ffffff;fill-opacity:1;stroke:#000000;stroke-width:1;stroke-linecap:butt;stroke-miterlimit:4;stroke-dasharray:none;stroke-opacity:1"
                 d="m 74.077022,157.76338 c 0.699701,1.21191 0.498737,2.63743 -0.449022,3.18462 -0.947758,0.54719 -2.283479,0.008 -2.98318,-1.20306 -0.699698,-1.21192 -0.498578,-2.63775 0.44918,-3.18494 0.947757,-0.54718 2.283322,-0.008 2.983022,1.20338 z"
                 id="path5011"
                 inkscape:connector-curvature="0"
                 sodipodi:nodetypes="sssss" />
            </g>
          </g>
          <g
             id="g5041"
             transform="translate(20.620316,11.793399)">
            <g
               style="opacity:1"
               id="g5021"
               transform="translate(-10.06538,-2.4467964)">
              <path
                 style="opacity:1;fill:#ffffff;fill-opacity:1;stroke:#000000;stroke-width:1;stroke-linecap:butt;stroke-miterlimit:4;stroke-dasharray:none;stroke-opacity:1"
                 d="m 71.094,156.56 37.6822,-30.17258 c 0.85426,-0.68402 2.28336,-0.008 2.98306,1.20365 0.6997,1.21191 0.40515,2.50105 -0.44913,3.18506 L 73.628,160.948"
                 id="path5017"
                 inkscape:connector-curvature="0"
                 sodipodi:nodetypes="csssc" />
              <path
                 sodipodi:nodetypes="sssss"
                 inkscape:connector-curvature="0"
                 id="path5019"
                 d="m 74.077022,157.76338 c 0.699701,1.21191 0.498737,2.63743 -0.449022,3.18462 -0.947758,0.54719 -2.283479,0.008 -2.98318,-1.20306 -0.699698,-1.21192 -0.498578,-2.63775 0.44918,-3.18494 0.947757,-0.54718 2.283322,-0.008 2.983022,1.20338 z"
                 style="opacity:1;fill:#ffffff;fill-opacity:1;stroke:#000000;stroke-width:1;stroke-linecap:butt;stroke-miterlimit:4;stroke-dasharray:none;stroke-opacity:1" />
            </g>
            <g
               transform="translate(-6.8115053,-5.0929244)"
               id="g5027"
               style="opacity:1">
              <path
                 sodipodi:nodetypes="csssc"
                 inkscape:connector-curvature="0"
                 id="path5023"
                 d="m 71.094,156.56 37.6822,-30.17258 c 0.85426,-0.68402 2.28336,-0.008 2.98306,1.20365 0.6997,1.21191 0.40515,2.50105 -0.44913,3.18506 L 73.628,160.948"
                 style="opacity:1;fill:#ffffff;fill-opacity:1;stroke:#000000;stroke-width:1;stroke-linecap:butt;stroke-miterlimit:4;stroke-dasharray:none;stroke-opacity:1" />
              <path
                 style="opacity:1;fill:#ffffff;fill-opacity:1;stroke:#000000;stroke-width:1;stroke-linecap:butt;stroke-miterlimit:4;stroke-dasharray:none;stroke-opacity:1"
                 d="m 74.077022,157.76338 c 0.699701,1.21191 0.498737,2.63743 -0.449022,3.18462 -0.947758,0.54719 -2.283479,0.008 -2.98318,-1.20306 -0.699698,-1.21192 -0.498578,-2.63775 0.44918,-3.18494 0.947757,-0.54718 2.283322,-0.008 2.983022,1.20338 z"
                 id="path5025"
                 inkscape:connector-curvature="0"
                 sodipodi:nodetypes="sssss" />
            </g>
            <g
               id="g5033"
               style="opacity:1">
              <path
                 sodipodi:nodetypes="csssc"
                 inkscape:connector-curvature="0"
                 id="path5029"
                 d="m 71.094,156.56 37.6822,-30.17258 c 0.85426,-0.68402 2.28336,-0.008 2.98306,1.20365 0.6997,1.21191 0.40515,2.50105 -0.44913,3.18506 L 73.628,160.948"
                 style="opacity:1;fill:#ffffff;fill-opacity:1;stroke:#000000;stroke-width:1;stroke-linecap:butt;stroke-miterlimit:4;stroke-dasharray:none;stroke-opacity:1" />
              <path
                 style="opacity:1;fill:#ffffff;fill-opacity:1;stroke:#000000;stroke-width:1;stroke-linecap:butt;stroke-miterlimit:4;stroke-dasharray:none;stroke-opacity:1"
                 d="m 74.077022,157.76338 c 0.699701,1.21191 0.498737,2.63743 -0.449022,3.18462 -0.947758,0.54719 -2.283479,0.008 -2.98318,-1.20306 -0.699698,-1.21192 -0.498578,-2.63775 0.44918,-3.18494 0.947757,-0.54718 2.283322,-0.008 2.983022,1.20338 z"
                 id="path5031"
                 inkscape:connector-curvature="0"
                 sodipodi:nodetypes="sssss" />
            </g>
            <g
               style="opacity:1"
               id="g5039"
               transform="translate(-2.534,-4.388)">
              <path
                 style="opacity:1;fill:#ffffff;fill-opacity:1;stroke:#000000;stroke-width:1;stroke-linecap:butt;stroke-miterlimit:4;stroke-dasharray:none;stroke-opacity:1"
                 d="m 71.094,156.56 37.6822,-30.17258 c 0.85426,-0.68402 2.28336,-0.008 2.98306,1.20365 0.6997,1.21191 0.40515,2.50105 -0.44913,3.18506 L 73.628,160.948"
                 id="path5035"
                 inkscape:connector-curvature="0"
                 sodipodi:nodetypes="csssc" />
              <path
                 sodipodi:nodetypes="sssss"
                 inkscape:connector-curvature="0"
                 id="path5037"
                 d="m 74.077022,157.76338 c 0.699701,1.21191 0.498737,2.63743 -0.449022,3.18462 -0.947758,0.54719 -2.283479,0.008 -2.98318,-1.20306 -0.699698,-1.21192 -0.498578,-2.63775 0.44918,-3.18494 0.947757,-0.54718 2.283322,-0.008 2.983022,1.20338 z"
                 style="opacity:1;fill:#ffffff;fill-opacity:1;stroke:#000000;stroke-width:1;stroke-linecap:butt;stroke-miterlimit:4;stroke-dasharray:none;stroke-opacity:1" />
            </g>
          </g>
          <path
             style="fill:#000000;stroke-width:0.35277778"
             d="m 91.440001,154.21093 c -1.11566,-1.0891 -2.02847,-2.08471 -2.02847,-2.21246 0,-0.31816 1.83104,0.0295 4.64762,0.88238 1.60812,0.48696 2.29846,0.8592 2.17758,1.17419 -0.26573,0.6925 -1.07946,0.88957 -2.08873,0.50585 -1.45991,-0.55506 -1.7371,-0.39892 -0.89088,0.50184 0.43647,0.4646 0.66258,0.90855 0.50247,0.98656 -0.16011,0.078 -1.20393,-0.74926 -2.31959,-1.83836 z"
             id="path5043"
             inkscape:connector-curvature="0" />
        </g>
        <path
           sodipodi:nodetypes="cscsccccsccccscccccccsscccccccccsccsccccssccccccccsccccccscccccccccccscccsccccccccccccsssssssssscssscsssssssscscscsccsssccssscccscccccsscccscssssccccscccccccccccccccscccccsscsccccccccccccccccccccccscccccscccccccccccccccccccscccccccccccccccssccccsccccscsssssscsscccccssssscccccsssscccccsccssssscccccccscccccccsssccccscccssscccsccccccsscsscccsccccsccccccsccccsccccsccccccscccsscsssscssccccccsccsccscscccccscccccccccccccccccsccccccc"
           style="fill:#000000;stroke-width:0.70034796"
           d="m -42.708329,296.87996 c 24.119961,-0.13156 42.26407604,-0.50171 42.63216452,-0.8698 0.82998658,-0.82999 -5.35245592,-12.23759 -7.41535242,-13.68252 -1.3313785,-0.93255 -6.5924871,-1.0732 -40.1370701,-1.0732 -35.904946,0 -38.677313,0.0858 -39.640919,1.22561 -2.911175,3.44386 -8.363475,12.98356 -7.763484,13.58358 0.983194,0.98317 6.355476,1.067 52.324661,0.81633 z m -44.0911,-3.8347 c -0.727946,-0.72845 0.976549,-3.38663 2.171581,-3.38663 0.769424,0 0.955136,0.44591 0.656292,1.57578 l -0.416794,1.57578 1.155354,-1.57578 c 1.30639,-1.78175 3.46831,-2.18268 2.832321,-0.52527 -0.221817,0.57781 -0.128644,1.05054 0.206729,1.05054 0.335398,0 0.939439,-0.94548 1.342283,-2.10105 0.43294,-1.24197 1.248447,-2.12366 1.994446,-2.15635 0.734695,-0.0323 0.89624,-0.20302 0.386617,-0.40853 -1.658703,-0.66929 -0.870379,-1.6374 1.400702,-1.72007 l 2.276111,-0.0829 -2.10104,-0.53461 c -3.140667,-0.79918 -9.310934,-0.79918 -9.804834,0 -0.266788,0.43164 0.926523,0.70034 3.110202,0.70034 1.948705,0 3.543086,0.26888 3.543086,0.59755 0,0.32863 -1.534189,0.45013 -3.409335,0.26994 l -3.409309,-0.32759 -1.66818,3.52524 c -1.112816,2.35161 -2.220339,3.67206 -3.326616,3.96623 -0.91215,0.24246 -1.814637,0.28478 -2.005538,0.094 -0.190846,-0.19085 1.028114,-2.71682 2.708945,-5.61316 l 3.056043,-5.26602 38.594596,-0.0238 38.594596,-0.0238 2.4580638,4.027 c 1.3519444,2.21487 2.8298843,4.74335 3.2843445,5.61884 l 0.8262816,1.59185 -41.9959899,-0.19111 c -23.097804,-0.10509 -42.205234,-0.40051 -42.460958,-0.65643 z m 67.932334,-0.41319 c 1.884464,-0.41439 2.744256,-1.30896 1.811884,-1.88521 -0.418752,-0.25888 -0.761377,-0.13685 -0.761377,0.27113 0,0.40793 -0.333758,0.74169 -0.741657,0.74169 -0.407927,0 -0.560181,-0.29372 -0.338312,-0.6527 0.221817,-0.35896 -0.468647,-0.78448 -1.534453,-0.94559 -1.065806,-0.1612 -0.147701,-0.34011 2.04045,-0.39784 3.608521,-0.095 4.006495,0.0415 4.281806,1.47086 0.291883,1.51545 0.307156,1.51857 0.398874,0.0818 0.149819,-2.34749 2.67382,-2.60046 3.566752,-0.35751 l 0.737156,1.8516 -0.256227,-1.92595 c -0.1408194,-1.05926 0.07543,-1.92595 0.4807971,-1.92595 0.4054113,0 0.1252025,-0.46272 -0.6223575,-1.02824 -1.3321986,-1.00764 -1.3325416,-1.02871 -0.01588,-1.05055 0.738295,-0.0132 1.1604882,-0.20408 0.9382221,-0.42637 -0.2223461,-0.22235 -8.2324757,-0.40126 -17.8004587,-0.39776 -22.589663,0.008 -22.09976,-0.0106 -21.617348,0.77127 0.227641,0.36838 0.876574,0.49224 1.442022,0.27527 0.565447,-0.21706 1.028086,-0.008 1.028086,0.46242 0,0.50548 -0.561372,0.71016 -1.368594,0.49907 -0.933191,-0.24405 -1.730832,0.19482 -2.507192,1.37977 -0.626195,0.95572 -0.963209,1.91303 -0.748909,2.12734 0.214404,0.2144 0.572727,-0.0873 0.796475,-0.67052 0.282698,-0.73671 1.486359,-1.08449 3.945111,-1.13987 2.952996,-0.0664 3.404121,0.0818 2.727208,0.89756 -0.617354,0.74386 -0.606395,1.1038 0.04579,1.50693 0.92443,0.57133 21.761026,0.97595 24.073374,0.46747 z m -14.532206,-1.33623 c 0.481511,-0.19428 1.269386,-0.19428 1.750871,0 0.481485,0.19429 0.08761,0.35325 -0.875436,0.35325 -0.962971,0 -1.356921,-0.15909 -0.875435,-0.35325 z m 3.23273,-1.42653 c 0.498214,-0.49825 6.856415,-0.32495 7.3892,0.20143 0.160406,0.15856 -1.546603,0.28828 -3.793544,0.28828 -2.246942,0 -3.864987,-0.22023 -3.595656,-0.48966 z m -6.043742,-0.003 c 0.861379,-0.16623 2.437179,-0.17047 3.501741,-0.0106 1.064562,0.16095 0.359804,0.29697 -1.566138,0.30224 -1.925969,0.005 -2.796984,-0.12652 -1.935603,-0.29268 z m -4.906123,0.0336 c 0.474153,-0.1919 1.419628,-0.20354 2.10104,-0.0265 0.681411,0.17761 0.29347,0.33452 -0.862095,0.34879 -1.155566,0.0132 -1.713098,-0.13103 -1.238945,-0.32285 z m 26.801588,-2.34181 c 0,-0.38519 0.630326,-0.70034 1.400702,-0.70034 0.770377,0 1.400677,0.31515 1.400677,0.70034 0,0.38519 -0.6303,0.70034 -1.400677,0.70034 -0.770376,0 -1.400702,-0.31515 -1.400702,-0.70034 z m -3.50174,0 c 0,-0.38519 0.630325,-0.70034 1.400702,-0.70034 0.770377,0 1.400701,0.31515 1.400701,0.70034 0,0.38519 -0.630324,0.70034 -1.400701,0.70034 -0.770377,0 -1.400702,-0.31515 -1.400702,-0.70034 z m -3.851884,0 c 0.237963,-0.38519 1.044524,-0.70034 1.79219,-0.70034 0.747639,0 1.359356,0.31515 1.359356,0.70034 0,0.38519 -0.806482,0.70034 -1.79219,0.70034 -1.016466,0 -1.604863,-0.30314 -1.359356,-0.70034 z m -3.851911,0 c 0,-0.38519 0.630299,-0.70034 1.400676,-0.70034 0.770402,0 1.400702,0.31515 1.400702,0.70034 0,0.38519 -0.6303,0.70034 -1.400702,0.70034 -0.770377,0 -1.400676,-0.31515 -1.400676,-0.70034 z m -7.003483,-0.0305 c 0,-0.30425 1.418198,-0.55317 3.151572,-0.55317 1.733348,0 3.151546,0.27741 3.151546,0.61644 0,0.33902 -1.418198,0.58794 -3.151546,0.55316 -1.733374,-0.0347 -3.151572,-0.31218 -3.151572,-0.61643 z m -3.851884,0.0305 c 0.237964,-0.38519 1.063133,-0.70034 1.83351,-0.70034 0.770376,0 1.205937,0.31515 0.967868,0.70034 -0.237963,0.38519 -1.06316,0.70034 -1.833537,0.70034 -0.770376,0 -1.20591,-0.31515 -0.967841,-0.70034 z m -4.202079,0 c 0.237964,-0.38519 1.044524,-0.70034 1.79219,-0.70034 0.747639,0 1.359357,0.31515 1.359357,0.70034 0,0.38519 -0.806482,0.70034 -1.792191,0.70034 -1.016466,0 -1.604863,-0.30314 -1.359356,-0.70034 z m -4.202079,0 c 0.237963,-0.38519 1.044525,-0.70034 1.79219,-0.70034 0.747639,0 1.359356,0.31515 1.359356,0.70034 0,0.38519 -0.806482,0.70034 -1.79219,0.70034 -1.016466,0 -1.604863,-0.30314 -1.359356,-0.70034 z m -16.217511,4.3772 c 0.177877,-0.2889 0.528628,-2.10105 0.779588,-4.02703 0.554542,-4.25586 -0.616746,-2.89183 -1.353109,1.57578 -0.452104,2.74297 -0.21917,3.7389 0.573521,2.45125 z m -13.617251,-2.69636 c 0.494429,-1.36733 0.743854,-2.64114 0.554277,-2.83072 -0.189524,-0.18953 -0.722625,0.8006 -1.184602,2.20039 -1.094473,3.31633 -0.541069,3.86974 0.630325,0.63033 z m 21.780772,-0.28013 c 0,-0.90742 -0.4669,-1.40071 -1.325765,-1.40071 -0.72919,0 -1.507164,-0.47273 -1.728901,-1.05053 -0.622041,-1.62107 -1.807622,-1.24732 -2.592584,0.81733 -0.853889,2.24589 -0.0053,3.00796 3.371113,3.02387 1.81281,0.008 2.276137,-0.27439 2.276137,-1.38996 z m -3.326644,0.25887 c -1.540145,-0.41274 -2.262479,-2.35997 -0.875435,-2.35997 0.385189,0 0.700338,0.31514 0.700338,0.70034 0,0.38518 0.630325,0.70034 1.400702,0.70034 0.770377,0 1.400675,0.31518 1.400675,0.70036 0,0.80424 -0.432384,0.84689 -2.62628,0.25888 z m 34.316971,-4.98516 c -6.644551,-0.11513 -17.517415,-0.11513 -24.161968,0 -6.644526,0.11515 -1.208081,0.20939 12.080998,0.20939 13.289078,0 18.725497,-0.0943 12.08097,-0.20939 z m -63.206285,3.92134 c 0,-0.93934 2.32545,-1.67351 2.608757,-0.82362 0.132879,0.39851 1.065251,0.56712 2.072028,0.37466 1.204032,-0.23029 1.670218,-0.0905 1.362189,0.40785 -0.564442,0.91329 -6.042974,0.95053 -6.042974,0.041 z m -18.414134,4.33087 c 1.70992,-0.72702 4.442319,-4.7218 5.663715,-8.28037 0.684033,-1.99291 0.605471,-2.48816 -0.583156,-3.67682 -2.020469,-2.02048 -8.085909,-1.90234 -11.233409,0.2189 -5.13408,3.45988 -7.29711,9.68312 -3.82446,11.00341 2.74333,1.04302 8.29158,1.45173 9.97731,0.73501 z m -8.87876,-6.37715 c 0.97306,-2.34918 4.45561,-5.55302 6.03609,-5.55302 0.90347,0 0.89524,0.15167 -0.0601,1.10697 -0.60883,0.60886 -0.89841,1.44449 -0.64345,1.85697 0.30072,0.48662 0.7605,0.34382 1.30925,-0.40663 0.46515,-0.63615 1.4413,-1.16663 2.16922,-1.17889 1.28204,-0.0212 1.2809,-0.0545 -0.036,-1.05053 -1.23203,-0.93185 -1.24413,-1.02825 -0.12917,-1.02825 1.7423,0 3.939738,1.29197 3.939738,2.3163 0,0.47645 -0.968428,2.04117 -2.152018,3.4771 -2.04297,2.47846 -2.36246,2.61079 -6.30312,2.61079 -2.82451,0 -4.16878,0.27979 -4.2064,0.87544 -0.0418,0.66352 -0.14373,0.65492 -0.42039,-0.0355 -0.2009,-0.50105 0.0238,-1.84686 0.49631,-2.99065 z m 20.996419,-10.35006 c 1.351839,-0.29177 5.527633,-1.71996 9.279595,-3.17373 l 6.821741,-2.6432 -0.04923,-4.32284 c -0.117157,-10.50765 -1.315723,-15.05921 -1.302234,-1.81401 l -0.04923,5.31022 -2.423098,0.74366 -2.423098,0.74368 -0.237434,-5.35354 -0.237434,-5.35351 -0.140819,5.4277 c -0.07756,2.98526 -0.377327,5.42837 -0.666218,5.4292 -0.288891,6.8e-4 -0.495885,-3.38715 -0.459993,-7.52876 l 0.06538,-7.53024 -0.415444,6.65332 -0.415417,6.65331 -0.567486,-9.70431 c -0.312131,-5.33736 -0.390905,-9.88087 -0.174964,-10.09671 0.215728,-0.21573 0.392387,0.9097 0.392387,2.50109 0,2.17672 0.346993,3.07919 1.400702,3.64313 0.770377,0.4123 1.422857,1.29006 1.449909,1.95059 0.0413,1.01005 0.15432,0.97828 0.710899,-0.19984 0.445831,-0.94381 0.567963,0.88364 0.374389,5.6028 -0.165966,4.04891 -0.04368,6.41258 0.290401,5.60281 0.317743,-0.77039 0.599831,-3.89219 0.62691,-6.93736 l 0.04923,-5.53664 9.979931,0.45656 c 5.48896,0.2516 13.289078,0.45767 17.333583,0.45858 l 7.353651,10e-4 -0.234257,3.75714 -0.234258,3.75717 -4.668053,0.44093 c -2.567464,0.24246 -6.49034,0.44315 -8.717561,0.44591 -6.570649,0.008 -11.885148,3.24558 -7.331153,4.46601 0.866674,0.23214 11.679319,0.42658 24.028085,0.43185 18.448041,0.008 22.694775,-0.1702 23.8118,-0.99816 1.255065,-0.93033 1.272164,-1.09638 0.22261,-2.1623 -0.879511,-0.89327 -3.019196,-1.24095 -9.454691,-1.53634 -10.967017,-0.50335 -11.267157,-0.63361 -11.573969,-5.02326 l -0.245639,-3.5146 18.360241,-0.2062 c 16.55381,-0.18582 18.483193,-0.32968 19.6097194,-1.46137 1.15299823,-1.15831 1.24235986,-3.0644 1.15744521,-24.69055 -0.06881971,-17.51471 -0.31157571,-23.6999 -0.96117101,-24.48265 -0.7522709,-0.90643 -6.080455,-1.0473 -39.6070906,-1.0473 -38.265444,0 -41.827802,0.19137 -43.181255,2.31995 -0.290823,0.45738 -0.533604,2.8259 -0.539507,5.26336 l -0.01059,4.43178 -2.82483,-2.41798 c -1.616959,-1.38406 -3.937804,-2.60196 -5.427709,-2.84827 -6.174899,-1.02081 -23.982115,-0.008 -25.437445,1.44855 -0.8918,0.89179 -1.76239,51.8657 -0.99196,58.08125 0.39999,3.22706 0.64618,3.63745 2.3915,3.98653 3.42749,0.68549 22.747503,1.1251 25.293631,0.57553 z m -20.705989,-1.95067 -4.94157,-0.42436 -0.18767,-29.60725 c -0.11647,-18.37791 0.0675,-29.76487 0.48477,-30.02287 0.36986,-0.22844 0.82366,0.16252 1.00844,0.86917 0.40695,1.55619 4.24208,2.20121 13.08754,2.20121 6.257485,0 7.746147,-0.56529 7.746147,-2.94147 0,-1.5401 2.930153,-1.74268 4.138974,-0.28612 1.103501,1.32965 0.218906,60.03676 -0.917177,60.87376 -0.735807,0.54208 -9.832254,0.24723 -20.419434,-0.66207 z m 15.796928,-11.06986 c 0,-1.32546 -0.236375,-2.55565 -0.525267,-2.73379 -0.288891,-0.17814 -4.444251,-0.42482 -9.234121,-0.54819 l -8.70885,-0.2242 -0.56423,2.08265 c -0.8983,3.31583 0.50774,3.8335 10.412,3.8335 h 8.620468 z m -8.404158,0.7163 c 0,-1.77082 1.1548,-2.50853 3.92685,-2.50853 2.609706,0 3.076607,0.21256 3.076607,1.40071 0,1.21393 -0.466901,1.4007 -3.501717,1.4007 -1.92597,0 -3.50174,-0.13182 -3.50174,-0.29288 z m -6.47822,-0.15671 c -3.96766,-0.65579 -3.44456,-2.35187 0.72538,-2.35187 2.88476,0 3.35166,0.19508 3.35166,1.4007 0,1.53459 -0.22711,1.58753 -4.07704,0.95117 z m 16.28308,-17.75956 c 0.702059,-0.45371 -2.73814,-0.68244 -10.37145,-0.68961 -7.43893,-0.008 -11.27104,0.23346 -10.98911,0.68961 0.56219,0.9097 19.952923,0.9097 21.36056,0 z m 0.700337,-8.40419 c 0,-0.4377 -4.202078,-0.70034 -11.205537,-0.70034 -7.00348,0 -11.20556,0.26259 -11.20556,0.70034 0,0.43772 4.20208,0.70034 11.20556,0.70034 7.003459,0 11.205537,-0.26257 11.205537,-0.70034 z m -0.350167,-6.97421 c 0.880914,-0.34368 -1.587977,-0.733 -6.65329,-1.04913 -9.07188,-0.56622 -14.12198,-0.34183 -13.8442,0.61508 0.23187,0.79889 18.56718,1.18715 20.49749,0.43405 z m 0,-8.43346 c 0.25755,-0.4168 -0.576354,-0.70037 -2.059722,-0.70037 -1.748699,0 -2.492527,-0.31351 -2.492527,-1.05051 0,-0.75871 0.778159,-1.05054 2.801377,-1.05054 1.540754,0 2.801378,-0.31515 2.801378,-0.70034 0,-0.43747 -3.877453,-0.68186 -10.330096,-0.65113 -13.69026,0.0654 -17.66756,1.4869 -6.33378,2.26394 3.11367,0.21361 4.80705,0.055 5.02418,-0.47032 0.21864,-0.52878 0.5704,-0.44291 1.05782,0.25808 0.62984,0.90604 -0.13341,1.0782 -5.54948,1.2519 -3.45383,0.11065 -6.27972,0.50471 -6.27972,0.87544 0,0.91969 20.791733,0.8941 21.36057,-0.0265 z m -8.05399,-1.75088 c 0,-0.57779 0.47272,-1.05054 1.05053,-1.05054 0.57779,0 1.05051,0.47275 1.05051,1.05054 0,0.57778 -0.47272,1.05051 -1.05051,1.05051 -0.57781,0 -1.05053,-0.47273 -1.05053,-1.05051 z m 14.988412,46.04796 c 0.216258,-3.75562 0.501126,-15.65281 0.632788,-26.43818 0.131554,-10.78538 0.06776,-15.98547 -0.141879,-11.55576 l -0.38135,8.054 -0.440616,-8.75436 c -0.25014,-4.96923 -0.341302,-0.57847 -0.210964,10.15506 0.12626,10.40019 -0.02912,22.69132 -0.345749,27.31364 -0.441569,6.44901 -0.600864,1.60931 -0.684746,-20.80315 l -0.109321,-29.20734 2.421589,1.54354 2.421562,1.54354 -0.115143,11.90592 -0.115145,11.90595 -0.380396,-9.8049 -0.380425,-9.80487 -0.525266,17.09688 c -0.28889,9.40327 -0.52524,20.82773 -0.52524,25.38765 0,5.47041 -0.257286,8.2908 -0.75648,8.2908 -0.516902,0 -0.631887,-2.16246 -0.363087,-6.82842 z m 2.001937,-4.87686 c 0.139496,-2.22893 0.254639,-0.58586 0.256228,3.65126 0.0014,4.23711 -0.112497,6.06078 -0.25358,4.05259 -0.141084,-2.00822 -0.142144,-5.47493 -0.0026,-7.70385 z m 65.300364,6.80284 c -0.237963,-0.38519 -0.099,-0.70037 0.30885,-0.70037 0.407926,0 0.741682,0.31518 0.741682,0.70037 0,0.38519 -0.138965,0.70034 -0.308848,0.70034 -0.169937,0 -0.503614,-0.31515 -0.741684,-0.70034 z m -10.422241,-0.38657 c -0.239287,-0.62326 -0.121762,-0.90436 0.275233,-0.65902 0.380794,0.23532 0.692343,0.72446 0.692343,1.08691 0,1.00741 -0.502,0.78542 -0.967576,-0.42789 z m 7.460351,-0.0365 c 0.23267,-0.23266 0.83679,-0.25755 1.342336,-0.0553 0.558698,0.22367 0.392732,0.38951 -0.42312,0.42312 -0.738269,0.0305 -1.151912,-0.13526 -0.919216,-0.36785 z m -5.792437,-0.27724 c 0,-0.38519 0.138965,-0.70034 0.30885,-0.70034 0.169935,0 0.503614,0.31515 0.741683,0.70034 0.237963,0.38519 0.099,0.70037 -0.30885,0.70037 -0.407926,0 -0.741683,-0.31518 -0.741683,-0.70037 z m -7.286313,-0.42725 c -0.299664,-0.78089 -0.119379,-0.87624 0.743484,-0.39332 0.62646,0.35057 1.724559,0.4843 2.440224,0.29715 0.715663,-0.18714 1.301227,-0.0363 1.301227,0.33516 0,1.11264 -4.049057,0.89686 -4.484935,-0.23902 z m -3.182093,-0.20397 c -0.601657,-1.12423 -0.503852,-1.2773 0.627255,-0.9815 1.624478,0.42481 2.513889,2.31347 1.08947,2.31347 -0.552133,0 -1.324655,-0.59938 -1.716725,-1.33197 z m -2.113188,-0.0238 c -0.896851,-1.67581 -0.943145,-3.06495 -0.08444,-2.53423 0.352288,0.21785 0.773369,0.1575 0.935734,-0.13367 0.162261,-0.2913 0.190318,-0.11276 0.06247,0.39655 -0.128113,0.50939 0.09238,1.53363 0.489611,2.27612 0.473758,0.88523 0.481354,1.34996 0.02117,1.34996 -0.385189,0 -1.026605,-0.6096 -1.425346,-1.35465 z m -2.423892,0.18714 c -0.748909,-1.95162 0.69454,-2.50786 1.562802,-0.60222 0.64912,1.42462 0.61905,1.76986 -0.154053,1.76986 -0.528311,0 -1.162209,-0.52545 -1.408643,-1.16764 z m -1.369707,0.0808 c -0.239286,-0.62323 -0.12176,-0.90436 0.275234,-0.65899 0.380794,0.23532 0.692344,0.72443 0.692344,1.08689 0,1.00739 -0.502,0.78541 -0.967578,-0.4279 z m -6.359233,-0.14611 c -0.338788,-0.88288 -0.225788,-0.91395 0.657482,-0.18079 0.866992,0.71954 1.068559,0.70532 1.077268,-0.0759 0.008,-0.75499 0.156437,-0.73583 0.689618,0.0892 0.373409,0.57778 0.683741,0.7091 0.689643,0.2918 0.0053,-0.41729 0.453402,-0.7587 0.994471,-0.7587 0.541042,0 0.851373,0.34496 0.689564,0.76657 -0.460336,1.19967 -4.327863,1.09318 -4.798046,-0.13209 z m -5.979791,0.64949 c 0,-0.32099 0.45888,-0.58363 1.019722,-0.58363 0.560842,0 0.85741,0.26258 0.659019,0.58363 -0.198524,0.321 -0.657272,0.58364 -1.019723,0.58364 -0.36245,0 -0.659018,-0.26259 -0.659018,-0.58364 z m -2.10104,-0.11673 c 0,-0.38519 0.138967,-0.70034 0.30885,-0.70034 0.169936,0 0.503615,0.31515 0.741684,0.70034 0.237964,0.3852 0.099,0.70037 -0.30885,0.70037 -0.407926,0 -0.741684,-0.31517 -0.741684,-0.70037 z m 17.760516,-10.29032 c 0.832447,-0.83246 1.912654,0.9057 1.397393,2.24849 -0.463725,1.20845 -0.544617,1.19206 -1.183518,-0.23982 -0.377169,-0.84527 -0.473412,-1.74919 -0.213875,-2.00873 z m -39.874305,-3.10201 c -0.267133,-0.43225 -0.629716,-10.98688 -0.805714,-23.45471 l -0.319993,-22.66878 1.860508,-0.70738 c 1.170679,-0.44509 16.131405,-0.70734 40.351291,-0.70734 h 38.49078 l 0.5079289,1.5758 c 0.2793619,0.86667 0.4127693,11.73958 0.2964608,24.16204 l -0.2114921,22.58627 H -41.623439 c -28.697593,0 -39.977879,-0.2197 -40.327731,-0.7859 z m 63.414233,-0.45469 c 7.885376,-0.10457 14.6171734,-0.47019 14.959507,-0.81253 0.5034029,-0.50341 0.6554463,-13.71501 0.482121,-41.89381 l -0.01324,-2.27614 h -37.768679 c -33.814417,0 -37.886953,0.11833 -38.898336,1.12968 -0.998335,0.99832 -1.105934,3.5566 -0.925464,22.00363 0.112232,11.48069 0.467033,21.13614 0.788271,21.45661 0.569788,0.56839 32.64183,0.77351 61.376588,0.39256 z m -60.559969,-22.57129 v -20.66031 h 37.293447 37.2934728 v 20.68694 20.68694 l -37.2934728,-0.0267 -37.293447,-0.0267 V 230.82896 Z M -113.80179,214.2632 c -0.5083,-0.50833 0.91347,-0.87047 4.66125,-1.18726 8.88077,-0.75071 13.585486,-0.5852 13.585486,0.47795 0,0.51359 -0.236375,1.17669 -0.525241,1.47352 -0.769052,0.79026 -16.860995,0.0964 -17.721495,-0.76421 z m 36.255458,45.63048 c -0.0053,-1.92598 -0.141349,-2.63074 -0.302259,-1.56617 -0.160936,1.06459 -0.156701,2.64037 0.01059,3.50175 0.166231,0.86138 0.297944,-0.0106 0.292677,-1.93558 z"
           id="path5116"
           inkscape:connector-curvature="0"
           clip-path="url(#clipPath5124)"
           transform="translate(121.48478,-89.552339)" />
        <path
           style="fill:none;fill-rule:evenodd;stroke:#000000;stroke-width:1.00000102;stroke-linecap:round;stroke-linejoin:miter;stroke-miterlimit:4;stroke-dasharray:none;stroke-opacity:1"
           d="M 79.342593,107 V 217"
           id="path5220"
           inkscape:connector-curvature="0"
           sodipodi:nodetypes="cc" />
      </g>
    </g>
  </g>
</svg>
